<?xml version="1.0" encoding="utf-8" standalone="no"?>
<!DOCTYPE svg PUBLIC "-//W3C//DTD SVG 1.1//EN"
  "http://www.w3.org/Graphics/SVG/1.1/DTD/svg11.dtd">
<svg xmlns:xlink="http://www.w3.org/1999/xlink" width="918.36pt" height="469.008pt" viewBox="0 0 918.36 469.008" xmlns="http://www.w3.org/2000/svg" version="1.1">
 <metadata>
  <rdf:RDF xmlns:dc="http://purl.org/dc/elements/1.1/" xmlns:cc="http://creativecommons.org/ns#" xmlns:rdf="http://www.w3.org/1999/02/22-rdf-syntax-ns#">
   <cc:Work>
    <dc:type rdf:resource="http://purl.org/dc/dcmitype/StillImage"/>
    <dc:date>2026-07-01T02:40:14.310670</dc:date>
    <dc:format>image/svg+xml</dc:format>
    <dc:creator>
     <cc:Agent>
      <dc:title>Matplotlib v3.11.0, https://matplotlib.org/</dc:title>
     </cc:Agent>
    </dc:creator>
   </cc:Work>
  </rdf:RDF>
 </metadata>
 <defs>
  <style type="text/css">*{stroke-linejoin: round; stroke-linecap: butt}</style>
 </defs>
 <g id="figure_1">
  <g id="patch_1">
   <path d="M 0 469.008 
L 918.36 469.008 
L 918.36 -0 
L 0 -0 
z
" style="fill: #fcfcfd"/>
  </g>
  <g id="axes_1">
   <g id="patch_2">
    <path d="M 65.9574 192.07392 
L 141.2874 192.07392 
L 141.2874 152.67456 
L 65.9574 152.67456 
z
" clip-path="url(#p3df78bf3f0)" style="fill: #fce7f3; stroke: #cc3377; stroke-width: 1.1; stroke-linejoin: miter"/>
   </g>
   <g id="patch_3">
    <path d="M 141.2874 192.07392 
L 216.6174 192.07392 
L 216.6174 152.67456 
L 141.2874 152.67456 
z
" clip-path="url(#p3df78bf3f0)" style="fill: #ffffff; stroke: #cbd5e1; stroke-width: 0.9; stroke-linejoin: miter"/>
   </g>
   <g id="patch_4">
    <path d="M 216.6174 192.07392 
L 291.9474 192.07392 
L 291.9474 152.67456 
L 216.6174 152.67456 
z
" clip-path="url(#p3df78bf3f0)" style="fill: #ffffff; stroke: #cbd5e1; stroke-width: 0.9; stroke-linejoin: miter"/>
   </g>
   <g id="patch_5">
    <path d="M 291.9474 192.07392 
L 367.2774 192.07392 
L 367.2774 152.67456 
L 291.9474 152.67456 
z
" clip-path="url(#p3df78bf3f0)" style="fill: #ffffff; stroke: #cbd5e1; stroke-width: 0.9; stroke-linejoin: miter"/>
   </g>
   <g id="patch_6">
    <path d="M 367.2774 192.07392 
L 442.6074 192.07392 
L 442.6074 152.67456 
L 367.2774 152.67456 
z
" clip-path="url(#p3df78bf3f0)" style="fill: #ffffff; stroke: #cbd5e1; stroke-width: 0.9; stroke-linejoin: miter"/>
   </g>
   <g id="patch_7">
    <path d="M 442.6074 192.07392 
L 517.9374 192.07392 
L 517.9374 152.67456 
L 442.6074 152.67456 
z
" clip-path="url(#p3df78bf3f0)" style="fill: #ffffff; stroke: #cbd5e1; stroke-width: 0.9; stroke-linejoin: miter"/>
   </g>
   <g id="patch_8">
    <path d="M 65.9574 231.47328 
L 141.2874 231.47328 
L 141.2874 192.07392 
L 65.9574 192.07392 
z
" clip-path="url(#p3df78bf3f0)" style="fill: #ffffff; stroke: #cbd5e1; stroke-width: 0.9; stroke-linejoin: miter"/>
   </g>
   <g id="patch_9">
    <path d="M 141.2874 231.47328 
L 216.6174 231.47328 
L 216.6174 192.07392 
L 141.2874 192.07392 
z
" clip-path="url(#p3df78bf3f0)" style="fill: #fce7f3; stroke: #cc3377; stroke-width: 1.1; stroke-linejoin: miter"/>
   </g>
   <g id="patch_10">
    <path d="M 216.6174 231.47328 
L 291.9474 231.47328 
L 291.9474 192.07392 
L 216.6174 192.07392 
z
" clip-path="url(#p3df78bf3f0)" style="fill: #ffffff; stroke: #cbd5e1; stroke-width: 0.9; stroke-linejoin: miter"/>
   </g>
   <g id="patch_11">
    <path d="M 291.9474 231.47328 
L 367.2774 231.47328 
L 367.2774 192.07392 
L 291.9474 192.07392 
z
" clip-path="url(#p3df78bf3f0)" style="fill: #ffffff; stroke: #cbd5e1; stroke-width: 0.9; stroke-linejoin: miter"/>
   </g>
   <g id="patch_12">
    <path d="M 367.2774 231.47328 
L 442.6074 231.47328 
L 442.6074 192.07392 
L 367.2774 192.07392 
z
" clip-path="url(#p3df78bf3f0)" style="fill: #ffffff; stroke: #cbd5e1; stroke-width: 0.9; stroke-linejoin: miter"/>
   </g>
   <g id="patch_13">
    <path d="M 442.6074 231.47328 
L 517.9374 231.47328 
L 517.9374 192.07392 
L 442.6074 192.07392 
z
" clip-path="url(#p3df78bf3f0)" style="fill: #ffffff; stroke: #cbd5e1; stroke-width: 0.9; stroke-linejoin: miter"/>
   </g>
   <g id="patch_14">
    <path d="M 65.9574 270.87264 
L 141.2874 270.87264 
L 141.2874 231.47328 
L 65.9574 231.47328 
z
" clip-path="url(#p3df78bf3f0)" style="fill: #ecfdf5; stroke: #009988; stroke-width: 1.4; stroke-linejoin: miter"/>
   </g>
   <g id="patch_15">
    <path d="M 141.2874 270.87264 
L 216.6174 270.87264 
L 216.6174 231.47328 
L 141.2874 231.47328 
z
" clip-path="url(#p3df78bf3f0)" style="fill: #ecfdf5; stroke: #009988; stroke-width: 1.4; stroke-linejoin: miter"/>
   </g>
   <g id="patch_16">
    <path d="M 216.6174 270.87264 
L 291.9474 270.87264 
L 291.9474 231.47328 
L 216.6174 231.47328 
z
" clip-path="url(#p3df78bf3f0)" style="fill: #ecfdf5; stroke: #009988; stroke-width: 1.4; stroke-linejoin: miter"/>
   </g>
   <g id="patch_17">
    <path d="M 291.9474 270.87264 
L 367.2774 270.87264 
L 367.2774 231.47328 
L 291.9474 231.47328 
z
" clip-path="url(#p3df78bf3f0)" style="fill: #fff7ed; stroke: #ee7733; stroke-width: 1.8; stroke-linejoin: miter"/>
   </g>
   <g id="patch_18">
    <path d="M 367.2774 270.87264 
L 442.6074 270.87264 
L 442.6074 231.47328 
L 367.2774 231.47328 
z
" clip-path="url(#p3df78bf3f0)" style="fill: #ecfdf5; stroke: #009988; stroke-width: 1.4; stroke-linejoin: miter"/>
   </g>
   <g id="patch_19">
    <path d="M 442.6074 270.87264 
L 517.9374 270.87264 
L 517.9374 231.47328 
L 442.6074 231.47328 
z
" clip-path="url(#p3df78bf3f0)" style="fill: #fff7ed; stroke: #ee7733; stroke-width: 1.8; stroke-linejoin: miter"/>
   </g>
   <g id="patch_20">
    <path d="M 65.9574 310.272 
L 141.2874 310.272 
L 141.2874 270.87264 
L 65.9574 270.87264 
z
" clip-path="url(#p3df78bf3f0)" style="fill: #ffffff; stroke: #cbd5e1; stroke-width: 0.9; stroke-linejoin: miter"/>
   </g>
   <g id="patch_21">
    <path d="M 141.2874 310.272 
L 216.6174 310.272 
L 216.6174 270.87264 
L 141.2874 270.87264 
z
" clip-path="url(#p3df78bf3f0)" style="fill: #ffffff; stroke: #cbd5e1; stroke-width: 0.9; stroke-linejoin: miter"/>
   </g>
   <g id="patch_22">
    <path d="M 216.6174 310.272 
L 291.9474 310.272 
L 291.9474 270.87264 
L 216.6174 270.87264 
z
" clip-path="url(#p3df78bf3f0)" style="fill: #ffffff; stroke: #cbd5e1; stroke-width: 0.9; stroke-linejoin: miter"/>
   </g>
   <g id="patch_23">
    <path d="M 291.9474 310.272 
L 367.2774 310.272 
L 367.2774 270.87264 
L 291.9474 270.87264 
z
" clip-path="url(#p3df78bf3f0)" style="fill: #fce7f3; stroke: #cc3377; stroke-width: 1.1; stroke-linejoin: miter"/>
   </g>
   <g id="patch_24">
    <path d="M 367.2774 310.272 
L 442.6074 310.272 
L 442.6074 270.87264 
L 367.2774 270.87264 
z
" clip-path="url(#p3df78bf3f0)" style="fill: #ffffff; stroke: #cbd5e1; stroke-width: 0.9; stroke-linejoin: miter"/>
   </g>
   <g id="patch_25">
    <path d="M 442.6074 310.272 
L 517.9374 310.272 
L 517.9374 270.87264 
L 442.6074 270.87264 
z
" clip-path="url(#p3df78bf3f0)" style="fill: #ffffff; stroke: #cbd5e1; stroke-width: 0.9; stroke-linejoin: miter"/>
   </g>
   <g id="patch_26">
    <path d="M 65.9574 349.67136 
L 141.2874 349.67136 
L 141.2874 310.272 
L 65.9574 310.272 
z
" clip-path="url(#p3df78bf3f0)" style="fill: #ffffff; stroke: #cbd5e1; stroke-width: 0.9; stroke-linejoin: miter"/>
   </g>
   <g id="patch_27">
    <path d="M 141.2874 349.67136 
L 216.6174 349.67136 
L 216.6174 310.272 
L 141.2874 310.272 
z
" clip-path="url(#p3df78bf3f0)" style="fill: #ffffff; stroke: #cbd5e1; stroke-width: 0.9; stroke-linejoin: miter"/>
   </g>
   <g id="patch_28">
    <path d="M 216.6174 349.67136 
L 291.9474 349.67136 
L 291.9474 310.272 
L 216.6174 310.272 
z
" clip-path="url(#p3df78bf3f0)" style="fill: #ffffff; stroke: #cbd5e1; stroke-width: 0.9; stroke-linejoin: miter"/>
   </g>
   <g id="patch_29">
    <path d="M 291.9474 349.67136 
L 367.2774 349.67136 
L 367.2774 310.272 
L 291.9474 310.272 
z
" clip-path="url(#p3df78bf3f0)" style="fill: #ffffff; stroke: #cbd5e1; stroke-width: 0.9; stroke-linejoin: miter"/>
   </g>
   <g id="patch_30">
    <path d="M 367.2774 349.67136 
L 442.6074 349.67136 
L 442.6074 310.272 
L 367.2774 310.272 
z
" clip-path="url(#p3df78bf3f0)" style="fill: #fce7f3; stroke: #cc3377; stroke-width: 1.1; stroke-linejoin: miter"/>
   </g>
   <g id="patch_31">
    <path d="M 442.6074 349.67136 
L 517.9374 349.67136 
L 517.9374 310.272 
L 442.6074 310.272 
z
" clip-path="url(#p3df78bf3f0)" style="fill: #ffffff; stroke: #cbd5e1; stroke-width: 0.9; stroke-linejoin: miter"/>
   </g>
   <g id="patch_32">
    <path d="M 65.9574 389.07072 
L 141.2874 389.07072 
L 141.2874 349.67136 
L 65.9574 349.67136 
z
" clip-path="url(#p3df78bf3f0)" style="fill: #ffffff; stroke: #cbd5e1; stroke-width: 0.9; stroke-linejoin: miter"/>
   </g>
   <g id="patch_33">
    <path d="M 141.2874 389.07072 
L 216.6174 389.07072 
L 216.6174 349.67136 
L 141.2874 349.67136 
z
" clip-path="url(#p3df78bf3f0)" style="fill: #ffffff; stroke: #cbd5e1; stroke-width: 0.9; stroke-linejoin: miter"/>
   </g>
   <g id="patch_34">
    <path d="M 216.6174 389.07072 
L 291.9474 389.07072 
L 291.9474 349.67136 
L 216.6174 349.67136 
z
" clip-path="url(#p3df78bf3f0)" style="fill: #ffffff; stroke: #cbd5e1; stroke-width: 0.9; stroke-linejoin: miter"/>
   </g>
   <g id="patch_35">
    <path d="M 291.9474 389.07072 
L 367.2774 389.07072 
L 367.2774 349.67136 
L 291.9474 349.67136 
z
" clip-path="url(#p3df78bf3f0)" style="fill: #ffffff; stroke: #cbd5e1; stroke-width: 0.9; stroke-linejoin: miter"/>
   </g>
   <g id="patch_36">
    <path d="M 367.2774 389.07072 
L 442.6074 389.07072 
L 442.6074 349.67136 
L 367.2774 349.67136 
z
" clip-path="url(#p3df78bf3f0)" style="fill: #ffffff; stroke: #cbd5e1; stroke-width: 0.9; stroke-linejoin: miter"/>
   </g>
   <g id="patch_37">
    <path d="M 442.6074 389.07072 
L 517.9374 389.07072 
L 517.9374 349.67136 
L 442.6074 349.67136 
z
" clip-path="url(#p3df78bf3f0)" style="fill: #fce7f3; stroke: #cc3377; stroke-width: 1.1; stroke-linejoin: miter"/>
   </g>
   <g id="patch_38">
    <path d="M 65.9574 270.87264 
L 517.9374 270.87264 
L 517.9374 231.47328 
L 65.9574 231.47328 
L 65.9574 270.87264 
z
" clip-path="url(#p3df78bf3f0)" style="fill: none; stroke: #009988; stroke-width: 2.6; stroke-linejoin: miter"/>
   </g>
   <g id="patch_39">
    <path d="M 478.495359 250.259798 
Q 404.943279 212.914968 332.737017 249.575605 
" clip-path="url(#p3df78bf3f0)" style="fill: none; stroke: #ee7733; stroke-width: 1.35; stroke-linecap: round"/>
    <path d="M 339.892299 249.531545 
L 332.737017 249.575605 
L 336.994937 243.824944 
z
" clip-path="url(#p3df78bf3f0)" style="fill: #ee7733; stroke: #ee7733; stroke-width: 1.35; stroke-linecap: round"/>
   </g>
   <g id="patch_40">
    <path d="M 256.235487 250.731595 
Q 453.327851 206.472011 641.205398 276.464555 
" clip-path="url(#p3df78bf3f0)" style="fill: none; stroke: #cc3377; stroke-width: 1.35; stroke-linecap: round"/>
    <path d="M 636.325196 271.231618 
L 641.205398 276.464555 
L 634.090928 277.228955 
z
" clip-path="url(#p3df78bf3f0)" style="fill: #cc3377; stroke: #cc3377; stroke-width: 1.35; stroke-linecap: round"/>
   </g>
   <g id="patch_41">
    <path d="M 664.37892 318.60648 
L 859.63428 318.60648 
Q 879.5214 318.60648 879.5214 308.605104 
L 879.5214 237.686256 
Q 879.5214 227.68488 859.63428 227.68488 
L 664.37892 227.68488 
Q 644.4918 227.68488 644.4918 237.686256 
L 644.4918 308.605104 
Q 644.4918 318.60648 664.37892 318.60648 
z
" clip-path="url(#p3df78bf3f0)" style="fill: #ffffff; stroke: #cc3377; stroke-width: 1.45; stroke-linejoin: miter"/>
   </g>
   <g id="patch_42">
    <path d="M 646.29972 168.58584 
L 859.63428 168.58584 
Q 879.5214 168.58584 879.5214 158.584464 
L 879.5214 96.757776 
Q 879.5214 86.7564 859.63428 86.7564 
L 646.29972 86.7564 
Q 626.4126 86.7564 626.4126 96.757776 
L 626.4126 158.584464 
Q 626.4126 168.58584 646.29972 168.58584 
z
" clip-path="url(#p3df78bf3f0)" style="fill: #ffffff; stroke: #0077bb; stroke-width: 1.45; stroke-linejoin: miter"/>
   </g>
   <g id="patch_43">
    <path d="M 647.018033 161.62972 
Q 519.25198 153.190271 421.216368 233.191171 
" clip-path="url(#p3df78bf3f0)" style="fill: none; stroke: #0077bb; stroke-width: 1.35; stroke-linecap: round"/>
    <path d="M 428.198075 231.624082 
L 421.216368 233.191171 
L 424.151721 226.665552 
z
" clip-path="url(#p3df78bf3f0)" style="fill: #0077bb; stroke: #0077bb; stroke-width: 1.35; stroke-linecap: round"/>
   </g>
   <g id="text_1">
    <!-- Local worlds form a tensor bundle over the node set -->
    <g style="fill: #111827" transform="translate(34.3188 44.218654) scale(0.2 -0.2)">
     <defs>
      <path id="DejaVuSans-Bold-2f" d="M 588 4666 
L 1791 4666 
L 1791 909 
L 3903 909 
L 3903 0 
L 588 0 
L 588 4666 
z
" transform="scale(0.015625)"/>
      <path id="DejaVuSans-Bold-52" d="M 2203 2784 
Q 1831 2784 1636 2517 
Q 1441 2250 1441 1747 
Q 1441 1244 1636 976 
Q 1831 709 2203 709 
Q 2569 709 2762 976 
Q 2956 1244 2956 1747 
Q 2956 2250 2762 2517 
Q 2569 2784 2203 2784 
z
M 2203 3584 
Q 3106 3584 3614 3096 
Q 4122 2609 4122 1747 
Q 4122 884 3614 396 
Q 3106 -91 2203 -91 
Q 1297 -91 786 396 
Q 275 884 275 1747 
Q 275 2609 786 3096 
Q 1297 3584 2203 3584 
z
" transform="scale(0.015625)"/>
      <path id="DejaVuSans-Bold-46" d="M 3366 3391 
L 3366 2478 
Q 3138 2634 2908 2709 
Q 2678 2784 2431 2784 
Q 1963 2784 1702 2511 
Q 1441 2238 1441 1747 
Q 1441 1256 1702 982 
Q 1963 709 2431 709 
Q 2694 709 2930 787 
Q 3166 866 3366 1019 
L 3366 103 
Q 3103 6 2833 -42 
Q 2563 -91 2291 -91 
Q 1344 -91 809 395 
Q 275 881 275 1747 
Q 275 2613 809 3098 
Q 1344 3584 2291 3584 
Q 2566 3584 2833 3536 
Q 3100 3488 3366 3391 
z
" transform="scale(0.015625)"/>
      <path id="DejaVuSans-Bold-44" d="M 2106 1575 
Q 1756 1575 1579 1456 
Q 1403 1338 1403 1106 
Q 1403 894 1545 773 
Q 1688 653 1941 653 
Q 2256 653 2472 879 
Q 2688 1106 2688 1447 
L 2688 1575 
L 2106 1575 
z
M 3816 1997 
L 3816 0 
L 2688 0 
L 2688 519 
Q 2463 200 2181 54 
Q 1900 -91 1497 -91 
Q 953 -91 614 226 
Q 275 544 275 1050 
Q 275 1666 698 1953 
Q 1122 2241 2028 2241 
L 2688 2241 
L 2688 2328 
Q 2688 2594 2478 2717 
Q 2269 2841 1825 2841 
Q 1466 2841 1156 2769 
Q 847 2697 581 2553 
L 581 3406 
Q 941 3494 1303 3539 
Q 1666 3584 2028 3584 
Q 2975 3584 3395 3211 
Q 3816 2838 3816 1997 
z
" transform="scale(0.015625)"/>
      <path id="DejaVuSans-Bold-4f" d="M 538 4863 
L 1656 4863 
L 1656 0 
L 538 0 
L 538 4863 
z
" transform="scale(0.015625)"/>
      <path id="DejaVuSans-Bold-3" transform="scale(0.015625)"/>
      <path id="DejaVuSans-Bold-5a" d="M 225 3500 
L 1313 3500 
L 1900 1088 
L 2491 3500 
L 3425 3500 
L 4013 1113 
L 4603 3500 
L 5691 3500 
L 4769 0 
L 3547 0 
L 2956 2406 
L 2369 0 
L 1147 0 
L 225 3500 
z
" transform="scale(0.015625)"/>
      <path id="DejaVuSans-Bold-55" d="M 3138 2547 
Q 2991 2616 2845 2648 
Q 2700 2681 2553 2681 
Q 2122 2681 1889 2404 
Q 1656 2128 1656 1613 
L 1656 0 
L 538 0 
L 538 3500 
L 1656 3500 
L 1656 2925 
Q 1872 3269 2151 3426 
Q 2431 3584 2822 3584 
Q 2878 3584 2943 3579 
Q 3009 3575 3134 3559 
L 3138 2547 
z
" transform="scale(0.015625)"/>
      <path id="DejaVuSans-Bold-47" d="M 2919 2988 
L 2919 4863 
L 4044 4863 
L 4044 0 
L 2919 0 
L 2919 506 
Q 2688 197 2409 53 
Q 2131 -91 1766 -91 
Q 1119 -91 703 423 
Q 288 938 288 1747 
Q 288 2556 703 3070 
Q 1119 3584 1766 3584 
Q 2128 3584 2408 3439 
Q 2688 3294 2919 2988 
z
M 2181 722 
Q 2541 722 2730 984 
Q 2919 1247 2919 1747 
Q 2919 2247 2730 2509 
Q 2541 2772 2181 2772 
Q 1825 2772 1636 2509 
Q 1447 2247 1447 1747 
Q 1447 1247 1636 984 
Q 1825 722 2181 722 
z
" transform="scale(0.015625)"/>
      <path id="DejaVuSans-Bold-56" d="M 3272 3391 
L 3272 2541 
Q 2913 2691 2578 2766 
Q 2244 2841 1947 2841 
Q 1628 2841 1473 2761 
Q 1319 2681 1319 2516 
Q 1319 2381 1436 2309 
Q 1553 2238 1856 2203 
L 2053 2175 
Q 2913 2066 3209 1816 
Q 3506 1566 3506 1031 
Q 3506 472 3093 190 
Q 2681 -91 1863 -91 
Q 1516 -91 1145 -36 
Q 775 19 384 128 
L 384 978 
Q 719 816 1070 734 
Q 1422 653 1784 653 
Q 2113 653 2278 743 
Q 2444 834 2444 1013 
Q 2444 1163 2330 1236 
Q 2216 1309 1875 1350 
L 1678 1375 
Q 931 1469 631 1722 
Q 331 1975 331 2491 
Q 331 3047 712 3315 
Q 1094 3584 1881 3584 
Q 2191 3584 2531 3537 
Q 2872 3491 3272 3391 
z
" transform="scale(0.015625)"/>
      <path id="DejaVuSans-Bold-49" d="M 2841 4863 
L 2841 4128 
L 2222 4128 
Q 1984 4128 1890 4042 
Q 1797 3956 1797 3744 
L 1797 3500 
L 2753 3500 
L 2753 2700 
L 1797 2700 
L 1797 0 
L 678 0 
L 678 2700 
L 122 2700 
L 122 3500 
L 678 3500 
L 678 3744 
Q 678 4316 997 4589 
Q 1316 4863 1984 4863 
L 2841 4863 
z
" transform="scale(0.015625)"/>
      <path id="DejaVuSans-Bold-50" d="M 3781 2919 
Q 3994 3244 4286 3414 
Q 4578 3584 4928 3584 
Q 5531 3584 5847 3212 
Q 6163 2841 6163 2131 
L 6163 0 
L 5038 0 
L 5038 1825 
Q 5041 1866 5042 1909 
Q 5044 1953 5044 2034 
Q 5044 2406 4934 2573 
Q 4825 2741 4581 2741 
Q 4263 2741 4089 2478 
Q 3916 2216 3909 1719 
L 3909 0 
L 2784 0 
L 2784 1825 
Q 2784 2406 2684 2573 
Q 2584 2741 2328 2741 
Q 2006 2741 1831 2477 
Q 1656 2213 1656 1722 
L 1656 0 
L 531 0 
L 531 3500 
L 1656 3500 
L 1656 2988 
Q 1863 3284 2130 3434 
Q 2397 3584 2719 3584 
Q 3081 3584 3359 3409 
Q 3638 3234 3781 2919 
z
" transform="scale(0.015625)"/>
      <path id="DejaVuSans-Bold-57" d="M 1759 4494 
L 1759 3500 
L 2913 3500 
L 2913 2700 
L 1759 2700 
L 1759 1216 
Q 1759 972 1856 886 
Q 1953 800 2241 800 
L 2816 800 
L 2816 0 
L 1856 0 
Q 1194 0 917 276 
Q 641 553 641 1216 
L 641 2700 
L 84 2700 
L 84 3500 
L 641 3500 
L 641 4494 
L 1759 4494 
z
" transform="scale(0.015625)"/>
      <path id="DejaVuSans-Bold-48" d="M 4031 1759 
L 4031 1441 
L 1416 1441 
Q 1456 1047 1700 850 
Q 1944 653 2381 653 
Q 2734 653 3104 758 
Q 3475 863 3866 1075 
L 3866 213 
Q 3469 63 3072 -14 
Q 2675 -91 2278 -91 
Q 1328 -91 801 392 
Q 275 875 275 1747 
Q 275 2603 792 3093 
Q 1309 3584 2216 3584 
Q 3041 3584 3536 3087 
Q 4031 2591 4031 1759 
z
M 2881 2131 
Q 2881 2450 2695 2645 
Q 2509 2841 2209 2841 
Q 1884 2841 1681 2658 
Q 1478 2475 1428 2131 
L 2881 2131 
z
" transform="scale(0.015625)"/>
      <path id="DejaVuSans-Bold-51" d="M 4056 2131 
L 4056 0 
L 2931 0 
L 2931 347 
L 2931 1631 
Q 2931 2084 2911 2256 
Q 2891 2428 2841 2509 
Q 2775 2619 2662 2680 
Q 2550 2741 2406 2741 
Q 2056 2741 1856 2470 
Q 1656 2200 1656 1722 
L 1656 0 
L 538 0 
L 538 3500 
L 1656 3500 
L 1656 2988 
Q 1909 3294 2193 3439 
Q 2478 3584 2822 3584 
Q 3428 3584 3742 3212 
Q 4056 2841 4056 2131 
z
" transform="scale(0.015625)"/>
      <path id="DejaVuSans-Bold-45" d="M 2400 722 
Q 2759 722 2948 984 
Q 3138 1247 3138 1747 
Q 3138 2247 2948 2509 
Q 2759 2772 2400 2772 
Q 2041 2772 1848 2508 
Q 1656 2244 1656 1747 
Q 1656 1250 1848 986 
Q 2041 722 2400 722 
z
M 1656 2988 
Q 1888 3294 2169 3439 
Q 2450 3584 2816 3584 
Q 3463 3584 3878 3070 
Q 4294 2556 4294 1747 
Q 4294 938 3878 423 
Q 3463 -91 2816 -91 
Q 2450 -91 2169 54 
Q 1888 200 1656 506 
L 1656 0 
L 538 0 
L 538 4863 
L 1656 4863 
L 1656 2988 
z
" transform="scale(0.015625)"/>
      <path id="DejaVuSans-Bold-58" d="M 500 1363 
L 500 3500 
L 1625 3500 
L 1625 3150 
Q 1625 2866 1622 2436 
Q 1619 2006 1619 1863 
Q 1619 1441 1641 1255 
Q 1663 1069 1716 984 
Q 1784 875 1895 815 
Q 2006 756 2150 756 
Q 2500 756 2700 1025 
Q 2900 1294 2900 1772 
L 2900 3500 
L 4019 3500 
L 4019 0 
L 2900 0 
L 2900 506 
Q 2647 200 2364 54 
Q 2081 -91 1741 -91 
Q 1134 -91 817 281 
Q 500 653 500 1363 
z
" transform="scale(0.015625)"/>
      <path id="DejaVuSans-Bold-59" d="M 97 3500 
L 1216 3500 
L 2088 1081 
L 2956 3500 
L 4078 3500 
L 2700 0 
L 1472 0 
L 97 3500 
z
" transform="scale(0.015625)"/>
      <path id="DejaVuSans-Bold-4b" d="M 4056 2131 
L 4056 0 
L 2931 0 
L 2931 347 
L 2931 1625 
Q 2931 2084 2911 2256 
Q 2891 2428 2841 2509 
Q 2775 2619 2662 2680 
Q 2550 2741 2406 2741 
Q 2056 2741 1856 2470 
Q 1656 2200 1656 1722 
L 1656 0 
L 538 0 
L 538 4863 
L 1656 4863 
L 1656 2988 
Q 1909 3294 2193 3439 
Q 2478 3584 2822 3584 
Q 3428 3584 3742 3212 
Q 4056 2841 4056 2131 
z
" transform="scale(0.015625)"/>
     </defs>
     <use xlink:href="#DejaVuSans-Bold-2f"/>
     <use xlink:href="#DejaVuSans-Bold-52" transform="translate(63.71875 0)"/>
     <use xlink:href="#DejaVuSans-Bold-46" transform="translate(132.421875 0)"/>
     <use xlink:href="#DejaVuSans-Bold-44" transform="translate(191.703125 0)"/>
     <use xlink:href="#DejaVuSans-Bold-4f" transform="translate(259.1875 0)"/>
     <use xlink:href="#DejaVuSans-Bold-3" transform="translate(293.46875 0)"/>
     <use xlink:href="#DejaVuSans-Bold-5a" transform="translate(328.28125 0)"/>
     <use xlink:href="#DejaVuSans-Bold-52" transform="translate(420.671875 0)"/>
     <use xlink:href="#DejaVuSans-Bold-55" transform="translate(489.375 0)"/>
     <use xlink:href="#DejaVuSans-Bold-4f" transform="translate(538.6875 0)"/>
     <use xlink:href="#DejaVuSans-Bold-47" transform="translate(572.96875 0)"/>
     <use xlink:href="#DejaVuSans-Bold-56" transform="translate(644.546875 0)"/>
     <use xlink:href="#DejaVuSans-Bold-3" transform="translate(704.0625 0)"/>
     <use xlink:href="#DejaVuSans-Bold-49" transform="translate(738.875 0)"/>
     <use xlink:href="#DejaVuSans-Bold-52" transform="translate(782.375 0)"/>
     <use xlink:href="#DejaVuSans-Bold-55" transform="translate(851.078125 0)"/>
     <use xlink:href="#DejaVuSans-Bold-50" transform="translate(900.390625 0)"/>
     <use xlink:href="#DejaVuSans-Bold-3" transform="translate(1004.59375 0)"/>
     <use xlink:href="#DejaVuSans-Bold-44" transform="translate(1039.40625 0)"/>
     <use xlink:href="#DejaVuSans-Bold-3" transform="translate(1106.890625 0)"/>
     <use xlink:href="#DejaVuSans-Bold-57" transform="translate(1141.703125 0)"/>
     <use xlink:href="#DejaVuSans-Bold-48" transform="translate(1189.5 0)"/>
     <use xlink:href="#DejaVuSans-Bold-51" transform="translate(1257.328125 0)"/>
     <use xlink:href="#DejaVuSans-Bold-56" transform="translate(1328.515625 0)"/>
     <use xlink:href="#DejaVuSans-Bold-52" transform="translate(1388.03125 0)"/>
     <use xlink:href="#DejaVuSans-Bold-55" transform="translate(1456.734375 0)"/>
     <use xlink:href="#DejaVuSans-Bold-3" transform="translate(1506.046875 0)"/>
     <use xlink:href="#DejaVuSans-Bold-45" transform="translate(1540.859375 0)"/>
     <use xlink:href="#DejaVuSans-Bold-58" transform="translate(1612.4375 0)"/>
     <use xlink:href="#DejaVuSans-Bold-51" transform="translate(1683.625 0)"/>
     <use xlink:href="#DejaVuSans-Bold-47" transform="translate(1754.8125 0)"/>
     <use xlink:href="#DejaVuSans-Bold-4f" transform="translate(1826.390625 0)"/>
     <use xlink:href="#DejaVuSans-Bold-48" transform="translate(1860.671875 0)"/>
     <use xlink:href="#DejaVuSans-Bold-3" transform="translate(1928.5 0)"/>
     <use xlink:href="#DejaVuSans-Bold-52" transform="translate(1963.3125 0)"/>
     <use xlink:href="#DejaVuSans-Bold-59" transform="translate(2032.015625 0)"/>
     <use xlink:href="#DejaVuSans-Bold-48" transform="translate(2097.203125 0)"/>
     <use xlink:href="#DejaVuSans-Bold-55" transform="translate(2165.03125 0)"/>
     <use xlink:href="#DejaVuSans-Bold-3" transform="translate(2214.34375 0)"/>
     <use xlink:href="#DejaVuSans-Bold-57" transform="translate(2249.15625 0)"/>
     <use xlink:href="#DejaVuSans-Bold-4b" transform="translate(2296.953125 0)"/>
     <use xlink:href="#DejaVuSans-Bold-48" transform="translate(2368.140625 0)"/>
     <use xlink:href="#DejaVuSans-Bold-3" transform="translate(2435.96875 0)"/>
     <use xlink:href="#DejaVuSans-Bold-51" transform="translate(2470.78125 0)"/>
     <use xlink:href="#DejaVuSans-Bold-52" transform="translate(2541.96875 0)"/>
     <use xlink:href="#DejaVuSans-Bold-47" transform="translate(2610.671875 0)"/>
     <use xlink:href="#DejaVuSans-Bold-48" transform="translate(2682.25 0)"/>
     <use xlink:href="#DejaVuSans-Bold-3" transform="translate(2750.078125 0)"/>
     <use xlink:href="#DejaVuSans-Bold-56" transform="translate(2784.890625 0)"/>
     <use xlink:href="#DejaVuSans-Bold-48" transform="translate(2844.40625 0)"/>
     <use xlink:href="#DejaVuSans-Bold-57" transform="translate(2912.234375 0)"/>
    </g>
   </g>
   <g id="text_2">
    <!-- Rows are center-indexed fibers $L_i$; columns are represented world nodes. Pair evolution acts inside each row over $(r,s)$. -->
    <g style="fill: #5b6472" transform="translate(34.3188 67.014652) scale(0.115 -0.115)">
     <defs>
      <path id="DejaVuSans-35" d="M 2841 2188 
Q 3044 2119 3236 1894 
Q 3428 1669 3622 1275 
L 4263 0 
L 3584 0 
L 2988 1197 
Q 2756 1666 2539 1819 
Q 2322 1972 1947 1972 
L 1259 1972 
L 1259 0 
L 628 0 
L 628 4666 
L 2053 4666 
Q 2853 4666 3247 4331 
Q 3641 3997 3641 3322 
Q 3641 2881 3436 2590 
Q 3231 2300 2841 2188 
z
M 1259 4147 
L 1259 2491 
L 2053 2491 
Q 2509 2491 2742 2702 
Q 2975 2913 2975 3322 
Q 2975 3731 2742 3939 
Q 2509 4147 2053 4147 
L 1259 4147 
z
" transform="scale(0.015625)"/>
      <path id="DejaVuSans-52" d="M 1959 3097 
Q 1497 3097 1228 2736 
Q 959 2375 959 1747 
Q 959 1119 1226 758 
Q 1494 397 1959 397 
Q 2419 397 2687 759 
Q 2956 1122 2956 1747 
Q 2956 2369 2687 2733 
Q 2419 3097 1959 3097 
z
M 1959 3584 
Q 2709 3584 3137 3096 
Q 3566 2609 3566 1747 
Q 3566 888 3137 398 
Q 2709 -91 1959 -91 
Q 1206 -91 779 398 
Q 353 888 353 1747 
Q 353 2609 779 3096 
Q 1206 3584 1959 3584 
z
" transform="scale(0.015625)"/>
      <path id="DejaVuSans-5a" d="M 269 3500 
L 844 3500 
L 1563 769 
L 2278 3500 
L 2956 3500 
L 3675 769 
L 4391 3500 
L 4966 3500 
L 4050 0 
L 3372 0 
L 2619 2869 
L 1863 0 
L 1184 0 
L 269 3500 
z
" transform="scale(0.015625)"/>
      <path id="DejaVuSans-56" d="M 2834 3397 
L 2834 2853 
Q 2591 2978 2328 3040 
Q 2066 3103 1784 3103 
Q 1356 3103 1142 2972 
Q 928 2841 928 2578 
Q 928 2378 1081 2264 
Q 1234 2150 1697 2047 
L 1894 2003 
Q 2506 1872 2764 1633 
Q 3022 1394 3022 966 
Q 3022 478 2636 193 
Q 2250 -91 1575 -91 
Q 1294 -91 989 -36 
Q 684 19 347 128 
L 347 722 
Q 666 556 975 473 
Q 1284 391 1588 391 
Q 1994 391 2212 530 
Q 2431 669 2431 922 
Q 2431 1156 2273 1281 
Q 2116 1406 1581 1522 
L 1381 1569 
Q 847 1681 609 1914 
Q 372 2147 372 2553 
Q 372 3047 722 3315 
Q 1072 3584 1716 3584 
Q 2034 3584 2315 3537 
Q 2597 3491 2834 3397 
z
" transform="scale(0.015625)"/>
      <path id="DejaVuSans-3" transform="scale(0.015625)"/>
      <path id="DejaVuSans-44" d="M 2194 1759 
Q 1497 1759 1228 1600 
Q 959 1441 959 1056 
Q 959 750 1161 570 
Q 1363 391 1709 391 
Q 2188 391 2477 730 
Q 2766 1069 2766 1631 
L 2766 1759 
L 2194 1759 
z
M 3341 1997 
L 3341 0 
L 2766 0 
L 2766 531 
Q 2569 213 2275 61 
Q 1981 -91 1556 -91 
Q 1019 -91 701 211 
Q 384 513 384 1019 
Q 384 1609 779 1909 
Q 1175 2209 1959 2209 
L 2766 2209 
L 2766 2266 
Q 2766 2663 2505 2880 
Q 2244 3097 1772 3097 
Q 1472 3097 1187 3025 
Q 903 2953 641 2809 
L 641 3341 
Q 956 3463 1253 3523 
Q 1550 3584 1831 3584 
Q 2591 3584 2966 3190 
Q 3341 2797 3341 1997 
z
" transform="scale(0.015625)"/>
      <path id="DejaVuSans-55" d="M 2631 2963 
Q 2534 3019 2420 3045 
Q 2306 3072 2169 3072 
Q 1681 3072 1420 2755 
Q 1159 2438 1159 1844 
L 1159 0 
L 581 0 
L 581 3500 
L 1159 3500 
L 1159 2956 
Q 1341 3275 1631 3429 
Q 1922 3584 2338 3584 
Q 2397 3584 2469 3576 
Q 2541 3569 2628 3553 
L 2631 2963 
z
" transform="scale(0.015625)"/>
      <path id="DejaVuSans-48" d="M 3597 1894 
L 3597 1613 
L 953 1613 
Q 991 1019 1311 708 
Q 1631 397 2203 397 
Q 2534 397 2845 478 
Q 3156 559 3463 722 
L 3463 178 
Q 3153 47 2828 -22 
Q 2503 -91 2169 -91 
Q 1331 -91 842 396 
Q 353 884 353 1716 
Q 353 2575 817 3079 
Q 1281 3584 2069 3584 
Q 2775 3584 3186 3129 
Q 3597 2675 3597 1894 
z
M 3022 2063 
Q 3016 2534 2758 2815 
Q 2500 3097 2075 3097 
Q 1594 3097 1305 2825 
Q 1016 2553 972 2059 
L 3022 2063 
z
" transform="scale(0.015625)"/>
      <path id="DejaVuSans-46" d="M 3122 3366 
L 3122 2828 
Q 2878 2963 2633 3030 
Q 2388 3097 2138 3097 
Q 1578 3097 1268 2742 
Q 959 2388 959 1747 
Q 959 1106 1268 751 
Q 1578 397 2138 397 
Q 2388 397 2633 464 
Q 2878 531 3122 666 
L 3122 134 
Q 2881 22 2623 -34 
Q 2366 -91 2075 -91 
Q 1284 -91 818 406 
Q 353 903 353 1747 
Q 353 2603 823 3093 
Q 1294 3584 2113 3584 
Q 2378 3584 2631 3529 
Q 2884 3475 3122 3366 
z
" transform="scale(0.015625)"/>
      <path id="DejaVuSans-51" d="M 3513 2113 
L 3513 0 
L 2938 0 
L 2938 2094 
Q 2938 2591 2744 2837 
Q 2550 3084 2163 3084 
Q 1697 3084 1428 2787 
Q 1159 2491 1159 1978 
L 1159 0 
L 581 0 
L 581 3500 
L 1159 3500 
L 1159 2956 
Q 1366 3272 1645 3428 
Q 1925 3584 2291 3584 
Q 2894 3584 3203 3211 
Q 3513 2838 3513 2113 
z
" transform="scale(0.015625)"/>
      <path id="DejaVuSans-57" d="M 1172 4494 
L 1172 3500 
L 2356 3500 
L 2356 3053 
L 1172 3053 
L 1172 1153 
Q 1172 725 1289 603 
Q 1406 481 1766 481 
L 2356 481 
L 2356 0 
L 1766 0 
Q 1100 0 847 248 
Q 594 497 594 1153 
L 594 3053 
L 172 3053 
L 172 3500 
L 594 3500 
L 594 4494 
L 1172 4494 
z
" transform="scale(0.015625)"/>
      <path id="DejaVuSans-10" d="M 313 2009 
L 1997 2009 
L 1997 1497 
L 313 1497 
L 313 2009 
z
" transform="scale(0.015625)"/>
      <path id="DejaVuSans-4c" d="M 603 3500 
L 1178 3500 
L 1178 0 
L 603 0 
L 603 3500 
z
M 603 4863 
L 1178 4863 
L 1178 4134 
L 603 4134 
L 603 4863 
z
" transform="scale(0.015625)"/>
      <path id="DejaVuSans-47" d="M 2906 2969 
L 2906 4863 
L 3481 4863 
L 3481 0 
L 2906 0 
L 2906 525 
Q 2725 213 2448 61 
Q 2172 -91 1784 -91 
Q 1150 -91 751 415 
Q 353 922 353 1747 
Q 353 2572 751 3078 
Q 1150 3584 1784 3584 
Q 2172 3584 2448 3432 
Q 2725 3281 2906 2969 
z
M 947 1747 
Q 947 1113 1208 752 
Q 1469 391 1925 391 
Q 2381 391 2643 752 
Q 2906 1113 2906 1747 
Q 2906 2381 2643 2742 
Q 2381 3103 1925 3103 
Q 1469 3103 1208 2742 
Q 947 2381 947 1747 
z
" transform="scale(0.015625)"/>
      <path id="DejaVuSans-5b" d="M 3513 3500 
L 2247 1797 
L 3578 0 
L 2900 0 
L 1881 1375 
L 863 0 
L 184 0 
L 1544 1831 
L 300 3500 
L 978 3500 
L 1906 2253 
L 2834 3500 
L 3513 3500 
z
" transform="scale(0.015625)"/>
      <path id="DejaVuSans-49" d="M 2375 4863 
L 2375 4384 
L 1825 4384 
Q 1516 4384 1395 4259 
Q 1275 4134 1275 3809 
L 1275 3500 
L 2222 3500 
L 2222 3053 
L 1275 3053 
L 1275 0 
L 697 0 
L 697 3053 
L 147 3053 
L 147 3500 
L 697 3500 
L 697 3744 
Q 697 4328 969 4595 
Q 1241 4863 1831 4863 
L 2375 4863 
z
" transform="scale(0.015625)"/>
      <path id="DejaVuSans-45" d="M 3116 1747 
Q 3116 2381 2855 2742 
Q 2594 3103 2138 3103 
Q 1681 3103 1420 2742 
Q 1159 2381 1159 1747 
Q 1159 1113 1420 752 
Q 1681 391 2138 391 
Q 2594 391 2855 752 
Q 3116 1113 3116 1747 
z
M 1159 2969 
Q 1341 3281 1617 3432 
Q 1894 3584 2278 3584 
Q 2916 3584 3314 3078 
Q 3713 2572 3713 1747 
Q 3713 922 3314 415 
Q 2916 -91 2278 -91 
Q 1894 -91 1617 61 
Q 1341 213 1159 525 
L 1159 0 
L 581 0 
L 581 4863 
L 1159 4863 
L 1159 2969 
z
" transform="scale(0.015625)"/>
      <path id="DejaVuSans-Oblique-2f" d="M 1075 4666 
L 1709 4666 
L 909 525 
L 3181 525 
L 3078 0 
L 172 0 
L 1075 4666 
z
" transform="scale(0.015625)"/>
      <path id="DejaVuSans-Oblique-4c" d="M 1172 4863 
L 1747 4863 
L 1606 4134 
L 1031 4134 
L 1172 4863 
z
M 909 3500 
L 1484 3500 
L 800 0 
L 225 0 
L 909 3500 
z
" transform="scale(0.015625)"/>
      <path id="DejaVuSans-1e" d="M 750 3309 
L 1409 3309 
L 1409 2516 
L 750 2516 
L 750 3309 
z
M 750 794 
L 1409 794 
L 1409 256 
L 897 -744 
L 494 -744 
L 750 256 
L 750 794 
z
" transform="scale(0.015625)"/>
      <path id="DejaVuSans-4f" d="M 603 4863 
L 1178 4863 
L 1178 0 
L 603 0 
L 603 4863 
z
" transform="scale(0.015625)"/>
      <path id="DejaVuSans-58" d="M 544 1381 
L 544 3500 
L 1119 3500 
L 1119 1403 
Q 1119 906 1312 657 
Q 1506 409 1894 409 
Q 2359 409 2629 706 
Q 2900 1003 2900 1516 
L 2900 3500 
L 3475 3500 
L 3475 0 
L 2900 0 
L 2900 538 
Q 2691 219 2414 64 
Q 2138 -91 1772 -91 
Q 1169 -91 856 284 
Q 544 659 544 1381 
z
M 1991 3584 
L 1991 3584 
z
" transform="scale(0.015625)"/>
      <path id="DejaVuSans-50" d="M 3328 2828 
Q 3544 3216 3844 3400 
Q 4144 3584 4550 3584 
Q 5097 3584 5394 3201 
Q 5691 2819 5691 2113 
L 5691 0 
L 5113 0 
L 5113 2094 
Q 5113 2597 4934 2840 
Q 4756 3084 4391 3084 
Q 3944 3084 3684 2787 
Q 3425 2491 3425 1978 
L 3425 0 
L 2847 0 
L 2847 2094 
Q 2847 2600 2669 2842 
Q 2491 3084 2119 3084 
Q 1678 3084 1418 2786 
Q 1159 2488 1159 1978 
L 1159 0 
L 581 0 
L 581 3500 
L 1159 3500 
L 1159 2956 
Q 1356 3278 1631 3431 
Q 1906 3584 2284 3584 
Q 2666 3584 2933 3390 
Q 3200 3197 3328 2828 
z
" transform="scale(0.015625)"/>
      <path id="DejaVuSans-53" d="M 1159 525 
L 1159 -1331 
L 581 -1331 
L 581 3500 
L 1159 3500 
L 1159 2969 
Q 1341 3281 1617 3432 
Q 1894 3584 2278 3584 
Q 2916 3584 3314 3078 
Q 3713 2572 3713 1747 
Q 3713 922 3314 415 
Q 2916 -91 2278 -91 
Q 1894 -91 1617 61 
Q 1341 213 1159 525 
z
M 3116 1747 
Q 3116 2381 2855 2742 
Q 2594 3103 2138 3103 
Q 1681 3103 1420 2742 
Q 1159 2381 1159 1747 
Q 1159 1113 1420 752 
Q 1681 391 2138 391 
Q 2594 391 2855 752 
Q 3116 1113 3116 1747 
z
" transform="scale(0.015625)"/>
      <path id="DejaVuSans-11" d="M 684 794 
L 1344 794 
L 1344 0 
L 684 0 
L 684 794 
z
" transform="scale(0.015625)"/>
      <path id="DejaVuSans-33" d="M 1259 4147 
L 1259 2394 
L 2053 2394 
Q 2494 2394 2734 2622 
Q 2975 2850 2975 3272 
Q 2975 3691 2734 3919 
Q 2494 4147 2053 4147 
L 1259 4147 
z
M 628 4666 
L 2053 4666 
Q 2838 4666 3239 4311 
Q 3641 3956 3641 3272 
Q 3641 2581 3239 2228 
Q 2838 1875 2053 1875 
L 1259 1875 
L 1259 0 
L 628 0 
L 628 4666 
z
" transform="scale(0.015625)"/>
      <path id="DejaVuSans-59" d="M 191 3500 
L 800 3500 
L 1894 563 
L 2988 3500 
L 3597 3500 
L 2284 0 
L 1503 0 
L 191 3500 
z
" transform="scale(0.015625)"/>
      <path id="DejaVuSans-4b" d="M 3513 2113 
L 3513 0 
L 2938 0 
L 2938 2094 
Q 2938 2591 2744 2837 
Q 2550 3084 2163 3084 
Q 1697 3084 1428 2787 
Q 1159 2491 1159 1978 
L 1159 0 
L 581 0 
L 581 4863 
L 1159 4863 
L 1159 2956 
Q 1366 3272 1645 3428 
Q 1925 3584 2291 3584 
Q 2894 3584 3203 3211 
Q 3513 2838 3513 2113 
z
" transform="scale(0.015625)"/>
      <path id="DejaVuSans-b" d="M 1984 4856 
Q 1566 4138 1362 3434 
Q 1159 2731 1159 2009 
Q 1159 1288 1364 580 
Q 1569 -128 1984 -844 
L 1484 -844 
Q 1016 -109 783 600 
Q 550 1309 550 2009 
Q 550 2706 781 3412 
Q 1013 4119 1484 4856 
L 1984 4856 
z
" transform="scale(0.015625)"/>
      <path id="DejaVuSans-Oblique-55" d="M 2853 2969 
Q 2766 3016 2653 3041 
Q 2541 3066 2413 3066 
Q 1953 3066 1609 2717 
Q 1266 2369 1153 1784 
L 800 0 
L 225 0 
L 909 3500 
L 1484 3500 
L 1375 2956 
Q 1603 3259 1920 3421 
Q 2238 3584 2597 3584 
Q 2691 3584 2781 3573 
Q 2872 3563 2963 3538 
L 2853 2969 
z
" transform="scale(0.015625)"/>
      <path id="DejaVuSans-f" d="M 750 794 
L 1409 794 
L 1409 256 
L 897 -744 
L 494 -744 
L 750 256 
L 750 794 
z
" transform="scale(0.015625)"/>
      <path id="DejaVuSans-Oblique-56" d="M 3200 3397 
L 3091 2853 
Q 2863 2978 2609 3040 
Q 2356 3103 2088 3103 
Q 1634 3103 1373 2948 
Q 1113 2794 1113 2528 
Q 1113 2219 1719 2053 
Q 1766 2041 1788 2034 
L 1972 1978 
Q 2547 1819 2739 1644 
Q 2931 1469 2931 1166 
Q 2931 609 2489 259 
Q 2047 -91 1331 -91 
Q 1053 -91 747 -37 
Q 441 16 72 128 
L 184 722 
Q 500 559 806 475 
Q 1113 391 1394 391 
Q 1816 391 2080 572 
Q 2344 753 2344 1031 
Q 2344 1331 1650 1516 
L 1591 1531 
L 1394 1581 
Q 956 1697 753 1886 
Q 550 2075 550 2369 
Q 550 2928 970 3256 
Q 1391 3584 2113 3584 
Q 2397 3584 2667 3537 
Q 2938 3491 3200 3397 
z
" transform="scale(0.015625)"/>
      <path id="DejaVuSans-c" d="M 513 4856 
L 1013 4856 
Q 1481 4119 1714 3412 
Q 1947 2706 1947 2009 
Q 1947 1309 1714 600 
Q 1481 -109 1013 -844 
L 513 -844 
Q 928 -128 1133 580 
Q 1338 1288 1338 2009 
Q 1338 2731 1133 3434 
Q 928 4138 513 4856 
z
" transform="scale(0.015625)"/>
     </defs>
     <use xlink:href="#DejaVuSans-35" transform="translate(0 0.015625)"/>
     <use xlink:href="#DejaVuSans-52" transform="translate(65.482422 0.015625)"/>
     <use xlink:href="#DejaVuSans-5a" transform="translate(126.664062 0.015625)"/>
     <use xlink:href="#DejaVuSans-56" transform="translate(208.451172 0.015625)"/>
     <use xlink:href="#DejaVuSans-3" transform="translate(260.550781 0.015625)"/>
     <use xlink:href="#DejaVuSans-44" transform="translate(292.337891 0.015625)"/>
     <use xlink:href="#DejaVuSans-55" transform="translate(353.617188 0.015625)"/>
     <use xlink:href="#DejaVuSans-48" transform="translate(392.730469 0.015625)"/>
     <use xlink:href="#DejaVuSans-3" transform="translate(454.253906 0.015625)"/>
     <use xlink:href="#DejaVuSans-46" transform="translate(486.041016 0.015625)"/>
     <use xlink:href="#DejaVuSans-48" transform="translate(541.021484 0.015625)"/>
     <use xlink:href="#DejaVuSans-51" transform="translate(602.544922 0.015625)"/>
     <use xlink:href="#DejaVuSans-57" transform="translate(665.923828 0.015625)"/>
     <use xlink:href="#DejaVuSans-48" transform="translate(705.132812 0.015625)"/>
     <use xlink:href="#DejaVuSans-55" transform="translate(766.65625 0.015625)"/>
     <use xlink:href="#DejaVuSans-10" transform="translate(801.769531 0.015625)"/>
     <use xlink:href="#DejaVuSans-4c" transform="translate(837.853516 0.015625)"/>
     <use xlink:href="#DejaVuSans-51" transform="translate(865.636719 0.015625)"/>
     <use xlink:href="#DejaVuSans-47" transform="translate(929.015625 0.015625)"/>
     <use xlink:href="#DejaVuSans-48" transform="translate(992.492188 0.015625)"/>
     <use xlink:href="#DejaVuSans-5b" transform="translate(1052.015625 0.015625)"/>
     <use xlink:href="#DejaVuSans-48" transform="translate(1108.195312 0.015625)"/>
     <use xlink:href="#DejaVuSans-47" transform="translate(1169.71875 0.015625)"/>
     <use xlink:href="#DejaVuSans-3" transform="translate(1233.195312 0.015625)"/>
     <use xlink:href="#DejaVuSans-49" transform="translate(1264.982422 0.015625)"/>
     <use xlink:href="#DejaVuSans-4c" transform="translate(1300.1875 0.015625)"/>
     <use xlink:href="#DejaVuSans-45" transform="translate(1327.970703 0.015625)"/>
     <use xlink:href="#DejaVuSans-48" transform="translate(1391.447266 0.015625)"/>
     <use xlink:href="#DejaVuSans-55" transform="translate(1452.970703 0.015625)"/>
     <use xlink:href="#DejaVuSans-56" transform="translate(1494.083984 0.015625)"/>
     <use xlink:href="#DejaVuSans-3" transform="translate(1546.183594 0.015625)"/>
     <use xlink:href="#DejaVuSans-Oblique-2f" transform="translate(1577.970703 0.015625)"/>
     <use xlink:href="#DejaVuSans-Oblique-4c" transform="translate(1633.683594 -14.984326) scale(0.7)"/>
     <use xlink:href="#DejaVuSans-1e" transform="translate(1655.866211 0.015625)"/>
     <use xlink:href="#DejaVuSans-3" transform="translate(1689.557617 0.015625)"/>
     <use xlink:href="#DejaVuSans-46" transform="translate(1721.344727 0.015625)"/>
     <use xlink:href="#DejaVuSans-52" transform="translate(1776.325195 0.015625)"/>
     <use xlink:href="#DejaVuSans-4f" transform="translate(1837.506836 0.015625)"/>
     <use xlink:href="#DejaVuSans-58" transform="translate(1865.290039 0.015625)"/>
     <use xlink:href="#DejaVuSans-50" transform="translate(1928.668945 0.015625)"/>
     <use xlink:href="#DejaVuSans-51" transform="translate(2026.081055 0.015625)"/>
     <use xlink:href="#DejaVuSans-56" transform="translate(2089.459961 0.015625)"/>
     <use xlink:href="#DejaVuSans-3" transform="translate(2141.55957 0.015625)"/>
     <use xlink:href="#DejaVuSans-44" transform="translate(2173.34668 0.015625)"/>
     <use xlink:href="#DejaVuSans-55" transform="translate(2234.625977 0.015625)"/>
     <use xlink:href="#DejaVuSans-48" transform="translate(2273.739258 0.015625)"/>
     <use xlink:href="#DejaVuSans-3" transform="translate(2335.262695 0.015625)"/>
     <use xlink:href="#DejaVuSans-55" transform="translate(2367.049805 0.015625)"/>
     <use xlink:href="#DejaVuSans-48" transform="translate(2406.163086 0.015625)"/>
     <use xlink:href="#DejaVuSans-53" transform="translate(2467.686523 0.015625)"/>
     <use xlink:href="#DejaVuSans-55" transform="translate(2531.163086 0.015625)"/>
     <use xlink:href="#DejaVuSans-48" transform="translate(2570.276367 0.015625)"/>
     <use xlink:href="#DejaVuSans-56" transform="translate(2631.799805 0.015625)"/>
     <use xlink:href="#DejaVuSans-48" transform="translate(2683.899414 0.015625)"/>
     <use xlink:href="#DejaVuSans-51" transform="translate(2745.422852 0.015625)"/>
     <use xlink:href="#DejaVuSans-57" transform="translate(2808.801758 0.015625)"/>
     <use xlink:href="#DejaVuSans-48" transform="translate(2848.010742 0.015625)"/>
     <use xlink:href="#DejaVuSans-47" transform="translate(2909.53418 0.015625)"/>
     <use xlink:href="#DejaVuSans-3" transform="translate(2973.010742 0.015625)"/>
     <use xlink:href="#DejaVuSans-5a" transform="translate(3004.797852 0.015625)"/>
     <use xlink:href="#DejaVuSans-52" transform="translate(3086.584961 0.015625)"/>
     <use xlink:href="#DejaVuSans-55" transform="translate(3147.766602 0.015625)"/>
     <use xlink:href="#DejaVuSans-4f" transform="translate(3188.879883 0.015625)"/>
     <use xlink:href="#DejaVuSans-47" transform="translate(3216.663086 0.015625)"/>
     <use xlink:href="#DejaVuSans-3" transform="translate(3280.139648 0.015625)"/>
     <use xlink:href="#DejaVuSans-51" transform="translate(3311.926758 0.015625)"/>
     <use xlink:href="#DejaVuSans-52" transform="translate(3375.305664 0.015625)"/>
     <use xlink:href="#DejaVuSans-47" transform="translate(3436.487305 0.015625)"/>
     <use xlink:href="#DejaVuSans-48" transform="translate(3499.963867 0.015625)"/>
     <use xlink:href="#DejaVuSans-56" transform="translate(3561.487305 0.015625)"/>
     <use xlink:href="#DejaVuSans-11" transform="translate(3613.586914 0.015625)"/>
     <use xlink:href="#DejaVuSans-3" transform="translate(3645.374023 0.015625)"/>
     <use xlink:href="#DejaVuSans-33" transform="translate(3677.161133 0.015625)"/>
     <use xlink:href="#DejaVuSans-44" transform="translate(3733.463867 0.015625)"/>
     <use xlink:href="#DejaVuSans-4c" transform="translate(3794.743164 0.015625)"/>
     <use xlink:href="#DejaVuSans-55" transform="translate(3822.526367 0.015625)"/>
     <use xlink:href="#DejaVuSans-3" transform="translate(3863.639648 0.015625)"/>
     <use xlink:href="#DejaVuSans-48" transform="translate(3895.426758 0.015625)"/>
     <use xlink:href="#DejaVuSans-59" transform="translate(3956.950195 0.015625)"/>
     <use xlink:href="#DejaVuSans-52" transform="translate(4016.129883 0.015625)"/>
     <use xlink:href="#DejaVuSans-4f" transform="translate(4077.311523 0.015625)"/>
     <use xlink:href="#DejaVuSans-58" transform="translate(4105.094727 0.015625)"/>
     <use xlink:href="#DejaVuSans-57" transform="translate(4168.473633 0.015625)"/>
     <use xlink:href="#DejaVuSans-4c" transform="translate(4207.682617 0.015625)"/>
     <use xlink:href="#DejaVuSans-52" transform="translate(4235.46582 0.015625)"/>
     <use xlink:href="#DejaVuSans-51" transform="translate(4296.647461 0.015625)"/>
     <use xlink:href="#DejaVuSans-3" transform="translate(4360.026367 0.015625)"/>
     <use xlink:href="#DejaVuSans-44" transform="translate(4391.813477 0.015625)"/>
     <use xlink:href="#DejaVuSans-46" transform="translate(4453.092773 0.015625)"/>
     <use xlink:href="#DejaVuSans-57" transform="translate(4508.073242 0.015625)"/>
     <use xlink:href="#DejaVuSans-56" transform="translate(4547.282227 0.015625)"/>
     <use xlink:href="#DejaVuSans-3" transform="translate(4599.381836 0.015625)"/>
     <use xlink:href="#DejaVuSans-4c" transform="translate(4631.168945 0.015625)"/>
     <use xlink:href="#DejaVuSans-51" transform="translate(4658.952148 0.015625)"/>
     <use xlink:href="#DejaVuSans-56" transform="translate(4722.331055 0.015625)"/>
     <use xlink:href="#DejaVuSans-4c" transform="translate(4774.430664 0.015625)"/>
     <use xlink:href="#DejaVuSans-47" transform="translate(4802.213867 0.015625)"/>
     <use xlink:href="#DejaVuSans-48" transform="translate(4865.69043 0.015625)"/>
     <use xlink:href="#DejaVuSans-3" transform="translate(4927.213867 0.015625)"/>
     <use xlink:href="#DejaVuSans-48" transform="translate(4959.000977 0.015625)"/>
     <use xlink:href="#DejaVuSans-44" transform="translate(5020.524414 0.015625)"/>
     <use xlink:href="#DejaVuSans-46" transform="translate(5081.803711 0.015625)"/>
     <use xlink:href="#DejaVuSans-4b" transform="translate(5136.78418 0.015625)"/>
     <use xlink:href="#DejaVuSans-3" transform="translate(5200.163086 0.015625)"/>
     <use xlink:href="#DejaVuSans-55" transform="translate(5231.950195 0.015625)"/>
     <use xlink:href="#DejaVuSans-52" transform="translate(5271.063477 0.015625)"/>
     <use xlink:href="#DejaVuSans-5a" transform="translate(5332.245117 0.015625)"/>
     <use xlink:href="#DejaVuSans-3" transform="translate(5414.032227 0.015625)"/>
     <use xlink:href="#DejaVuSans-52" transform="translate(5445.819336 0.015625)"/>
     <use xlink:href="#DejaVuSans-59" transform="translate(5507.000977 0.015625)"/>
     <use xlink:href="#DejaVuSans-48" transform="translate(5566.180664 0.015625)"/>
     <use xlink:href="#DejaVuSans-55" transform="translate(5627.704102 0.015625)"/>
     <use xlink:href="#DejaVuSans-3" transform="translate(5668.817383 0.015625)"/>
     <use xlink:href="#DejaVuSans-b" transform="translate(5700.604492 0.015625)"/>
     <use xlink:href="#DejaVuSans-Oblique-55" transform="translate(5739.618164 0.015625)"/>
     <use xlink:href="#DejaVuSans-f" transform="translate(5780.731445 0.015625)"/>
     <use xlink:href="#DejaVuSans-Oblique-56" transform="translate(5832.000977 0.015625)"/>
     <use xlink:href="#DejaVuSans-c" transform="translate(5884.100586 0.015625)"/>
     <use xlink:href="#DejaVuSans-11" transform="translate(5923.114258 0.015625)"/>
    </g>
   </g>
   <g id="text_3">
    <!-- $L_t \in \mathbb{R}^{B\times V_c\times V_n\times D}$ -->
    <g style="fill: #111827" transform="translate(223.3524 127.67112) scale(0.17 -0.17)">
     <defs>
      <path id="DejaVuSans-Oblique-57" d="M 2706 3500 
L 2619 3053 
L 1472 3053 
L 1100 1153 
Q 1081 1047 1072 975 
Q 1063 903 1063 863 
Q 1063 663 1183 572 
Q 1303 481 1569 481 
L 2150 481 
L 2053 0 
L 1503 0 
Q 991 0 739 200 
Q 488 400 488 806 
Q 488 878 497 964 
Q 506 1050 525 1153 
L 897 3053 
L 409 3053 
L 500 3500 
L 978 3500 
L 1172 4494 
L 1747 4494 
L 1556 3500 
L 2706 3500 
z
" transform="scale(0.015625)"/>
      <path id="DejaVuSans-c92" d="M 1072 1959 
Q 1094 1728 1291 1353 
Q 1522 919 1959 675 
Q 2388 438 2850 434 
L 5028 434 
L 5028 -63 
L 2850 -63 
Q 2250 -63 1695 246 
Q 1141 556 844 1106 
Q 547 1656 547 2241 
Q 547 2819 844 3369 
Q 1141 3919 1695 4231 
Q 2250 4544 2850 4544 
L 5028 4544 
L 5028 4047 
L 2850 4047 
Q 2388 4044 1959 3803 
Q 1525 3556 1291 3125 
Q 1091 2750 1063 2459 
L 5028 2459 
L 5028 1959 
L 1072 1959 
z
" transform="scale(0.015625)"/>
      <path id="STIXGeneral-Italic-2dd" d="M 1229 4179 
L 3360 4179 
Q 3827 4179 4108 3894 
Q 4390 3610 4390 3142 
Q 4390 2554 4060 2186 
Q 3731 1818 3149 1715 
L 4026 0 
L 2925 0 
L 2125 1690 
L 1549 1690 
L 1094 0 
L 109 0 
L 1229 4179 
z
M 3866 3821 
L 3392 2022 
Q 3770 2144 3962 2438 
Q 4154 2733 4154 3136 
Q 4154 3584 3866 3821 
z
M 3142 1978 
L 3648 3872 
Q 3450 3942 3296 3942 
L 2150 3942 
L 1613 1926 
L 2630 1926 
Q 2957 1926 3142 1978 
z
M 3629 237 
L 2899 1696 
Q 2829 1683 2682 1683 
Q 2630 1683 2531 1686 
Q 2432 1690 2387 1690 
L 3072 237 
L 3629 237 
z
M 1907 3942 
L 1408 3942 
L 416 237 
L 915 237 
L 1907 3942 
z
" transform="scale(0.015625)"/>
      <path id="DejaVuSans-Oblique-25" d="M 1081 4666 
L 2694 4666 
Q 3350 4666 3675 4422 
Q 4000 4178 4000 3688 
Q 4000 3238 3720 2911 
Q 3441 2584 2988 2516 
Q 3375 2428 3569 2181 
Q 3763 1934 3763 1522 
Q 3763 819 3242 409 
Q 2722 0 1819 0 
L 172 0 
L 1081 4666 
z
M 1234 2228 
L 903 519 
L 1919 519 
Q 2491 519 2800 781 
Q 3109 1044 3109 1522 
Q 3109 1891 2904 2059 
Q 2700 2228 2247 2228 
L 1234 2228 
z
M 1606 4147 
L 1331 2741 
L 2272 2741 
Q 2775 2741 3058 2959 
Q 3341 3178 3341 3566 
Q 3341 3869 3150 4008 
Q 2959 4147 2541 4147 
L 1606 4147 
z
" transform="scale(0.015625)"/>
      <path id="DejaVuSans-99" d="M 4488 3438 
L 3059 2003 
L 4488 575 
L 4116 197 
L 2681 1631 
L 1247 197 
L 878 575 
L 2303 2003 
L 878 3438 
L 1247 3816 
L 2681 2381 
L 4116 3816 
L 4488 3438 
z
" transform="scale(0.015625)"/>
      <path id="DejaVuSans-Oblique-39" d="M 1319 0 
L 500 4666 
L 1119 4666 
L 1797 653 
L 4063 4666 
L 4750 4666 
L 2053 0 
L 1319 0 
z
" transform="scale(0.015625)"/>
      <path id="DejaVuSans-Oblique-46" d="M 3431 3366 
L 3316 2797 
Q 3109 2947 2876 3022 
Q 2644 3097 2394 3097 
Q 2119 3097 1870 3000 
Q 1622 2903 1453 2725 
Q 1184 2453 1037 2087 
Q 891 1722 891 1331 
Q 891 859 1127 628 
Q 1363 397 1844 397 
Q 2081 397 2348 469 
Q 2616 541 2906 684 
L 2797 116 
Q 2547 13 2283 -39 
Q 2019 -91 1741 -91 
Q 1044 -91 669 257 
Q 294 606 294 1253 
Q 294 1797 489 2255 
Q 684 2713 1069 3078 
Q 1331 3328 1684 3456 
Q 2038 3584 2456 3584 
Q 2700 3584 2940 3529 
Q 3181 3475 3431 3366 
z
" transform="scale(0.015625)"/>
      <path id="DejaVuSans-Oblique-51" d="M 3566 2113 
L 3156 0 
L 2578 0 
L 2988 2091 
Q 3016 2238 3031 2350 
Q 3047 2463 3047 2528 
Q 3047 2791 2881 2937 
Q 2716 3084 2419 3084 
Q 1956 3084 1622 2776 
Q 1288 2469 1184 1941 
L 800 0 
L 225 0 
L 903 3500 
L 1478 3500 
L 1363 2950 
Q 1603 3253 1940 3418 
Q 2278 3584 2650 3584 
Q 3113 3584 3367 3334 
Q 3622 3084 3622 2631 
Q 3622 2519 3608 2391 
Q 3594 2263 3566 2113 
z
" transform="scale(0.015625)"/>
      <path id="DejaVuSans-Oblique-27" d="M 1081 4666 
L 2438 4666 
Q 3519 4666 4070 4208 
Q 4622 3750 4622 2847 
Q 4622 2250 4412 1698 
Q 4203 1147 3834 769 
Q 3463 381 2891 190 
Q 2319 0 1538 0 
L 172 0 
L 1081 4666 
z
M 1613 4147 
L 909 519 
L 1734 519 
Q 2794 519 3375 1128 
Q 3956 1738 3956 2847 
Q 3956 3519 3581 3833 
Q 3206 4147 2406 4147 
L 1613 4147 
z
" transform="scale(0.015625)"/>
     </defs>
     <use xlink:href="#DejaVuSans-Oblique-2f" transform="translate(0 0.665625)"/>
     <use xlink:href="#DejaVuSans-Oblique-57" transform="translate(55.712891 -14.334326) scale(0.7)"/>
     <use xlink:href="#DejaVuSans-c92" transform="translate(105.375977 0.665625)"/>
     <use xlink:href="#STIXGeneral-Italic-2dd" transform="translate(211.967773 0.665625)"/>
     <use xlink:href="#DejaVuSans-Oblique-25" transform="translate(286.619168 41.965625) scale(0.7)"/>
     <use xlink:href="#DejaVuSans-99" transform="translate(348.279324 41.965625) scale(0.7)"/>
     <use xlink:href="#DejaVuSans-Oblique-39" transform="translate(420.569363 41.965625) scale(0.7)"/>
     <use xlink:href="#DejaVuSans-Oblique-46" transform="translate(468.455105 31.465659) scale(0.49)"/>
     <use xlink:href="#DejaVuSans-99" transform="translate(510.947293 41.965625) scale(0.7)"/>
     <use xlink:href="#DejaVuSans-Oblique-39" transform="translate(583.237332 41.965625) scale(0.7)"/>
     <use xlink:href="#DejaVuSans-Oblique-51" transform="translate(631.123074 31.465659) scale(0.49)"/>
     <use xlink:href="#DejaVuSans-99" transform="translate(677.730496 41.965625) scale(0.7)"/>
     <use xlink:href="#DejaVuSans-Oblique-27" transform="translate(750.020535 41.965625) scale(0.7)"/>
    </g>
   </g>
   <g id="text_4">
    <!-- center $i\in V_c$ -->
    <g style="fill: #5b6472" transform="translate(19.358194 307.95264) rotate(-90) scale(0.12 -0.12)">
     <use xlink:href="#DejaVuSans-46" transform="translate(0 0.015625)"/>
     <use xlink:href="#DejaVuSans-48" transform="translate(54.980469 0.015625)"/>
     <use xlink:href="#DejaVuSans-51" transform="translate(116.503906 0.015625)"/>
     <use xlink:href="#DejaVuSans-57" transform="translate(179.882812 0.015625)"/>
     <use xlink:href="#DejaVuSans-48" transform="translate(219.091797 0.015625)"/>
     <use xlink:href="#DejaVuSans-55" transform="translate(280.615234 0.015625)"/>
     <use xlink:href="#DejaVuSans-3" transform="translate(321.728516 0.015625)"/>
     <use xlink:href="#DejaVuSans-Oblique-4c" transform="translate(353.515625 0.015625)"/>
     <use xlink:href="#DejaVuSans-c92" transform="translate(400.78125 0.015625)"/>
     <use xlink:href="#DejaVuSans-Oblique-39" transform="translate(507.373047 0.015625)"/>
     <use xlink:href="#DejaVuSans-Oblique-46" transform="translate(575.78125 -14.984326) scale(0.7)"/>
    </g>
   </g>
   <g id="text_5">
    <!-- node $j\in V_n$ -->
    <g style="fill: #5b6472" transform="translate(258.8874 423.16632) scale(0.12 -0.12)">
     <defs>
      <path id="DejaVuSans-Oblique-4d" d="M 928 3500 
L 1503 3500 
L 813 -63 
L 809 -78 
Q 694 -675 544 -897 
Q 403 -1106 132 -1218 
Q -138 -1331 -506 -1331 
L -722 -1331 
L -628 -844 
L -481 -844 
Q -144 -844 -1 -703 
Q 141 -563 238 -63 
L 928 3500 
z
M 1197 4863 
L 1772 4863 
L 1631 4134 
L 1056 4134 
L 1197 4863 
z
" transform="scale(0.015625)"/>
     </defs>
     <use xlink:href="#DejaVuSans-51" transform="translate(0 0.015625)"/>
     <use xlink:href="#DejaVuSans-52" transform="translate(63.378906 0.015625)"/>
     <use xlink:href="#DejaVuSans-47" transform="translate(124.560547 0.015625)"/>
     <use xlink:href="#DejaVuSans-48" transform="translate(188.037109 0.015625)"/>
     <use xlink:href="#DejaVuSans-3" transform="translate(249.560547 0.015625)"/>
     <use xlink:href="#DejaVuSans-Oblique-4d" transform="translate(281.347656 0.015625)"/>
     <use xlink:href="#DejaVuSans-c92" transform="translate(328.613281 0.015625)"/>
     <use xlink:href="#DejaVuSans-Oblique-39" transform="translate(435.205078 0.015625)"/>
     <use xlink:href="#DejaVuSans-Oblique-51" transform="translate(503.613281 -14.984326) scale(0.7)"/>
    </g>
   </g>
   <g id="text_6">
    <!-- $\ell_j(j)$ -->
    <g style="fill: #111827" transform="translate(169.6024 214.3036) scale(0.11 -0.11)">
     <defs>
      <path id="DejaVuSans-Oblique-ab2" d="M 950 838 
Q 1078 213 1350 213 
Q 1531 213 1766 572 
L 2181 572 
Q 1994 253 1775 88 
Q 1538 -91 1319 -91 
Q 831 -91 634 344 
L 400 0 
L -88 0 
Q 250 459 500 888 
Q 469 1131 469 1397 
Q 469 1872 566 2347 
Q 931 4131 1256 4497 
Q 1481 4750 1866 4750 
Q 2256 4750 2256 4209 
Q 2253 3966 2197 3675 
Q 1972 2484 950 838 
z
M 947 1656 
Q 1531 2744 1709 3613 
Q 1803 4072 1803 4191 
Q 1803 4406 1725 4406 
Q 1384 4134 1081 2516 
Q 997 2063 947 1656 
z
" transform="scale(0.015625)"/>
     </defs>
     <use xlink:href="#DejaVuSans-Oblique-ab2" transform="translate(0 0.015625)"/>
     <use xlink:href="#DejaVuSans-Oblique-4d" transform="translate(41.308594 -14.984326) scale(0.7)"/>
     <use xlink:href="#DejaVuSans-b" transform="translate(63.491211 0.015625)"/>
     <use xlink:href="#DejaVuSans-Oblique-4d" transform="translate(102.504883 0.015625)"/>
     <use xlink:href="#DejaVuSans-c" transform="translate(130.288086 0.015625)"/>
    </g>
   </g>
   <g id="text_7">
    <!-- $\ell_i(i)$ -->
    <g style="fill: #111827" transform="translate(244.9324 254.031671) scale(0.11 -0.11)">
     <use xlink:href="#DejaVuSans-Oblique-ab2" transform="translate(0 0.015625)"/>
     <use xlink:href="#DejaVuSans-Oblique-4c" transform="translate(41.308594 -14.984326) scale(0.7)"/>
     <use xlink:href="#DejaVuSans-b" transform="translate(63.491211 0.015625)"/>
     <use xlink:href="#DejaVuSans-Oblique-4c" transform="translate(102.504883 0.015625)"/>
     <use xlink:href="#DejaVuSans-c" transform="translate(130.288086 0.015625)"/>
    </g>
   </g>
   <g id="text_8">
    <!-- $\ell_i(r)$ -->
    <g style="fill: #111827" transform="translate(319.5474 254.031671) scale(0.11 -0.11)">
     <use xlink:href="#DejaVuSans-Oblique-ab2" transform="translate(0 0.125)"/>
     <use xlink:href="#DejaVuSans-Oblique-4c" transform="translate(41.308594 -14.874951) scale(0.7)"/>
     <use xlink:href="#DejaVuSans-b" transform="translate(63.491211 0.125)"/>
     <use xlink:href="#DejaVuSans-Oblique-55" transform="translate(102.504883 0.125)"/>
     <use xlink:href="#DejaVuSans-c" transform="translate(143.618164 0.125)"/>
    </g>
   </g>
   <g id="text_9">
    <!-- $\ell_i(s)$ -->
    <g style="fill: #111827" transform="translate(469.6024 254.031671) scale(0.11 -0.11)">
     <use xlink:href="#DejaVuSans-Oblique-ab2" transform="translate(0 0.125)"/>
     <use xlink:href="#DejaVuSans-Oblique-4c" transform="translate(41.308594 -14.874951) scale(0.7)"/>
     <use xlink:href="#DejaVuSans-b" transform="translate(63.491211 0.125)"/>
     <use xlink:href="#DejaVuSans-Oblique-56" transform="translate(102.504883 0.125)"/>
     <use xlink:href="#DejaVuSans-c" transform="translate(154.604492 0.125)"/>
    </g>
   </g>
   <g id="text_10">
    <!-- $\ell_j(j)$ -->
    <g style="fill: #111827" transform="translate(395.5924 332.50168) scale(0.11 -0.11)">
     <use xlink:href="#DejaVuSans-Oblique-ab2" transform="translate(0 0.015625)"/>
     <use xlink:href="#DejaVuSans-Oblique-4d" transform="translate(41.308594 -14.984326) scale(0.7)"/>
     <use xlink:href="#DejaVuSans-b" transform="translate(63.491211 0.015625)"/>
     <use xlink:href="#DejaVuSans-Oblique-4d" transform="translate(102.504883 0.015625)"/>
     <use xlink:href="#DejaVuSans-c" transform="translate(130.288086 0.015625)"/>
    </g>
   </g>
   <g id="text_11">
    <g id="patch_44">
     <path d="M 397.6624 214.531363 
L 412.2224 214.531363 
Q 413.7824 214.531363 413.7824 212.971363 
L 413.7824 199.968317 
Q 413.7824 198.408317 412.2224 198.408317 
L 397.6624 198.408317 
Q 396.1024 198.408317 396.1024 199.968317 
L 396.1024 212.971363 
Q 396.1024 214.531363 397.6624 214.531363 
z
" style="fill: #fcfcfd"/>
    </g>
    <!-- $\phi_\theta$ -->
    <g style="fill: #ee7733" transform="translate(397.6624 209.848317) scale(0.13 -0.13)">
     <defs>
      <path id="DejaVuSans-Oblique-369" d="M 2991 4863 
L 2738 3572 
Q 3363 3572 3684 3094 
Q 4016 2606 3850 1747 
Q 3681 888 3159 400 
Q 2653 -78 2028 -78 
L 1784 -1331 
L 1213 -1331 
L 1456 -78 
Q 834 -78 509 400 
Q 178 888 347 1747 
Q 513 2606 1034 3094 
Q 1544 3572 2166 3572 
L 2419 4863 
L 2991 4863 
z
M 2128 434 
Q 2481 434 2784 756 
Q 3116 1116 3244 1747 
Q 3369 2372 3169 2738 
Q 2991 3059 2638 3059 
L 2128 434 
z
M 1556 434 
L 2066 3059 
Q 1716 3059 1413 2738 
Q 1072 2372 953 1747 
Q 834 1116 1028 756 
Q 1203 434 1556 434 
z
" transform="scale(0.015625)"/>
      <path id="DejaVuSans-Oblique-34c" d="M 2913 2219 
L 925 2219 
Q 791 1284 928 888 
Q 1100 400 1566 400 
Q 2034 400 2391 891 
Q 2703 1322 2913 2219 
z
M 3009 2750 
Q 3094 3638 2984 3950 
Q 2813 4444 2353 4444 
Q 1875 4444 1525 3956 
Q 1250 3563 1034 2750 
L 3009 2750 
z
M 2444 4913 
Q 3194 4913 3494 4250 
Q 3794 3591 3566 2422 
Q 3341 1256 2781 594 
Q 2225 -72 1475 -72 
Q 722 -72 425 594 
Q 128 1256 353 2422 
Q 581 3591 1134 4250 
Q 1691 4913 2444 4913 
z
" transform="scale(0.015625)"/>
     </defs>
     <use xlink:href="#DejaVuSans-Oblique-369" transform="translate(0 0.015625)"/>
     <use xlink:href="#DejaVuSans-Oblique-34c" transform="translate(65.966797 -14.984326) scale(0.7)"/>
    </g>
   </g>
   <g id="text_12">
    <g id="patch_45">
     <path d="M 554.0958 249.384643 
L 582.3058 249.384643 
Q 583.8658 249.384643 583.8658 247.824643 
L 583.8658 234.821597 
Q 583.8658 233.261597 582.3058 233.261597 
L 554.0958 233.261597 
Q 552.5358 233.261597 552.5358 234.821597 
L 552.5358 247.824643 
Q 552.5358 249.384643 554.0958 249.384643 
z
" style="fill: #fcfcfd"/>
    </g>
    <!-- $\mathrm{diag}$ -->
    <g style="fill: #cc3377" transform="translate(554.0958 244.701597) scale(0.13 -0.13)">
     <defs>
      <path id="DejaVuSans-4a" d="M 2906 1791 
Q 2906 2416 2648 2759 
Q 2391 3103 1925 3103 
Q 1463 3103 1205 2759 
Q 947 2416 947 1791 
Q 947 1169 1205 825 
Q 1463 481 1925 481 
Q 2391 481 2648 825 
Q 2906 1169 2906 1791 
z
M 3481 434 
Q 3481 -459 3084 -895 
Q 2688 -1331 1869 -1331 
Q 1566 -1331 1297 -1286 
Q 1028 -1241 775 -1147 
L 775 -588 
Q 1028 -725 1275 -790 
Q 1522 -856 1778 -856 
Q 2344 -856 2625 -561 
Q 2906 -266 2906 331 
L 2906 616 
Q 2728 306 2450 153 
Q 2172 0 1784 0 
Q 1141 0 747 490 
Q 353 981 353 1791 
Q 353 2603 747 3093 
Q 1141 3584 1784 3584 
Q 2172 3584 2450 3431 
Q 2728 3278 2906 2969 
L 2906 3500 
L 3481 3500 
L 3481 434 
z
" transform="scale(0.015625)"/>
     </defs>
     <use xlink:href="#DejaVuSans-47" transform="translate(0 0.015625)"/>
     <use xlink:href="#DejaVuSans-4c" transform="translate(63.476562 0.015625)"/>
     <use xlink:href="#DejaVuSans-44" transform="translate(91.259766 0.015625)"/>
     <use xlink:href="#DejaVuSans-4a" transform="translate(152.539062 0.015625)"/>
    </g>
   </g>
   <g id="text_13">
    <!-- $h_{t+1}(i)$ -->
    <g style="fill: #111827" transform="translate(735.6066 266.484135) scale(0.16 -0.16)">
     <defs>
      <path id="DejaVuSans-Oblique-4b" d="M 3566 2113 
L 3156 0 
L 2578 0 
L 2988 2091 
Q 3016 2238 3031 2350 
Q 3047 2463 3047 2528 
Q 3047 2791 2881 2937 
Q 2716 3084 2419 3084 
Q 1956 3084 1617 2771 
Q 1278 2459 1178 1941 
L 800 0 
L 225 0 
L 1172 4863 
L 1747 4863 
L 1375 2950 
Q 1594 3244 1934 3414 
Q 2275 3584 2650 3584 
Q 3113 3584 3367 3334 
Q 3622 3084 3622 2631 
Q 3622 2519 3608 2391 
Q 3594 2263 3566 2113 
z
" transform="scale(0.015625)"/>
      <path id="DejaVuSans-e" d="M 2944 4013 
L 2944 2272 
L 4684 2272 
L 4684 1741 
L 2944 1741 
L 2944 0 
L 2419 0 
L 2419 1741 
L 678 1741 
L 678 2272 
L 2419 2272 
L 2419 4013 
L 2944 4013 
z
" transform="scale(0.015625)"/>
      <path id="DejaVuSans-14" d="M 794 531 
L 1825 531 
L 1825 4091 
L 703 3866 
L 703 4441 
L 1819 4666 
L 2450 4666 
L 2450 531 
L 3481 531 
L 3481 0 
L 794 0 
L 794 531 
z
" transform="scale(0.015625)"/>
     </defs>
     <use xlink:href="#DejaVuSans-Oblique-4b" transform="translate(0 0.015625)"/>
     <use xlink:href="#DejaVuSans-Oblique-57" transform="translate(63.378906 -14.984326) scale(0.7)"/>
     <use xlink:href="#DejaVuSans-e" transform="translate(104.462891 -14.984326) scale(0.7)"/>
     <use xlink:href="#DejaVuSans-14" transform="translate(176.75293 -14.984326) scale(0.7)"/>
     <use xlink:href="#DejaVuSans-b" transform="translate(224.023438 0.015625)"/>
     <use xlink:href="#DejaVuSans-Oblique-4c" transform="translate(263.037109 0.015625)"/>
     <use xlink:href="#DejaVuSans-c" transform="translate(290.820312 0.015625)"/>
    </g>
   </g>
   <g id="text_14">
    <!-- only the evolved center is recomposed -->
    <g style="fill: #5b6472" transform="translate(664.714412 291.200399) scale(0.1 -0.1)">
     <defs>
      <path id="DejaVuSans-5c" d="M 2059 -325 
Q 1816 -950 1584 -1140 
Q 1353 -1331 966 -1331 
L 506 -1331 
L 506 -850 
L 844 -850 
Q 1081 -850 1212 -737 
Q 1344 -625 1503 -206 
L 1606 56 
L 191 3500 
L 800 3500 
L 1894 763 
L 2988 3500 
L 3597 3500 
L 2059 -325 
z
" transform="scale(0.015625)"/>
     </defs>
     <use xlink:href="#DejaVuSans-52"/>
     <use xlink:href="#DejaVuSans-51" transform="translate(61.1875 0)"/>
     <use xlink:href="#DejaVuSans-4f" transform="translate(124.5625 0)"/>
     <use xlink:href="#DejaVuSans-5c" transform="translate(152.34375 0)"/>
     <use xlink:href="#DejaVuSans-3" transform="translate(211.53125 0)"/>
     <use xlink:href="#DejaVuSans-57" transform="translate(243.3125 0)"/>
     <use xlink:href="#DejaVuSans-4b" transform="translate(282.515625 0)"/>
     <use xlink:href="#DejaVuSans-48" transform="translate(345.890625 0)"/>
     <use xlink:href="#DejaVuSans-3" transform="translate(407.421875 0)"/>
     <use xlink:href="#DejaVuSans-48" transform="translate(439.203125 0)"/>
     <use xlink:href="#DejaVuSans-59" transform="translate(500.734375 0)"/>
     <use xlink:href="#DejaVuSans-52" transform="translate(559.921875 0)"/>
     <use xlink:href="#DejaVuSans-4f" transform="translate(621.109375 0)"/>
     <use xlink:href="#DejaVuSans-59" transform="translate(648.890625 0)"/>
     <use xlink:href="#DejaVuSans-48" transform="translate(708.078125 0)"/>
     <use xlink:href="#DejaVuSans-47" transform="translate(769.609375 0)"/>
     <use xlink:href="#DejaVuSans-3" transform="translate(833.09375 0)"/>
     <use xlink:href="#DejaVuSans-46" transform="translate(864.875 0)"/>
     <use xlink:href="#DejaVuSans-48" transform="translate(919.859375 0)"/>
     <use xlink:href="#DejaVuSans-51" transform="translate(981.390625 0)"/>
     <use xlink:href="#DejaVuSans-57" transform="translate(1044.765625 0)"/>
     <use xlink:href="#DejaVuSans-48" transform="translate(1083.96875 0)"/>
     <use xlink:href="#DejaVuSans-55" transform="translate(1145.5 0)"/>
     <use xlink:href="#DejaVuSans-3" transform="translate(1186.609375 0)"/>
     <use xlink:href="#DejaVuSans-4c" transform="translate(1218.390625 0)"/>
     <use xlink:href="#DejaVuSans-56" transform="translate(1246.171875 0)"/>
     <use xlink:href="#DejaVuSans-3" transform="translate(1298.265625 0)"/>
     <use xlink:href="#DejaVuSans-55" transform="translate(1330.046875 0)"/>
     <use xlink:href="#DejaVuSans-48" transform="translate(1368.953125 0)"/>
     <use xlink:href="#DejaVuSans-46" transform="translate(1430.484375 0)"/>
     <use xlink:href="#DejaVuSans-52" transform="translate(1485.46875 0)"/>
     <use xlink:href="#DejaVuSans-50" transform="translate(1546.65625 0)"/>
     <use xlink:href="#DejaVuSans-53" transform="translate(1644.0625 0)"/>
     <use xlink:href="#DejaVuSans-52" transform="translate(1707.546875 0)"/>
     <use xlink:href="#DejaVuSans-56" transform="translate(1768.734375 0)"/>
     <use xlink:href="#DejaVuSans-48" transform="translate(1820.828125 0)"/>
     <use xlink:href="#DejaVuSans-47" transform="translate(1882.359375 0)"/>
    </g>
   </g>
   <g id="text_15">
    <!-- $A_{rs}$ gates pair flow -->
    <g style="fill: #111827" transform="translate(689.337 121.762711) scale(0.14 -0.14)">
     <defs>
      <path id="DejaVuSans-Oblique-24" d="M 2356 4666 
L 3072 4666 
L 3938 0 
L 3278 0 
L 3084 1197 
L 984 1197 
L 325 0 
L -341 0 
L 2356 4666 
z
M 2584 4044 
L 1275 1722 
L 2988 1722 
L 2584 4044 
z
" transform="scale(0.015625)"/>
     </defs>
     <use xlink:href="#DejaVuSans-Oblique-24" transform="translate(0 0.015625)"/>
     <use xlink:href="#DejaVuSans-Oblique-55" transform="translate(68.408203 -14.984326) scale(0.7)"/>
     <use xlink:href="#DejaVuSans-Oblique-56" transform="translate(97.1875 -14.984326) scale(0.7)"/>
     <use xlink:href="#DejaVuSans-3" transform="translate(136.391602 0.015625)"/>
     <use xlink:href="#DejaVuSans-4a" transform="translate(168.178711 0.015625)"/>
     <use xlink:href="#DejaVuSans-44" transform="translate(231.655273 0.015625)"/>
     <use xlink:href="#DejaVuSans-57" transform="translate(292.93457 0.015625)"/>
     <use xlink:href="#DejaVuSans-48" transform="translate(332.143555 0.015625)"/>
     <use xlink:href="#DejaVuSans-56" transform="translate(393.666992 0.015625)"/>
     <use xlink:href="#DejaVuSans-3" transform="translate(445.766602 0.015625)"/>
     <use xlink:href="#DejaVuSans-53" transform="translate(477.553711 0.015625)"/>
     <use xlink:href="#DejaVuSans-44" transform="translate(541.030273 0.015625)"/>
     <use xlink:href="#DejaVuSans-4c" transform="translate(602.30957 0.015625)"/>
     <use xlink:href="#DejaVuSans-55" transform="translate(630.092773 0.015625)"/>
     <use xlink:href="#DejaVuSans-3" transform="translate(671.206055 0.015625)"/>
     <use xlink:href="#DejaVuSans-49" transform="translate(702.993164 0.015625)"/>
     <use xlink:href="#DejaVuSans-4f" transform="translate(738.198242 0.015625)"/>
     <use xlink:href="#DejaVuSans-52" transform="translate(765.981445 0.015625)"/>
     <use xlink:href="#DejaVuSans-5a" transform="translate(827.163086 0.015625)"/>
    </g>
   </g>
   <g id="text_16">
    <!-- full dense semantics may be chunked, -->
    <g style="fill: #5b6472" transform="translate(661.579227 138.076206) scale(0.095 -0.095)">
     <defs>
      <path id="DejaVuSans-4e" d="M 581 4863 
L 1159 4863 
L 1159 1991 
L 2875 3500 
L 3609 3500 
L 1753 1863 
L 3688 0 
L 2938 0 
L 1159 1709 
L 1159 0 
L 581 0 
L 581 4863 
z
" transform="scale(0.015625)"/>
     </defs>
     <use xlink:href="#DejaVuSans-49"/>
     <use xlink:href="#DejaVuSans-58" transform="translate(35.203125 0)"/>
     <use xlink:href="#DejaVuSans-4f" transform="translate(98.578125 0)"/>
     <use xlink:href="#DejaVuSans-4f" transform="translate(126.359375 0)"/>
     <use xlink:href="#DejaVuSans-3" transform="translate(154.140625 0)"/>
     <use xlink:href="#DejaVuSans-47" transform="translate(185.921875 0)"/>
     <use xlink:href="#DejaVuSans-48" transform="translate(249.40625 0)"/>
     <use xlink:href="#DejaVuSans-51" transform="translate(310.9375 0)"/>
     <use xlink:href="#DejaVuSans-56" transform="translate(374.3125 0)"/>
     <use xlink:href="#DejaVuSans-48" transform="translate(426.40625 0)"/>
     <use xlink:href="#DejaVuSans-3" transform="translate(487.9375 0)"/>
     <use xlink:href="#DejaVuSans-56" transform="translate(519.71875 0)"/>
     <use xlink:href="#DejaVuSans-48" transform="translate(571.8125 0)"/>
     <use xlink:href="#DejaVuSans-50" transform="translate(633.34375 0)"/>
     <use xlink:href="#DejaVuSans-44" transform="translate(730.75 0)"/>
     <use xlink:href="#DejaVuSans-51" transform="translate(792.03125 0)"/>
     <use xlink:href="#DejaVuSans-57" transform="translate(855.40625 0)"/>
     <use xlink:href="#DejaVuSans-4c" transform="translate(894.609375 0)"/>
     <use xlink:href="#DejaVuSans-46" transform="translate(922.390625 0)"/>
     <use xlink:href="#DejaVuSans-56" transform="translate(977.375 0)"/>
     <use xlink:href="#DejaVuSans-3" transform="translate(1029.46875 0)"/>
     <use xlink:href="#DejaVuSans-50" transform="translate(1061.25 0)"/>
     <use xlink:href="#DejaVuSans-44" transform="translate(1158.65625 0)"/>
     <use xlink:href="#DejaVuSans-5c" transform="translate(1219.9375 0)"/>
     <use xlink:href="#DejaVuSans-3" transform="translate(1279.125 0)"/>
     <use xlink:href="#DejaVuSans-45" transform="translate(1310.90625 0)"/>
     <use xlink:href="#DejaVuSans-48" transform="translate(1374.390625 0)"/>
     <use xlink:href="#DejaVuSans-3" transform="translate(1435.921875 0)"/>
     <use xlink:href="#DejaVuSans-46" transform="translate(1467.703125 0)"/>
     <use xlink:href="#DejaVuSans-4b" transform="translate(1522.6875 0)"/>
     <use xlink:href="#DejaVuSans-58" transform="translate(1586.0625 0)"/>
     <use xlink:href="#DejaVuSans-51" transform="translate(1649.4375 0)"/>
     <use xlink:href="#DejaVuSans-4e" transform="translate(1712.8125 0)"/>
     <use xlink:href="#DejaVuSans-48" transform="translate(1767.15625 0)"/>
     <use xlink:href="#DejaVuSans-47" transform="translate(1828.6875 0)"/>
     <use xlink:href="#DejaVuSans-f" transform="translate(1892.171875 0)"/>
    </g>
    <!-- but not replaced in baseline -->
    <g style="fill: #5b6472" transform="translate(686.469227 149.478803) scale(0.095 -0.095)">
     <use xlink:href="#DejaVuSans-45"/>
     <use xlink:href="#DejaVuSans-58" transform="translate(63.484375 0)"/>
     <use xlink:href="#DejaVuSans-57" transform="translate(126.859375 0)"/>
     <use xlink:href="#DejaVuSans-3" transform="translate(166.0625 0)"/>
     <use xlink:href="#DejaVuSans-51" transform="translate(197.84375 0)"/>
     <use xlink:href="#DejaVuSans-52" transform="translate(261.21875 0)"/>
     <use xlink:href="#DejaVuSans-57" transform="translate(322.40625 0)"/>
     <use xlink:href="#DejaVuSans-3" transform="translate(361.609375 0)"/>
     <use xlink:href="#DejaVuSans-55" transform="translate(393.390625 0)"/>
     <use xlink:href="#DejaVuSans-48" transform="translate(432.296875 0)"/>
     <use xlink:href="#DejaVuSans-53" transform="translate(493.828125 0)"/>
     <use xlink:href="#DejaVuSans-4f" transform="translate(557.3125 0)"/>
     <use xlink:href="#DejaVuSans-44" transform="translate(585.09375 0)"/>
     <use xlink:href="#DejaVuSans-46" transform="translate(646.375 0)"/>
     <use xlink:href="#DejaVuSans-48" transform="translate(701.359375 0)"/>
     <use xlink:href="#DejaVuSans-47" transform="translate(762.890625 0)"/>
     <use xlink:href="#DejaVuSans-3" transform="translate(826.375 0)"/>
     <use xlink:href="#DejaVuSans-4c" transform="translate(858.15625 0)"/>
     <use xlink:href="#DejaVuSans-51" transform="translate(885.9375 0)"/>
     <use xlink:href="#DejaVuSans-3" transform="translate(949.3125 0)"/>
     <use xlink:href="#DejaVuSans-45" transform="translate(981.09375 0)"/>
     <use xlink:href="#DejaVuSans-44" transform="translate(1044.578125 0)"/>
     <use xlink:href="#DejaVuSans-56" transform="translate(1105.859375 0)"/>
     <use xlink:href="#DejaVuSans-48" transform="translate(1157.953125 0)"/>
     <use xlink:href="#DejaVuSans-4f" transform="translate(1219.484375 0)"/>
     <use xlink:href="#DejaVuSans-4c" transform="translate(1247.265625 0)"/>
     <use xlink:href="#DejaVuSans-51" transform="translate(1275.046875 0)"/>
     <use xlink:href="#DejaVuSans-48" transform="translate(1338.421875 0)"/>
    </g>
   </g>
   <g id="text_17">
    <!-- Discrete-math reading: -->
    <g style="fill: #111827" transform="translate(630.9324 370.8864) scale(0.12 -0.12)">
     <defs>
      <path id="DejaVuSans-Bold-27" d="M 1791 3756 
L 1791 909 
L 2222 909 
Q 2959 909 3348 1275 
Q 3738 1641 3738 2338 
Q 3738 3031 3350 3393 
Q 2963 3756 2222 3756 
L 1791 3756 
z
M 588 4666 
L 1856 4666 
Q 2919 4666 3439 4514 
Q 3959 4363 4331 4000 
Q 4659 3684 4818 3271 
Q 4978 2859 4978 2338 
Q 4978 1809 4818 1395 
Q 4659 981 4331 666 
Q 3956 303 3431 151 
Q 2906 0 1856 0 
L 588 0 
L 588 4666 
z
" transform="scale(0.015625)"/>
      <path id="DejaVuSans-Bold-4c" d="M 538 3500 
L 1656 3500 
L 1656 0 
L 538 0 
L 538 3500 
z
M 538 4863 
L 1656 4863 
L 1656 3950 
L 538 3950 
L 538 4863 
z
" transform="scale(0.015625)"/>
      <path id="DejaVuSans-Bold-10" d="M 347 2297 
L 2309 2297 
L 2309 1388 
L 347 1388 
L 347 2297 
z
" transform="scale(0.015625)"/>
      <path id="DejaVuSans-Bold-4a" d="M 2919 594 
Q 2688 288 2409 144 
Q 2131 0 1766 0 
Q 1125 0 706 504 
Q 288 1009 288 1791 
Q 288 2575 706 3076 
Q 1125 3578 1766 3578 
Q 2131 3578 2409 3434 
Q 2688 3291 2919 2981 
L 2919 3500 
L 4044 3500 
L 4044 353 
Q 4044 -491 3511 -936 
Q 2978 -1381 1966 -1381 
Q 1638 -1381 1331 -1331 
Q 1025 -1281 716 -1178 
L 716 -306 
Q 1009 -475 1290 -558 
Q 1572 -641 1856 -641 
Q 2406 -641 2662 -400 
Q 2919 -159 2919 353 
L 2919 594 
z
M 2181 2772 
Q 1834 2772 1640 2515 
Q 1447 2259 1447 1791 
Q 1447 1309 1634 1061 
Q 1822 813 2181 813 
Q 2531 813 2725 1069 
Q 2919 1325 2919 1791 
Q 2919 2259 2725 2515 
Q 2531 2772 2181 2772 
z
" transform="scale(0.015625)"/>
      <path id="DejaVuSans-Bold-1d" d="M 716 3500 
L 1844 3500 
L 1844 2291 
L 716 2291 
L 716 3500 
z
M 716 1209 
L 1844 1209 
L 1844 0 
L 716 0 
L 716 1209 
z
" transform="scale(0.015625)"/>
     </defs>
     <use xlink:href="#DejaVuSans-Bold-27"/>
     <use xlink:href="#DejaVuSans-Bold-4c" transform="translate(83.015625 0)"/>
     <use xlink:href="#DejaVuSans-Bold-56" transform="translate(117.296875 0)"/>
     <use xlink:href="#DejaVuSans-Bold-46" transform="translate(176.8125 0)"/>
     <use xlink:href="#DejaVuSans-Bold-55" transform="translate(236.09375 0)"/>
     <use xlink:href="#DejaVuSans-Bold-48" transform="translate(285.40625 0)"/>
     <use xlink:href="#DejaVuSans-Bold-57" transform="translate(353.234375 0)"/>
     <use xlink:href="#DejaVuSans-Bold-48" transform="translate(401.03125 0)"/>
     <use xlink:href="#DejaVuSans-Bold-10" transform="translate(468.859375 0)"/>
     <use xlink:href="#DejaVuSans-Bold-50" transform="translate(510.359375 0)"/>
     <use xlink:href="#DejaVuSans-Bold-44" transform="translate(614.5625 0)"/>
     <use xlink:href="#DejaVuSans-Bold-57" transform="translate(682.046875 0)"/>
     <use xlink:href="#DejaVuSans-Bold-4b" transform="translate(729.84375 0)"/>
     <use xlink:href="#DejaVuSans-Bold-3" transform="translate(801.03125 0)"/>
     <use xlink:href="#DejaVuSans-Bold-55" transform="translate(835.84375 0)"/>
     <use xlink:href="#DejaVuSans-Bold-48" transform="translate(885.15625 0)"/>
     <use xlink:href="#DejaVuSans-Bold-44" transform="translate(952.984375 0)"/>
     <use xlink:href="#DejaVuSans-Bold-47" transform="translate(1020.46875 0)"/>
     <use xlink:href="#DejaVuSans-Bold-4c" transform="translate(1092.046875 0)"/>
     <use xlink:href="#DejaVuSans-Bold-51" transform="translate(1126.328125 0)"/>
     <use xlink:href="#DejaVuSans-Bold-4a" transform="translate(1197.515625 0)"/>
     <use xlink:href="#DejaVuSans-Bold-1d" transform="translate(1269.09375 0)"/>
    </g>
   </g>
   <g id="text_18">
    <!-- $L$ is a family $\{L_i\}_{i\in V}$ of full worlds; -->
    <g style="fill: #5b6472" transform="translate(630.9324 406.33984) scale(0.11 -0.11)">
     <defs>
      <path id="DejaVuSans-5e" d="M 3272 -594 
L 3272 -1044 
L 3078 -1044 
Q 2300 -1044 2036 -812 
Q 1772 -581 1772 109 
L 1772 856 
Q 1772 1328 1603 1509 
Q 1434 1691 991 1691 
L 800 1691 
L 800 2138 
L 991 2138 
Q 1438 2138 1605 2317 
Q 1772 2497 1772 2963 
L 1772 3713 
Q 1772 4403 2036 4633 
Q 2300 4863 3078 4863 
L 3272 4863 
L 3272 4416 
L 3059 4416 
Q 2619 4416 2484 4278 
Q 2350 4141 2350 3700 
L 2350 2925 
Q 2350 2434 2208 2212 
Q 2066 1991 1722 1913 
Q 2069 1828 2209 1606 
Q 2350 1384 2350 897 
L 2350 122 
Q 2350 -319 2484 -456 
Q 2619 -594 3059 -594 
L 3272 -594 
z
" transform="scale(0.015625)"/>
      <path id="DejaVuSans-60" d="M 800 -594 
L 1019 -594 
Q 1456 -594 1589 -459 
Q 1722 -325 1722 122 
L 1722 897 
Q 1722 1384 1862 1606 
Q 2003 1828 2350 1913 
Q 2003 1991 1862 2212 
Q 1722 2434 1722 2925 
L 1722 3700 
Q 1722 4144 1589 4280 
Q 1456 4416 1019 4416 
L 800 4416 
L 800 4863 
L 997 4863 
Q 1775 4863 2036 4633 
Q 2297 4403 2297 3713 
L 2297 2963 
Q 2297 2497 2465 2317 
Q 2634 2138 3078 2138 
L 3272 2138 
L 3272 1691 
L 3078 1691 
Q 2634 1691 2465 1509 
Q 2297 1328 2297 856 
L 2297 109 
Q 2297 -581 2036 -812 
Q 1775 -1044 997 -1044 
L 800 -1044 
L 800 -594 
z
" transform="scale(0.015625)"/>
     </defs>
     <use xlink:href="#DejaVuSans-Oblique-2f" transform="translate(0 0.015625)"/>
     <use xlink:href="#DejaVuSans-3" transform="translate(55.712891 0.015625)"/>
     <use xlink:href="#DejaVuSans-4c" transform="translate(87.5 0.015625)"/>
     <use xlink:href="#DejaVuSans-56" transform="translate(115.283203 0.015625)"/>
     <use xlink:href="#DejaVuSans-3" transform="translate(167.382812 0.015625)"/>
     <use xlink:href="#DejaVuSans-44" transform="translate(199.169922 0.015625)"/>
     <use xlink:href="#DejaVuSans-3" transform="translate(260.449219 0.015625)"/>
     <use xlink:href="#DejaVuSans-49" transform="translate(292.236328 0.015625)"/>
     <use xlink:href="#DejaVuSans-44" transform="translate(327.441406 0.015625)"/>
     <use xlink:href="#DejaVuSans-50" transform="translate(388.720703 0.015625)"/>
     <use xlink:href="#DejaVuSans-4c" transform="translate(486.132812 0.015625)"/>
     <use xlink:href="#DejaVuSans-4f" transform="translate(513.916016 0.015625)"/>
     <use xlink:href="#DejaVuSans-5c" transform="translate(541.699219 0.015625)"/>
     <use xlink:href="#DejaVuSans-3" transform="translate(600.878906 0.015625)"/>
     <use xlink:href="#DejaVuSans-5e" transform="translate(632.666016 0.015625)"/>
     <use xlink:href="#DejaVuSans-Oblique-2f" transform="translate(696.289062 0.015625)"/>
     <use xlink:href="#DejaVuSans-Oblique-4c" transform="translate(752.001953 -14.984326) scale(0.7)"/>
     <use xlink:href="#DejaVuSans-60" transform="translate(774.18457 0.015625)"/>
     <use xlink:href="#DejaVuSans-Oblique-4c" transform="translate(838.764648 -14.984326) scale(0.7)"/>
     <use xlink:href="#DejaVuSans-c92" transform="translate(871.850586 -14.984326) scale(0.7)"/>
     <use xlink:href="#DejaVuSans-Oblique-39" transform="translate(946.464844 -14.984326) scale(0.7)"/>
     <use xlink:href="#DejaVuSans-3" transform="translate(997.084961 0.015625)"/>
     <use xlink:href="#DejaVuSans-52" transform="translate(1028.87207 0.015625)"/>
     <use xlink:href="#DejaVuSans-49" transform="translate(1090.053711 0.015625)"/>
     <use xlink:href="#DejaVuSans-3" transform="translate(1125.258789 0.015625)"/>
     <use xlink:href="#DejaVuSans-49" transform="translate(1157.045898 0.015625)"/>
     <use xlink:href="#DejaVuSans-58" transform="translate(1192.250977 0.015625)"/>
     <use xlink:href="#DejaVuSans-4f" transform="translate(1255.629883 0.015625)"/>
     <use xlink:href="#DejaVuSans-4f" transform="translate(1283.413086 0.015625)"/>
     <use xlink:href="#DejaVuSans-3" transform="translate(1311.196289 0.015625)"/>
     <use xlink:href="#DejaVuSans-5a" transform="translate(1342.983398 0.015625)"/>
     <use xlink:href="#DejaVuSans-52" transform="translate(1424.770508 0.015625)"/>
     <use xlink:href="#DejaVuSans-55" transform="translate(1485.952148 0.015625)"/>
     <use xlink:href="#DejaVuSans-4f" transform="translate(1527.06543 0.015625)"/>
     <use xlink:href="#DejaVuSans-47" transform="translate(1554.848633 0.015625)"/>
     <use xlink:href="#DejaVuSans-56" transform="translate(1618.325195 0.015625)"/>
     <use xlink:href="#DejaVuSans-1e" transform="translate(1670.424805 0.015625)"/>
    </g>
    <!-- the update relation is ternary in $(i,r,s)$. -->
    <g style="fill: #5b6472" transform="translate(630.9324 421.18984) scale(0.11 -0.11)">
     <use xlink:href="#DejaVuSans-57" transform="translate(0 0.015625)"/>
     <use xlink:href="#DejaVuSans-4b" transform="translate(39.208984 0.015625)"/>
     <use xlink:href="#DejaVuSans-48" transform="translate(102.587891 0.015625)"/>
     <use xlink:href="#DejaVuSans-3" transform="translate(164.111328 0.015625)"/>
     <use xlink:href="#DejaVuSans-58" transform="translate(195.898438 0.015625)"/>
     <use xlink:href="#DejaVuSans-53" transform="translate(259.277344 0.015625)"/>
     <use xlink:href="#DejaVuSans-47" transform="translate(322.753906 0.015625)"/>
     <use xlink:href="#DejaVuSans-44" transform="translate(386.230469 0.015625)"/>
     <use xlink:href="#DejaVuSans-57" transform="translate(447.509766 0.015625)"/>
     <use xlink:href="#DejaVuSans-48" transform="translate(486.71875 0.015625)"/>
     <use xlink:href="#DejaVuSans-3" transform="translate(548.242188 0.015625)"/>
     <use xlink:href="#DejaVuSans-55" transform="translate(580.029297 0.015625)"/>
     <use xlink:href="#DejaVuSans-48" transform="translate(619.142578 0.015625)"/>
     <use xlink:href="#DejaVuSans-4f" transform="translate(680.666016 0.015625)"/>
     <use xlink:href="#DejaVuSans-44" transform="translate(708.449219 0.015625)"/>
     <use xlink:href="#DejaVuSans-57" transform="translate(769.728516 0.015625)"/>
     <use xlink:href="#DejaVuSans-4c" transform="translate(808.9375 0.015625)"/>
     <use xlink:href="#DejaVuSans-52" transform="translate(836.720703 0.015625)"/>
     <use xlink:href="#DejaVuSans-51" transform="translate(897.902344 0.015625)"/>
     <use xlink:href="#DejaVuSans-3" transform="translate(961.28125 0.015625)"/>
     <use xlink:href="#DejaVuSans-4c" transform="translate(993.068359 0.015625)"/>
     <use xlink:href="#DejaVuSans-56" transform="translate(1020.851562 0.015625)"/>
     <use xlink:href="#DejaVuSans-3" transform="translate(1072.951172 0.015625)"/>
     <use xlink:href="#DejaVuSans-57" transform="translate(1104.738281 0.015625)"/>
     <use xlink:href="#DejaVuSans-48" transform="translate(1143.947266 0.015625)"/>
     <use xlink:href="#DejaVuSans-55" transform="translate(1205.470703 0.015625)"/>
     <use xlink:href="#DejaVuSans-51" transform="translate(1244.583984 0.015625)"/>
     <use xlink:href="#DejaVuSans-44" transform="translate(1307.962891 0.015625)"/>
     <use xlink:href="#DejaVuSans-55" transform="translate(1369.242188 0.015625)"/>
     <use xlink:href="#DejaVuSans-5c" transform="translate(1410.355469 0.015625)"/>
     <use xlink:href="#DejaVuSans-3" transform="translate(1469.535156 0.015625)"/>
     <use xlink:href="#DejaVuSans-4c" transform="translate(1501.322266 0.015625)"/>
     <use xlink:href="#DejaVuSans-51" transform="translate(1529.105469 0.015625)"/>
     <use xlink:href="#DejaVuSans-3" transform="translate(1592.484375 0.015625)"/>
     <use xlink:href="#DejaVuSans-b" transform="translate(1624.271484 0.015625)"/>
     <use xlink:href="#DejaVuSans-Oblique-4c" transform="translate(1663.285156 0.015625)"/>
     <use xlink:href="#DejaVuSans-f" transform="translate(1691.068359 0.015625)"/>
     <use xlink:href="#DejaVuSans-Oblique-55" transform="translate(1742.337891 0.015625)"/>
     <use xlink:href="#DejaVuSans-f" transform="translate(1783.451172 0.015625)"/>
     <use xlink:href="#DejaVuSans-Oblique-56" transform="translate(1834.720703 0.015625)"/>
     <use xlink:href="#DejaVuSans-c" transform="translate(1886.820312 0.015625)"/>
     <use xlink:href="#DejaVuSans-11" transform="translate(1925.833984 0.015625)"/>
    </g>
   </g>
  </g>
 </g>
 <defs>
  <clipPath id="p3df78bf3f0">
   <rect x="7.2" y="7.2" width="903.96" height="454.608"/>
  </clipPath>
 </defs>
</svg>
