<?xml version="1.0" encoding="utf-8" standalone="no"?>
<!DOCTYPE svg PUBLIC "-//W3C//DTD SVG 1.1//EN"
  "http://www.w3.org/Graphics/SVG/1.1/DTD/svg11.dtd">
<svg xmlns:xlink="http://www.w3.org/1999/xlink" width="963pt" height="424.656pt" viewBox="0 0 963 424.656" xmlns="http://www.w3.org/2000/svg" version="1.1">
 <metadata>
  <rdf:RDF xmlns:dc="http://purl.org/dc/elements/1.1/" xmlns:cc="http://creativecommons.org/ns#" xmlns:rdf="http://www.w3.org/1999/02/22-rdf-syntax-ns#">
   <cc:Work>
    <dc:type rdf:resource="http://purl.org/dc/dcmitype/StillImage"/>
    <dc:date>2026-07-01T02:40:14.056580</dc:date>
    <dc:format>image/svg+xml</dc:format>
    <dc:creator>
     <cc:Agent>
      <dc:title>Matplotlib v3.11.0, https://matplotlib.org/</dc:title>
     </cc:Agent>
    </dc:creator>
   </cc:Work>
  </rdf:RDF>
 </metadata>
 <defs>
  <style type="text/css">*{stroke-linejoin: round; stroke-linecap: butt}</style>
 </defs>
 <g id="figure_1">
  <g id="patch_1">
   <path d="M 0 424.656 
L 963 424.656 
L 963 0 
L 0 0 
z
" style="fill: #fcfcfd"/>
  </g>
  <g id="axes_1">
   <g id="patch_2">
    <path d="M 56.5272 204.12288 
L 199.7658 204.12288 
Q 220.635 204.12288 220.635 195.097248 
L 220.635 106.481952 
Q 220.635 97.45632 199.7658 97.45632 
L 56.5272 97.45632 
Q 35.658 97.45632 35.658 106.481952 
L 35.658 195.097248 
Q 35.658 204.12288 56.5272 204.12288 
z
" clip-path="url(#p7d8b2a3cfc)" style="fill: #ffffff; stroke: #0077bb; stroke-width: 1.45; stroke-linejoin: miter"/>
   </g>
   <g id="patch_3">
    <path d="M 293.6772 204.12288 
L 436.9158 204.12288 
Q 457.785 204.12288 457.785 195.097248 
L 457.785 106.481952 
Q 457.785 97.45632 436.9158 97.45632 
L 293.6772 97.45632 
Q 272.808 97.45632 272.808 106.481952 
L 272.808 195.097248 
Q 272.808 204.12288 293.6772 204.12288 
z
" clip-path="url(#p7d8b2a3cfc)" style="fill: #ffffff; stroke: #009988; stroke-width: 1.45; stroke-linejoin: miter"/>
   </g>
   <g id="patch_4">
    <path d="M 530.8272 204.12288 
L 674.0658 204.12288 
Q 694.935 204.12288 694.935 195.097248 
L 694.935 106.481952 
Q 694.935 97.45632 674.0658 97.45632 
L 530.8272 97.45632 
Q 509.958 97.45632 509.958 106.481952 
L 509.958 195.097248 
Q 509.958 204.12288 530.8272 204.12288 
z
" clip-path="url(#p7d8b2a3cfc)" style="fill: #ffffff; stroke: #ee7733; stroke-width: 1.45; stroke-linejoin: miter"/>
   </g>
   <g id="patch_5">
    <path d="M 767.9772 204.12288 
L 911.2158 204.12288 
Q 932.085 204.12288 932.085 195.097248 
L 932.085 106.481952 
Q 932.085 97.45632 911.2158 97.45632 
L 767.9772 97.45632 
Q 747.108 97.45632 747.108 106.481952 
L 747.108 195.097248 
Q 747.108 204.12288 767.9772 204.12288 
z
" clip-path="url(#p7d8b2a3cfc)" style="fill: #ffffff; stroke: #cc3377; stroke-width: 1.45; stroke-linejoin: miter"/>
   </g>
   <g id="patch_6">
    <path d="M 219.791716 150.7896 
Q 246.722055 150.7896 272.143048 150.7896 
" clip-path="url(#p7d8b2a3cfc)" style="fill: none; stroke: #009988; stroke-width: 1.35; stroke-linecap: round"/>
    <path d="M 265.743048 147.5896 
L 272.143048 150.7896 
L 265.743048 153.9896 
z
" clip-path="url(#p7d8b2a3cfc)" style="fill: #009988; stroke: #009988; stroke-width: 1.35; stroke-linecap: round"/>
   </g>
   <g id="patch_7">
    <path d="M 456.941716 150.7896 
Q 483.872055 150.7896 509.293048 150.7896 
" clip-path="url(#p7d8b2a3cfc)" style="fill: none; stroke: #ee7733; stroke-width: 1.35; stroke-linecap: round"/>
    <path d="M 502.893048 147.5896 
L 509.293048 150.7896 
L 502.893048 153.9896 
z
" clip-path="url(#p7d8b2a3cfc)" style="fill: #ee7733; stroke: #ee7733; stroke-width: 1.35; stroke-linecap: round"/>
   </g>
   <g id="patch_8">
    <path d="M 694.091716 150.7896 
Q 721.022055 150.7896 746.443048 150.7896 
" clip-path="url(#p7d8b2a3cfc)" style="fill: none; stroke: #cc3377; stroke-width: 1.35; stroke-linecap: round"/>
    <path d="M 740.043048 147.5896 
L 746.443048 150.7896 
L 740.043048 153.9896 
z
" clip-path="url(#p7d8b2a3cfc)" style="fill: #cc3377; stroke: #cc3377; stroke-width: 1.35; stroke-linecap: round"/>
   </g>
   <g id="patch_9">
    <path d="M 302.2146 242.686944 
L 660.7854 242.686944 
Q 677.8602 242.686944 677.8602 235.302336 
L 677.8602 215.610048 
Q 677.8602 208.22544 660.7854 208.22544 
L 302.2146 208.22544 
Q 285.1398 208.22544 285.1398 215.610048 
L 285.1398 235.302336 
Q 285.1398 242.686944 302.2146 242.686944 
z
" clip-path="url(#p7d8b2a3cfc)" style="fill: #f5f3ff; stroke: #ddd6fe; stroke-linejoin: miter"/>
   </g>
   <g id="patch_10">
    <path d="M 76.4478 382.58424 
L 877.0662 382.58424 
Q 894.141 382.58424 894.141 375.199632 
L 894.141 256.635648 
Q 894.141 249.25104 877.0662 249.25104 
L 76.4478 249.25104 
Q 59.373 249.25104 59.373 256.635648 
L 59.373 375.199632 
Q 59.373 382.58424 76.4478 382.58424 
z
" clip-path="url(#p7d8b2a3cfc)" style="fill: #ffffff; stroke: #cbd5e1; stroke-width: 1.1; stroke-linejoin: miter"/>
   </g>
   <g id="text_1">
    <!-- World Cellular Automata as a finite-set operator -->
    <g style="fill: #111827" transform="translate(40.401 37.011454) scale(0.2 -0.2)">
     <defs>
      <path id="DejaVuSans-Bold-3a" d="M 191 4666 
L 1344 4666 
L 2150 1275 
L 2950 4666 
L 4109 4666 
L 4909 1275 
L 5716 4666 
L 6859 4666 
L 5759 0 
L 4372 0 
L 3525 3547 
L 2688 0 
L 1300 0 
L 191 4666 
z
" transform="scale(0.015625)"/>
      <path id="DejaVuSans-Bold-52" d="M 2203 2784 
Q 1831 2784 1636 2517 
Q 1441 2250 1441 1747 
Q 1441 1244 1636 976 
Q 1831 709 2203 709 
Q 2569 709 2762 976 
Q 2956 1244 2956 1747 
Q 2956 2250 2762 2517 
Q 2569 2784 2203 2784 
z
M 2203 3584 
Q 3106 3584 3614 3096 
Q 4122 2609 4122 1747 
Q 4122 884 3614 396 
Q 3106 -91 2203 -91 
Q 1297 -91 786 396 
Q 275 884 275 1747 
Q 275 2609 786 3096 
Q 1297 3584 2203 3584 
z
" transform="scale(0.015625)"/>
      <path id="DejaVuSans-Bold-55" d="M 3138 2547 
Q 2991 2616 2845 2648 
Q 2700 2681 2553 2681 
Q 2122 2681 1889 2404 
Q 1656 2128 1656 1613 
L 1656 0 
L 538 0 
L 538 3500 
L 1656 3500 
L 1656 2925 
Q 1872 3269 2151 3426 
Q 2431 3584 2822 3584 
Q 2878 3584 2943 3579 
Q 3009 3575 3134 3559 
L 3138 2547 
z
" transform="scale(0.015625)"/>
      <path id="DejaVuSans-Bold-4f" d="M 538 4863 
L 1656 4863 
L 1656 0 
L 538 0 
L 538 4863 
z
" transform="scale(0.015625)"/>
      <path id="DejaVuSans-Bold-47" d="M 2919 2988 
L 2919 4863 
L 4044 4863 
L 4044 0 
L 2919 0 
L 2919 506 
Q 2688 197 2409 53 
Q 2131 -91 1766 -91 
Q 1119 -91 703 423 
Q 288 938 288 1747 
Q 288 2556 703 3070 
Q 1119 3584 1766 3584 
Q 2128 3584 2408 3439 
Q 2688 3294 2919 2988 
z
M 2181 722 
Q 2541 722 2730 984 
Q 2919 1247 2919 1747 
Q 2919 2247 2730 2509 
Q 2541 2772 2181 2772 
Q 1825 2772 1636 2509 
Q 1447 2247 1447 1747 
Q 1447 1247 1636 984 
Q 1825 722 2181 722 
z
" transform="scale(0.015625)"/>
      <path id="DejaVuSans-Bold-3" transform="scale(0.015625)"/>
      <path id="DejaVuSans-Bold-26" d="M 4288 256 
Q 3956 84 3597 -3 
Q 3238 -91 2847 -91 
Q 1681 -91 1000 561 
Q 319 1213 319 2328 
Q 319 3447 1000 4098 
Q 1681 4750 2847 4750 
Q 3238 4750 3597 4662 
Q 3956 4575 4288 4403 
L 4288 3438 
Q 3953 3666 3628 3772 
Q 3303 3878 2944 3878 
Q 2300 3878 1931 3465 
Q 1563 3053 1563 2328 
Q 1563 1606 1931 1193 
Q 2300 781 2944 781 
Q 3303 781 3628 887 
Q 3953 994 4288 1222 
L 4288 256 
z
" transform="scale(0.015625)"/>
      <path id="DejaVuSans-Bold-48" d="M 4031 1759 
L 4031 1441 
L 1416 1441 
Q 1456 1047 1700 850 
Q 1944 653 2381 653 
Q 2734 653 3104 758 
Q 3475 863 3866 1075 
L 3866 213 
Q 3469 63 3072 -14 
Q 2675 -91 2278 -91 
Q 1328 -91 801 392 
Q 275 875 275 1747 
Q 275 2603 792 3093 
Q 1309 3584 2216 3584 
Q 3041 3584 3536 3087 
Q 4031 2591 4031 1759 
z
M 2881 2131 
Q 2881 2450 2695 2645 
Q 2509 2841 2209 2841 
Q 1884 2841 1681 2658 
Q 1478 2475 1428 2131 
L 2881 2131 
z
" transform="scale(0.015625)"/>
      <path id="DejaVuSans-Bold-58" d="M 500 1363 
L 500 3500 
L 1625 3500 
L 1625 3150 
Q 1625 2866 1622 2436 
Q 1619 2006 1619 1863 
Q 1619 1441 1641 1255 
Q 1663 1069 1716 984 
Q 1784 875 1895 815 
Q 2006 756 2150 756 
Q 2500 756 2700 1025 
Q 2900 1294 2900 1772 
L 2900 3500 
L 4019 3500 
L 4019 0 
L 2900 0 
L 2900 506 
Q 2647 200 2364 54 
Q 2081 -91 1741 -91 
Q 1134 -91 817 281 
Q 500 653 500 1363 
z
" transform="scale(0.015625)"/>
      <path id="DejaVuSans-Bold-44" d="M 2106 1575 
Q 1756 1575 1579 1456 
Q 1403 1338 1403 1106 
Q 1403 894 1545 773 
Q 1688 653 1941 653 
Q 2256 653 2472 879 
Q 2688 1106 2688 1447 
L 2688 1575 
L 2106 1575 
z
M 3816 1997 
L 3816 0 
L 2688 0 
L 2688 519 
Q 2463 200 2181 54 
Q 1900 -91 1497 -91 
Q 953 -91 614 226 
Q 275 544 275 1050 
Q 275 1666 698 1953 
Q 1122 2241 2028 2241 
L 2688 2241 
L 2688 2328 
Q 2688 2594 2478 2717 
Q 2269 2841 1825 2841 
Q 1466 2841 1156 2769 
Q 847 2697 581 2553 
L 581 3406 
Q 941 3494 1303 3539 
Q 1666 3584 2028 3584 
Q 2975 3584 3395 3211 
Q 3816 2838 3816 1997 
z
" transform="scale(0.015625)"/>
      <path id="DejaVuSans-Bold-24" d="M 3419 850 
L 1538 850 
L 1241 0 
L 31 0 
L 1759 4666 
L 3194 4666 
L 4922 0 
L 3713 0 
L 3419 850 
z
M 1838 1716 
L 3116 1716 
L 2478 3572 
L 1838 1716 
z
" transform="scale(0.015625)"/>
      <path id="DejaVuSans-Bold-57" d="M 1759 4494 
L 1759 3500 
L 2913 3500 
L 2913 2700 
L 1759 2700 
L 1759 1216 
Q 1759 972 1856 886 
Q 1953 800 2241 800 
L 2816 800 
L 2816 0 
L 1856 0 
Q 1194 0 917 276 
Q 641 553 641 1216 
L 641 2700 
L 84 2700 
L 84 3500 
L 641 3500 
L 641 4494 
L 1759 4494 
z
" transform="scale(0.015625)"/>
      <path id="DejaVuSans-Bold-50" d="M 3781 2919 
Q 3994 3244 4286 3414 
Q 4578 3584 4928 3584 
Q 5531 3584 5847 3212 
Q 6163 2841 6163 2131 
L 6163 0 
L 5038 0 
L 5038 1825 
Q 5041 1866 5042 1909 
Q 5044 1953 5044 2034 
Q 5044 2406 4934 2573 
Q 4825 2741 4581 2741 
Q 4263 2741 4089 2478 
Q 3916 2216 3909 1719 
L 3909 0 
L 2784 0 
L 2784 1825 
Q 2784 2406 2684 2573 
Q 2584 2741 2328 2741 
Q 2006 2741 1831 2477 
Q 1656 2213 1656 1722 
L 1656 0 
L 531 0 
L 531 3500 
L 1656 3500 
L 1656 2988 
Q 1863 3284 2130 3434 
Q 2397 3584 2719 3584 
Q 3081 3584 3359 3409 
Q 3638 3234 3781 2919 
z
" transform="scale(0.015625)"/>
      <path id="DejaVuSans-Bold-56" d="M 3272 3391 
L 3272 2541 
Q 2913 2691 2578 2766 
Q 2244 2841 1947 2841 
Q 1628 2841 1473 2761 
Q 1319 2681 1319 2516 
Q 1319 2381 1436 2309 
Q 1553 2238 1856 2203 
L 2053 2175 
Q 2913 2066 3209 1816 
Q 3506 1566 3506 1031 
Q 3506 472 3093 190 
Q 2681 -91 1863 -91 
Q 1516 -91 1145 -36 
Q 775 19 384 128 
L 384 978 
Q 719 816 1070 734 
Q 1422 653 1784 653 
Q 2113 653 2278 743 
Q 2444 834 2444 1013 
Q 2444 1163 2330 1236 
Q 2216 1309 1875 1350 
L 1678 1375 
Q 931 1469 631 1722 
Q 331 1975 331 2491 
Q 331 3047 712 3315 
Q 1094 3584 1881 3584 
Q 2191 3584 2531 3537 
Q 2872 3491 3272 3391 
z
" transform="scale(0.015625)"/>
      <path id="DejaVuSans-Bold-13ab" d="M 3078 4863 
L 4206 4863 
L 4206 3950 
L 3078 3950 
L 3078 4863 
z
M 2847 4863 
L 2847 4128 
L 2228 4128 
Q 1994 4128 1903 4042 
Q 1813 3956 1813 3744 
L 1813 3500 
L 4206 3500 
L 4206 0 
L 3078 0 
L 3078 2700 
L 1813 2700 
L 1813 0 
L 684 0 
L 684 2700 
L 134 2700 
L 134 3500 
L 684 3500 
L 684 3744 
Q 684 4316 1003 4589 
Q 1322 4863 1991 4863 
L 2847 4863 
z
" transform="scale(0.015625)"/>
      <path id="DejaVuSans-Bold-51" d="M 4056 2131 
L 4056 0 
L 2931 0 
L 2931 347 
L 2931 1631 
Q 2931 2084 2911 2256 
Q 2891 2428 2841 2509 
Q 2775 2619 2662 2680 
Q 2550 2741 2406 2741 
Q 2056 2741 1856 2470 
Q 1656 2200 1656 1722 
L 1656 0 
L 538 0 
L 538 3500 
L 1656 3500 
L 1656 2988 
Q 1909 3294 2193 3439 
Q 2478 3584 2822 3584 
Q 3428 3584 3742 3212 
Q 4056 2841 4056 2131 
z
" transform="scale(0.015625)"/>
      <path id="DejaVuSans-Bold-4c" d="M 538 3500 
L 1656 3500 
L 1656 0 
L 538 0 
L 538 3500 
z
M 538 4863 
L 1656 4863 
L 1656 3950 
L 538 3950 
L 538 4863 
z
" transform="scale(0.015625)"/>
      <path id="DejaVuSans-Bold-10" d="M 347 2297 
L 2309 2297 
L 2309 1388 
L 347 1388 
L 347 2297 
z
" transform="scale(0.015625)"/>
      <path id="DejaVuSans-Bold-53" d="M 1656 506 
L 1656 -1331 
L 538 -1331 
L 538 3500 
L 1656 3500 
L 1656 2988 
Q 1888 3294 2169 3439 
Q 2450 3584 2816 3584 
Q 3463 3584 3878 3070 
Q 4294 2556 4294 1747 
Q 4294 938 3878 423 
Q 3463 -91 2816 -91 
Q 2450 -91 2169 54 
Q 1888 200 1656 506 
z
M 2400 2772 
Q 2041 2772 1848 2508 
Q 1656 2244 1656 1747 
Q 1656 1250 1848 986 
Q 2041 722 2400 722 
Q 2759 722 2948 984 
Q 3138 1247 3138 1747 
Q 3138 2247 2948 2509 
Q 2759 2772 2400 2772 
z
" transform="scale(0.015625)"/>
     </defs>
     <use xlink:href="#DejaVuSans-Bold-3a"/>
     <use xlink:href="#DejaVuSans-Bold-52" transform="translate(106.734375 0)"/>
     <use xlink:href="#DejaVuSans-Bold-55" transform="translate(175.4375 0)"/>
     <use xlink:href="#DejaVuSans-Bold-4f" transform="translate(224.75 0)"/>
     <use xlink:href="#DejaVuSans-Bold-47" transform="translate(259.03125 0)"/>
     <use xlink:href="#DejaVuSans-Bold-3" transform="translate(330.609375 0)"/>
     <use xlink:href="#DejaVuSans-Bold-26" transform="translate(365.421875 0)"/>
     <use xlink:href="#DejaVuSans-Bold-48" transform="translate(438.8125 0)"/>
     <use xlink:href="#DejaVuSans-Bold-4f" transform="translate(506.640625 0)"/>
     <use xlink:href="#DejaVuSans-Bold-4f" transform="translate(540.921875 0)"/>
     <use xlink:href="#DejaVuSans-Bold-58" transform="translate(575.203125 0)"/>
     <use xlink:href="#DejaVuSans-Bold-4f" transform="translate(646.390625 0)"/>
     <use xlink:href="#DejaVuSans-Bold-44" transform="translate(680.671875 0)"/>
     <use xlink:href="#DejaVuSans-Bold-55" transform="translate(748.15625 0)"/>
     <use xlink:href="#DejaVuSans-Bold-3" transform="translate(797.46875 0)"/>
     <use xlink:href="#DejaVuSans-Bold-24" transform="translate(832.28125 0)"/>
     <use xlink:href="#DejaVuSans-Bold-58" transform="translate(909.671875 0)"/>
     <use xlink:href="#DejaVuSans-Bold-57" transform="translate(980.859375 0)"/>
     <use xlink:href="#DejaVuSans-Bold-52" transform="translate(1028.65625 0)"/>
     <use xlink:href="#DejaVuSans-Bold-50" transform="translate(1097.359375 0)"/>
     <use xlink:href="#DejaVuSans-Bold-44" transform="translate(1201.5625 0)"/>
     <use xlink:href="#DejaVuSans-Bold-57" transform="translate(1269.046875 0)"/>
     <use xlink:href="#DejaVuSans-Bold-44" transform="translate(1316.84375 0)"/>
     <use xlink:href="#DejaVuSans-Bold-3" transform="translate(1384.328125 0)"/>
     <use xlink:href="#DejaVuSans-Bold-44" transform="translate(1419.140625 0)"/>
     <use xlink:href="#DejaVuSans-Bold-56" transform="translate(1486.625 0)"/>
     <use xlink:href="#DejaVuSans-Bold-3" transform="translate(1546.140625 0)"/>
     <use xlink:href="#DejaVuSans-Bold-44" transform="translate(1580.953125 0)"/>
     <use xlink:href="#DejaVuSans-Bold-3" transform="translate(1648.4375 0)"/>
     <use xlink:href="#DejaVuSans-Bold-13ab" transform="translate(1683.25 0)"/>
     <use xlink:href="#DejaVuSans-Bold-51" transform="translate(1757.375 0)"/>
     <use xlink:href="#DejaVuSans-Bold-4c" transform="translate(1828.5625 0)"/>
     <use xlink:href="#DejaVuSans-Bold-57" transform="translate(1862.84375 0)"/>
     <use xlink:href="#DejaVuSans-Bold-48" transform="translate(1910.640625 0)"/>
     <use xlink:href="#DejaVuSans-Bold-10" transform="translate(1978.46875 0)"/>
     <use xlink:href="#DejaVuSans-Bold-56" transform="translate(2019.96875 0)"/>
     <use xlink:href="#DejaVuSans-Bold-48" transform="translate(2079.484375 0)"/>
     <use xlink:href="#DejaVuSans-Bold-57" transform="translate(2147.3125 0)"/>
     <use xlink:href="#DejaVuSans-Bold-3" transform="translate(2195.109375 0)"/>
     <use xlink:href="#DejaVuSans-Bold-52" transform="translate(2229.921875 0)"/>
     <use xlink:href="#DejaVuSans-Bold-53" transform="translate(2298.625 0)"/>
     <use xlink:href="#DejaVuSans-Bold-48" transform="translate(2370.203125 0)"/>
     <use xlink:href="#DejaVuSans-Bold-55" transform="translate(2438.03125 0)"/>
     <use xlink:href="#DejaVuSans-Bold-44" transform="translate(2487.34375 0)"/>
     <use xlink:href="#DejaVuSans-Bold-57" transform="translate(2554.828125 0)"/>
     <use xlink:href="#DejaVuSans-Bold-52" transform="translate(2602.625 0)"/>
     <use xlink:href="#DejaVuSans-Bold-55" transform="translate(2671.328125 0)"/>
    </g>
   </g>
   <g id="text_2">
    <!-- Baseline invariant: $H_t \rightarrow L_t \rightarrow \mathcal{E}_\theta(L_t) \rightarrow H_{t+1}$, with local worlds indexed by center nodes. -->
    <g style="fill: #5b6472" transform="translate(40.401 57.368092) scale(0.115 -0.115)">
     <defs>
      <path id="DejaVuSans-25" d="M 1259 2228 
L 1259 519 
L 2272 519 
Q 2781 519 3026 730 
Q 3272 941 3272 1375 
Q 3272 1813 3026 2020 
Q 2781 2228 2272 2228 
L 1259 2228 
z
M 1259 4147 
L 1259 2741 
L 2194 2741 
Q 2656 2741 2882 2914 
Q 3109 3088 3109 3444 
Q 3109 3797 2882 3972 
Q 2656 4147 2194 4147 
L 1259 4147 
z
M 628 4666 
L 2241 4666 
Q 2963 4666 3353 4366 
Q 3744 4066 3744 3513 
Q 3744 3084 3544 2831 
Q 3344 2578 2956 2516 
Q 3422 2416 3680 2098 
Q 3938 1781 3938 1306 
Q 3938 681 3513 340 
Q 3088 0 2303 0 
L 628 0 
L 628 4666 
z
" transform="scale(0.015625)"/>
      <path id="DejaVuSans-44" d="M 2194 1759 
Q 1497 1759 1228 1600 
Q 959 1441 959 1056 
Q 959 750 1161 570 
Q 1363 391 1709 391 
Q 2188 391 2477 730 
Q 2766 1069 2766 1631 
L 2766 1759 
L 2194 1759 
z
M 3341 1997 
L 3341 0 
L 2766 0 
L 2766 531 
Q 2569 213 2275 61 
Q 1981 -91 1556 -91 
Q 1019 -91 701 211 
Q 384 513 384 1019 
Q 384 1609 779 1909 
Q 1175 2209 1959 2209 
L 2766 2209 
L 2766 2266 
Q 2766 2663 2505 2880 
Q 2244 3097 1772 3097 
Q 1472 3097 1187 3025 
Q 903 2953 641 2809 
L 641 3341 
Q 956 3463 1253 3523 
Q 1550 3584 1831 3584 
Q 2591 3584 2966 3190 
Q 3341 2797 3341 1997 
z
" transform="scale(0.015625)"/>
      <path id="DejaVuSans-56" d="M 2834 3397 
L 2834 2853 
Q 2591 2978 2328 3040 
Q 2066 3103 1784 3103 
Q 1356 3103 1142 2972 
Q 928 2841 928 2578 
Q 928 2378 1081 2264 
Q 1234 2150 1697 2047 
L 1894 2003 
Q 2506 1872 2764 1633 
Q 3022 1394 3022 966 
Q 3022 478 2636 193 
Q 2250 -91 1575 -91 
Q 1294 -91 989 -36 
Q 684 19 347 128 
L 347 722 
Q 666 556 975 473 
Q 1284 391 1588 391 
Q 1994 391 2212 530 
Q 2431 669 2431 922 
Q 2431 1156 2273 1281 
Q 2116 1406 1581 1522 
L 1381 1569 
Q 847 1681 609 1914 
Q 372 2147 372 2553 
Q 372 3047 722 3315 
Q 1072 3584 1716 3584 
Q 2034 3584 2315 3537 
Q 2597 3491 2834 3397 
z
" transform="scale(0.015625)"/>
      <path id="DejaVuSans-48" d="M 3597 1894 
L 3597 1613 
L 953 1613 
Q 991 1019 1311 708 
Q 1631 397 2203 397 
Q 2534 397 2845 478 
Q 3156 559 3463 722 
L 3463 178 
Q 3153 47 2828 -22 
Q 2503 -91 2169 -91 
Q 1331 -91 842 396 
Q 353 884 353 1716 
Q 353 2575 817 3079 
Q 1281 3584 2069 3584 
Q 2775 3584 3186 3129 
Q 3597 2675 3597 1894 
z
M 3022 2063 
Q 3016 2534 2758 2815 
Q 2500 3097 2075 3097 
Q 1594 3097 1305 2825 
Q 1016 2553 972 2059 
L 3022 2063 
z
" transform="scale(0.015625)"/>
      <path id="DejaVuSans-4f" d="M 603 4863 
L 1178 4863 
L 1178 0 
L 603 0 
L 603 4863 
z
" transform="scale(0.015625)"/>
      <path id="DejaVuSans-4c" d="M 603 3500 
L 1178 3500 
L 1178 0 
L 603 0 
L 603 3500 
z
M 603 4863 
L 1178 4863 
L 1178 4134 
L 603 4134 
L 603 4863 
z
" transform="scale(0.015625)"/>
      <path id="DejaVuSans-51" d="M 3513 2113 
L 3513 0 
L 2938 0 
L 2938 2094 
Q 2938 2591 2744 2837 
Q 2550 3084 2163 3084 
Q 1697 3084 1428 2787 
Q 1159 2491 1159 1978 
L 1159 0 
L 581 0 
L 581 3500 
L 1159 3500 
L 1159 2956 
Q 1366 3272 1645 3428 
Q 1925 3584 2291 3584 
Q 2894 3584 3203 3211 
Q 3513 2838 3513 2113 
z
" transform="scale(0.015625)"/>
      <path id="DejaVuSans-3" transform="scale(0.015625)"/>
      <path id="DejaVuSans-59" d="M 191 3500 
L 800 3500 
L 1894 563 
L 2988 3500 
L 3597 3500 
L 2284 0 
L 1503 0 
L 191 3500 
z
" transform="scale(0.015625)"/>
      <path id="DejaVuSans-55" d="M 2631 2963 
Q 2534 3019 2420 3045 
Q 2306 3072 2169 3072 
Q 1681 3072 1420 2755 
Q 1159 2438 1159 1844 
L 1159 0 
L 581 0 
L 581 3500 
L 1159 3500 
L 1159 2956 
Q 1341 3275 1631 3429 
Q 1922 3584 2338 3584 
Q 2397 3584 2469 3576 
Q 2541 3569 2628 3553 
L 2631 2963 
z
" transform="scale(0.015625)"/>
      <path id="DejaVuSans-57" d="M 1172 4494 
L 1172 3500 
L 2356 3500 
L 2356 3053 
L 1172 3053 
L 1172 1153 
Q 1172 725 1289 603 
Q 1406 481 1766 481 
L 2356 481 
L 2356 0 
L 1766 0 
Q 1100 0 847 248 
Q 594 497 594 1153 
L 594 3053 
L 172 3053 
L 172 3500 
L 594 3500 
L 594 4494 
L 1172 4494 
z
" transform="scale(0.015625)"/>
      <path id="DejaVuSans-1d" d="M 750 794 
L 1409 794 
L 1409 0 
L 750 0 
L 750 794 
z
M 750 3309 
L 1409 3309 
L 1409 2516 
L 750 2516 
L 750 3309 
z
" transform="scale(0.015625)"/>
      <path id="DejaVuSans-Oblique-2b" d="M 1081 4666 
L 1716 4666 
L 1344 2753 
L 3634 2753 
L 4006 4666 
L 4641 4666 
L 3731 0 
L 3097 0 
L 3531 2222 
L 1241 2222 
L 806 0 
L 172 0 
L 1081 4666 
z
" transform="scale(0.015625)"/>
      <path id="DejaVuSans-Oblique-57" d="M 2706 3500 
L 2619 3053 
L 1472 3053 
L 1100 1153 
Q 1081 1047 1072 975 
Q 1063 903 1063 863 
Q 1063 663 1183 572 
Q 1303 481 1569 481 
L 2150 481 
L 2053 0 
L 1503 0 
Q 991 0 739 200 
Q 488 400 488 806 
Q 488 878 497 964 
Q 506 1050 525 1153 
L 897 3053 
L 409 3053 
L 500 3500 
L 978 3500 
L 1172 4494 
L 1747 4494 
L 1556 3500 
L 2706 3500 
z
" transform="scale(0.015625)"/>
      <path id="DejaVuSans-c1c" d="M 5050 2147 
L 5050 1866 
L 3822 638 
L 3447 1013 
L 4175 1741 
L 366 1741 
L 366 2272 
L 4175 2272 
L 3447 3000 
L 3822 3375 
L 5050 2147 
z
" transform="scale(0.015625)"/>
      <path id="DejaVuSans-Oblique-2f" d="M 1075 4666 
L 1709 4666 
L 909 525 
L 3181 525 
L 3078 0 
L 172 0 
L 1075 4666 
z
" transform="scale(0.015625)"/>
      <path id="STIXNonUnicode-Italic-77" d="M 3270 973 
L 3373 858 
Q 2893 346 2272 128 
Q 1856 -26 1331 -26 
Q 896 -26 576 169 
Q 256 365 256 736 
Q 256 1267 659 1651 
Q 1062 2035 1619 2259 
Q 1485 2323 1414 2368 
Q 1344 2413 1257 2493 
Q 1171 2573 1132 2688 
Q 1094 2803 1094 2963 
Q 1094 3309 1401 3629 
Q 1709 3949 2112 4118 
Q 2515 4288 2848 4288 
Q 3296 4288 3565 4128 
Q 3834 3968 3834 3654 
Q 3834 3514 3718 3338 
Q 3603 3162 3373 3162 
Q 3238 3162 3132 3251 
Q 3027 3341 3027 3475 
Q 3027 3622 3123 3731 
Q 3219 3840 3219 3859 
Q 3219 3981 3148 4029 
Q 3078 4077 2918 4077 
Q 2432 4077 2038 3792 
Q 1645 3507 1645 3155 
Q 1645 2893 1881 2742 
Q 2118 2592 2502 2592 
L 2938 2592 
L 2880 2349 
Q 2605 2349 2275 2243 
Q 1946 2138 1645 1958 
Q 1344 1779 1142 1494 
Q 941 1210 941 896 
Q 941 614 1155 467 
Q 1370 320 1741 320 
Q 2131 320 2576 515 
Q 3021 710 3270 973 
z
" transform="scale(0.015625)"/>
      <path id="DejaVuSans-Oblique-34c" d="M 2913 2219 
L 925 2219 
Q 791 1284 928 888 
Q 1100 400 1566 400 
Q 2034 400 2391 891 
Q 2703 1322 2913 2219 
z
M 3009 2750 
Q 3094 3638 2984 3950 
Q 2813 4444 2353 4444 
Q 1875 4444 1525 3956 
Q 1250 3563 1034 2750 
L 3009 2750 
z
M 2444 4913 
Q 3194 4913 3494 4250 
Q 3794 3591 3566 2422 
Q 3341 1256 2781 594 
Q 2225 -72 1475 -72 
Q 722 -72 425 594 
Q 128 1256 353 2422 
Q 581 3591 1134 4250 
Q 1691 4913 2444 4913 
z
" transform="scale(0.015625)"/>
      <path id="DejaVuSans-b" d="M 1984 4856 
Q 1566 4138 1362 3434 
Q 1159 2731 1159 2009 
Q 1159 1288 1364 580 
Q 1569 -128 1984 -844 
L 1484 -844 
Q 1016 -109 783 600 
Q 550 1309 550 2009 
Q 550 2706 781 3412 
Q 1013 4119 1484 4856 
L 1984 4856 
z
" transform="scale(0.015625)"/>
      <path id="DejaVuSans-c" d="M 513 4856 
L 1013 4856 
Q 1481 4119 1714 3412 
Q 1947 2706 1947 2009 
Q 1947 1309 1714 600 
Q 1481 -109 1013 -844 
L 513 -844 
Q 928 -128 1133 580 
Q 1338 1288 1338 2009 
Q 1338 2731 1133 3434 
Q 928 4138 513 4856 
z
" transform="scale(0.015625)"/>
      <path id="DejaVuSans-e" d="M 2944 4013 
L 2944 2272 
L 4684 2272 
L 4684 1741 
L 2944 1741 
L 2944 0 
L 2419 0 
L 2419 1741 
L 678 1741 
L 678 2272 
L 2419 2272 
L 2419 4013 
L 2944 4013 
z
" transform="scale(0.015625)"/>
      <path id="DejaVuSans-14" d="M 794 531 
L 1825 531 
L 1825 4091 
L 703 3866 
L 703 4441 
L 1819 4666 
L 2450 4666 
L 2450 531 
L 3481 531 
L 3481 0 
L 794 0 
L 794 531 
z
" transform="scale(0.015625)"/>
      <path id="DejaVuSans-f" d="M 750 794 
L 1409 794 
L 1409 256 
L 897 -744 
L 494 -744 
L 750 256 
L 750 794 
z
" transform="scale(0.015625)"/>
      <path id="DejaVuSans-5a" d="M 269 3500 
L 844 3500 
L 1563 769 
L 2278 3500 
L 2956 3500 
L 3675 769 
L 4391 3500 
L 4966 3500 
L 4050 0 
L 3372 0 
L 2619 2869 
L 1863 0 
L 1184 0 
L 269 3500 
z
" transform="scale(0.015625)"/>
      <path id="DejaVuSans-4b" d="M 3513 2113 
L 3513 0 
L 2938 0 
L 2938 2094 
Q 2938 2591 2744 2837 
Q 2550 3084 2163 3084 
Q 1697 3084 1428 2787 
Q 1159 2491 1159 1978 
L 1159 0 
L 581 0 
L 581 4863 
L 1159 4863 
L 1159 2956 
Q 1366 3272 1645 3428 
Q 1925 3584 2291 3584 
Q 2894 3584 3203 3211 
Q 3513 2838 3513 2113 
z
" transform="scale(0.015625)"/>
      <path id="DejaVuSans-52" d="M 1959 3097 
Q 1497 3097 1228 2736 
Q 959 2375 959 1747 
Q 959 1119 1226 758 
Q 1494 397 1959 397 
Q 2419 397 2687 759 
Q 2956 1122 2956 1747 
Q 2956 2369 2687 2733 
Q 2419 3097 1959 3097 
z
M 1959 3584 
Q 2709 3584 3137 3096 
Q 3566 2609 3566 1747 
Q 3566 888 3137 398 
Q 2709 -91 1959 -91 
Q 1206 -91 779 398 
Q 353 888 353 1747 
Q 353 2609 779 3096 
Q 1206 3584 1959 3584 
z
" transform="scale(0.015625)"/>
      <path id="DejaVuSans-46" d="M 3122 3366 
L 3122 2828 
Q 2878 2963 2633 3030 
Q 2388 3097 2138 3097 
Q 1578 3097 1268 2742 
Q 959 2388 959 1747 
Q 959 1106 1268 751 
Q 1578 397 2138 397 
Q 2388 397 2633 464 
Q 2878 531 3122 666 
L 3122 134 
Q 2881 22 2623 -34 
Q 2366 -91 2075 -91 
Q 1284 -91 818 406 
Q 353 903 353 1747 
Q 353 2603 823 3093 
Q 1294 3584 2113 3584 
Q 2378 3584 2631 3529 
Q 2884 3475 3122 3366 
z
" transform="scale(0.015625)"/>
      <path id="DejaVuSans-47" d="M 2906 2969 
L 2906 4863 
L 3481 4863 
L 3481 0 
L 2906 0 
L 2906 525 
Q 2725 213 2448 61 
Q 2172 -91 1784 -91 
Q 1150 -91 751 415 
Q 353 922 353 1747 
Q 353 2572 751 3078 
Q 1150 3584 1784 3584 
Q 2172 3584 2448 3432 
Q 2725 3281 2906 2969 
z
M 947 1747 
Q 947 1113 1208 752 
Q 1469 391 1925 391 
Q 2381 391 2643 752 
Q 2906 1113 2906 1747 
Q 2906 2381 2643 2742 
Q 2381 3103 1925 3103 
Q 1469 3103 1208 2742 
Q 947 2381 947 1747 
z
" transform="scale(0.015625)"/>
      <path id="DejaVuSans-5b" d="M 3513 3500 
L 2247 1797 
L 3578 0 
L 2900 0 
L 1881 1375 
L 863 0 
L 184 0 
L 1544 1831 
L 300 3500 
L 978 3500 
L 1906 2253 
L 2834 3500 
L 3513 3500 
z
" transform="scale(0.015625)"/>
      <path id="DejaVuSans-45" d="M 3116 1747 
Q 3116 2381 2855 2742 
Q 2594 3103 2138 3103 
Q 1681 3103 1420 2742 
Q 1159 2381 1159 1747 
Q 1159 1113 1420 752 
Q 1681 391 2138 391 
Q 2594 391 2855 752 
Q 3116 1113 3116 1747 
z
M 1159 2969 
Q 1341 3281 1617 3432 
Q 1894 3584 2278 3584 
Q 2916 3584 3314 3078 
Q 3713 2572 3713 1747 
Q 3713 922 3314 415 
Q 2916 -91 2278 -91 
Q 1894 -91 1617 61 
Q 1341 213 1159 525 
L 1159 0 
L 581 0 
L 581 4863 
L 1159 4863 
L 1159 2969 
z
" transform="scale(0.015625)"/>
      <path id="DejaVuSans-5c" d="M 2059 -325 
Q 1816 -950 1584 -1140 
Q 1353 -1331 966 -1331 
L 506 -1331 
L 506 -850 
L 844 -850 
Q 1081 -850 1212 -737 
Q 1344 -625 1503 -206 
L 1606 56 
L 191 3500 
L 800 3500 
L 1894 763 
L 2988 3500 
L 3597 3500 
L 2059 -325 
z
" transform="scale(0.015625)"/>
      <path id="DejaVuSans-11" d="M 684 794 
L 1344 794 
L 1344 0 
L 684 0 
L 684 794 
z
" transform="scale(0.015625)"/>
     </defs>
     <use xlink:href="#DejaVuSans-25" transform="translate(0 0.015625)"/>
     <use xlink:href="#DejaVuSans-44" transform="translate(68.603516 0.015625)"/>
     <use xlink:href="#DejaVuSans-56" transform="translate(129.882812 0.015625)"/>
     <use xlink:href="#DejaVuSans-48" transform="translate(181.982422 0.015625)"/>
     <use xlink:href="#DejaVuSans-4f" transform="translate(243.505859 0.015625)"/>
     <use xlink:href="#DejaVuSans-4c" transform="translate(271.289062 0.015625)"/>
     <use xlink:href="#DejaVuSans-51" transform="translate(299.072266 0.015625)"/>
     <use xlink:href="#DejaVuSans-48" transform="translate(362.451172 0.015625)"/>
     <use xlink:href="#DejaVuSans-3" transform="translate(423.974609 0.015625)"/>
     <use xlink:href="#DejaVuSans-4c" transform="translate(455.761719 0.015625)"/>
     <use xlink:href="#DejaVuSans-51" transform="translate(483.544922 0.015625)"/>
     <use xlink:href="#DejaVuSans-59" transform="translate(546.923828 0.015625)"/>
     <use xlink:href="#DejaVuSans-44" transform="translate(606.103516 0.015625)"/>
     <use xlink:href="#DejaVuSans-55" transform="translate(667.382812 0.015625)"/>
     <use xlink:href="#DejaVuSans-4c" transform="translate(708.496094 0.015625)"/>
     <use xlink:href="#DejaVuSans-44" transform="translate(736.279297 0.015625)"/>
     <use xlink:href="#DejaVuSans-51" transform="translate(797.558594 0.015625)"/>
     <use xlink:href="#DejaVuSans-57" transform="translate(860.9375 0.015625)"/>
     <use xlink:href="#DejaVuSans-1d" transform="translate(900.146484 0.015625)"/>
     <use xlink:href="#DejaVuSans-3" transform="translate(933.837891 0.015625)"/>
     <use xlink:href="#DejaVuSans-Oblique-2b" transform="translate(965.625 0.015625)"/>
     <use xlink:href="#DejaVuSans-Oblique-57" transform="translate(1040.820312 -14.984326) scale(0.7)"/>
     <use xlink:href="#DejaVuSans-c1c" transform="translate(1090.483398 0.015625)"/>
     <use xlink:href="#DejaVuSans-Oblique-2f" transform="translate(1193.754883 0.015625)"/>
     <use xlink:href="#DejaVuSans-Oblique-57" transform="translate(1249.467773 -14.984326) scale(0.7)"/>
     <use xlink:href="#DejaVuSans-c1c" transform="translate(1299.130859 0.015625)"/>
     <use xlink:href="#STIXNonUnicode-Italic-77" transform="translate(1402.402344 0.015625)"/>
     <use xlink:href="#DejaVuSans-Oblique-34c" transform="translate(1458.659317 -14.984326) scale(0.7)"/>
     <use xlink:href="#DejaVuSans-b" transform="translate(1504.22084 0.015625)"/>
     <use xlink:href="#DejaVuSans-Oblique-2f" transform="translate(1543.234512 0.015625)"/>
     <use xlink:href="#DejaVuSans-Oblique-57" transform="translate(1598.947403 -14.984326) scale(0.7)"/>
     <use xlink:href="#DejaVuSans-c" transform="translate(1629.128067 0.015625)"/>
     <use xlink:href="#DejaVuSans-c1c" transform="translate(1687.624161 0.015625)"/>
     <use xlink:href="#DejaVuSans-Oblique-2b" transform="translate(1790.895645 0.015625)"/>
     <use xlink:href="#DejaVuSans-Oblique-57" transform="translate(1866.090958 -14.984326) scale(0.7)"/>
     <use xlink:href="#DejaVuSans-e" transform="translate(1907.174942 -14.984326) scale(0.7)"/>
     <use xlink:href="#DejaVuSans-14" transform="translate(1979.464981 -14.984326) scale(0.7)"/>
     <use xlink:href="#DejaVuSans-f" transform="translate(2026.735489 0.015625)"/>
     <use xlink:href="#DejaVuSans-3" transform="translate(2058.522598 0.015625)"/>
     <use xlink:href="#DejaVuSans-5a" transform="translate(2090.309708 0.015625)"/>
     <use xlink:href="#DejaVuSans-4c" transform="translate(2172.096817 0.015625)"/>
     <use xlink:href="#DejaVuSans-57" transform="translate(2199.88002 0.015625)"/>
     <use xlink:href="#DejaVuSans-4b" transform="translate(2239.089005 0.015625)"/>
     <use xlink:href="#DejaVuSans-3" transform="translate(2302.467911 0.015625)"/>
     <use xlink:href="#DejaVuSans-4f" transform="translate(2334.25502 0.015625)"/>
     <use xlink:href="#DejaVuSans-52" transform="translate(2362.038223 0.015625)"/>
     <use xlink:href="#DejaVuSans-46" transform="translate(2423.219864 0.015625)"/>
     <use xlink:href="#DejaVuSans-44" transform="translate(2478.200333 0.015625)"/>
     <use xlink:href="#DejaVuSans-4f" transform="translate(2539.47963 0.015625)"/>
     <use xlink:href="#DejaVuSans-3" transform="translate(2567.262833 0.015625)"/>
     <use xlink:href="#DejaVuSans-5a" transform="translate(2599.049942 0.015625)"/>
     <use xlink:href="#DejaVuSans-52" transform="translate(2680.837051 0.015625)"/>
     <use xlink:href="#DejaVuSans-55" transform="translate(2742.018692 0.015625)"/>
     <use xlink:href="#DejaVuSans-4f" transform="translate(2783.131973 0.015625)"/>
     <use xlink:href="#DejaVuSans-47" transform="translate(2810.915176 0.015625)"/>
     <use xlink:href="#DejaVuSans-56" transform="translate(2874.391739 0.015625)"/>
     <use xlink:href="#DejaVuSans-3" transform="translate(2926.491348 0.015625)"/>
     <use xlink:href="#DejaVuSans-4c" transform="translate(2958.278458 0.015625)"/>
     <use xlink:href="#DejaVuSans-51" transform="translate(2986.061661 0.015625)"/>
     <use xlink:href="#DejaVuSans-47" transform="translate(3049.440567 0.015625)"/>
     <use xlink:href="#DejaVuSans-48" transform="translate(3112.91713 0.015625)"/>
     <use xlink:href="#DejaVuSans-5b" transform="translate(3172.440567 0.015625)"/>
     <use xlink:href="#DejaVuSans-48" transform="translate(3228.620255 0.015625)"/>
     <use xlink:href="#DejaVuSans-47" transform="translate(3290.143692 0.015625)"/>
     <use xlink:href="#DejaVuSans-3" transform="translate(3353.620255 0.015625)"/>
     <use xlink:href="#DejaVuSans-45" transform="translate(3385.407364 0.015625)"/>
     <use xlink:href="#DejaVuSans-5c" transform="translate(3448.883926 0.015625)"/>
     <use xlink:href="#DejaVuSans-3" transform="translate(3508.063614 0.015625)"/>
     <use xlink:href="#DejaVuSans-46" transform="translate(3539.850723 0.015625)"/>
     <use xlink:href="#DejaVuSans-48" transform="translate(3594.831192 0.015625)"/>
     <use xlink:href="#DejaVuSans-51" transform="translate(3656.35463 0.015625)"/>
     <use xlink:href="#DejaVuSans-57" transform="translate(3719.733536 0.015625)"/>
     <use xlink:href="#DejaVuSans-48" transform="translate(3758.94252 0.015625)"/>
     <use xlink:href="#DejaVuSans-55" transform="translate(3820.465958 0.015625)"/>
     <use xlink:href="#DejaVuSans-3" transform="translate(3861.579239 0.015625)"/>
     <use xlink:href="#DejaVuSans-51" transform="translate(3893.366348 0.015625)"/>
     <use xlink:href="#DejaVuSans-52" transform="translate(3956.745255 0.015625)"/>
     <use xlink:href="#DejaVuSans-47" transform="translate(4017.926895 0.015625)"/>
     <use xlink:href="#DejaVuSans-48" transform="translate(4081.403458 0.015625)"/>
     <use xlink:href="#DejaVuSans-56" transform="translate(4142.926895 0.015625)"/>
     <use xlink:href="#DejaVuSans-11" transform="translate(4195.026505 0.015625)"/>
    </g>
   </g>
   <g id="text_3">
    <!-- $H_t$ -->
    <g style="fill: #111827" transform="translate(119.6665 141.735607) scale(0.16 -0.16)">
     <use xlink:href="#DejaVuSans-Oblique-2b" transform="translate(0 0.09375)"/>
     <use xlink:href="#DejaVuSans-Oblique-57" transform="translate(75.195312 -14.906201) scale(0.7)"/>
    </g>
   </g>
   <g id="text_4">
    <!-- $h_t:V\to\mathbb{R}^{D}$ -->
    <g style="fill: #5b6472" transform="translate(101.2515 166.852724) scale(0.11 -0.11)">
     <defs>
      <path id="DejaVuSans-Oblique-4b" d="M 3566 2113 
L 3156 0 
L 2578 0 
L 2988 2091 
Q 3016 2238 3031 2350 
Q 3047 2463 3047 2528 
Q 3047 2791 2881 2937 
Q 2716 3084 2419 3084 
Q 1956 3084 1617 2771 
Q 1278 2459 1178 1941 
L 800 0 
L 225 0 
L 1172 4863 
L 1747 4863 
L 1375 2950 
Q 1594 3244 1934 3414 
Q 2275 3584 2650 3584 
Q 3113 3584 3367 3334 
Q 3622 3084 3622 2631 
Q 3622 2519 3608 2391 
Q 3594 2263 3566 2113 
z
" transform="scale(0.015625)"/>
      <path id="DejaVuSans-Oblique-39" d="M 1319 0 
L 500 4666 
L 1119 4666 
L 1797 653 
L 4063 4666 
L 4750 4666 
L 2053 0 
L 1319 0 
z
" transform="scale(0.015625)"/>
      <path id="STIXGeneral-Italic-2dd" d="M 1229 4179 
L 3360 4179 
Q 3827 4179 4108 3894 
Q 4390 3610 4390 3142 
Q 4390 2554 4060 2186 
Q 3731 1818 3149 1715 
L 4026 0 
L 2925 0 
L 2125 1690 
L 1549 1690 
L 1094 0 
L 109 0 
L 1229 4179 
z
M 3866 3821 
L 3392 2022 
Q 3770 2144 3962 2438 
Q 4154 2733 4154 3136 
Q 4154 3584 3866 3821 
z
M 3142 1978 
L 3648 3872 
Q 3450 3942 3296 3942 
L 2150 3942 
L 1613 1926 
L 2630 1926 
Q 2957 1926 3142 1978 
z
M 3629 237 
L 2899 1696 
Q 2829 1683 2682 1683 
Q 2630 1683 2531 1686 
Q 2432 1690 2387 1690 
L 3072 237 
L 3629 237 
z
M 1907 3942 
L 1408 3942 
L 416 237 
L 915 237 
L 1907 3942 
z
" transform="scale(0.015625)"/>
      <path id="DejaVuSans-Oblique-27" d="M 1081 4666 
L 2438 4666 
Q 3519 4666 4070 4208 
Q 4622 3750 4622 2847 
Q 4622 2250 4412 1698 
Q 4203 1147 3834 769 
Q 3463 381 2891 190 
Q 2319 0 1538 0 
L 172 0 
L 1081 4666 
z
M 1613 4147 
L 909 519 
L 1734 519 
Q 2794 519 3375 1128 
Q 3956 1738 3956 2847 
Q 3956 3519 3581 3833 
Q 3206 4147 2406 4147 
L 1613 4147 
z
" transform="scale(0.015625)"/>
     </defs>
     <use xlink:href="#DejaVuSans-Oblique-4b" transform="translate(0 0.665625)"/>
     <use xlink:href="#DejaVuSans-Oblique-57" transform="translate(63.378906 -14.334326) scale(0.7)"/>
     <use xlink:href="#DejaVuSans-1d" transform="translate(113.041992 0.665625)"/>
     <use xlink:href="#DejaVuSans-Oblique-39" transform="translate(166.21582 0.665625)"/>
     <use xlink:href="#DejaVuSans-c1c" transform="translate(254.106445 0.665625)"/>
     <use xlink:href="#STIXGeneral-Italic-2dd" transform="translate(357.37793 0.665625)"/>
     <use xlink:href="#DejaVuSans-Oblique-27" transform="translate(432.029324 41.965625) scale(0.7)"/>
    </g>
    <!-- $[B,N,D]$ -->
    <g style="fill: #5b6472" transform="translate(106.0915 180.05745) scale(0.11 -0.11)">
     <defs>
      <path id="DejaVuSans-3e" d="M 550 4863 
L 1875 4863 
L 1875 4416 
L 1125 4416 
L 1125 -397 
L 1875 -397 
L 1875 -844 
L 550 -844 
L 550 4863 
z
" transform="scale(0.015625)"/>
      <path id="DejaVuSans-Oblique-25" d="M 1081 4666 
L 2694 4666 
Q 3350 4666 3675 4422 
Q 4000 4178 4000 3688 
Q 4000 3238 3720 2911 
Q 3441 2584 2988 2516 
Q 3375 2428 3569 2181 
Q 3763 1934 3763 1522 
Q 3763 819 3242 409 
Q 2722 0 1819 0 
L 172 0 
L 1081 4666 
z
M 1234 2228 
L 903 519 
L 1919 519 
Q 2491 519 2800 781 
Q 3109 1044 3109 1522 
Q 3109 1891 2904 2059 
Q 2700 2228 2247 2228 
L 1234 2228 
z
M 1606 4147 
L 1331 2741 
L 2272 2741 
Q 2775 2741 3058 2959 
Q 3341 3178 3341 3566 
Q 3341 3869 3150 4008 
Q 2959 4147 2541 4147 
L 1606 4147 
z
" transform="scale(0.015625)"/>
      <path id="DejaVuSans-Oblique-31" d="M 1081 4666 
L 1931 4666 
L 3219 666 
L 4000 4666 
L 4616 4666 
L 3706 0 
L 2853 0 
L 1569 4025 
L 788 0 
L 172 0 
L 1081 4666 
z
" transform="scale(0.015625)"/>
      <path id="DejaVuSans-40" d="M 1947 4863 
L 1947 -844 
L 622 -844 
L 622 -397 
L 1369 -397 
L 1369 4416 
L 622 4416 
L 622 4863 
L 1947 4863 
z
" transform="scale(0.015625)"/>
     </defs>
     <use xlink:href="#DejaVuSans-3e" transform="translate(0 0.015625)"/>
     <use xlink:href="#DejaVuSans-Oblique-25" transform="translate(39.013672 0.015625)"/>
     <use xlink:href="#DejaVuSans-f" transform="translate(107.617188 0.015625)"/>
     <use xlink:href="#DejaVuSans-Oblique-31" transform="translate(158.886719 0.015625)"/>
     <use xlink:href="#DejaVuSans-f" transform="translate(233.691406 0.015625)"/>
     <use xlink:href="#DejaVuSans-Oblique-27" transform="translate(284.960938 0.015625)"/>
     <use xlink:href="#DejaVuSans-40" transform="translate(361.962891 0.015625)"/>
    </g>
   </g>
   <g id="text_5">
    <!-- $L_t=\Pi_\theta(H_t)$ -->
    <g style="fill: #111827" transform="translate(324.1765 141.737482) scale(0.16 -0.16)">
     <defs>
      <path id="DejaVuSans-20" d="M 678 2906 
L 4684 2906 
L 4684 2381 
L 678 2381 
L 678 2906 
z
M 678 1631 
L 4684 1631 
L 4684 1100 
L 678 1100 
L 678 1631 
z
" transform="scale(0.015625)"/>
      <path id="DejaVuSans-335" d="M 4184 4666 
L 4184 0 
L 3553 0 
L 3553 4134 
L 1259 4134 
L 1259 0 
L 628 0 
L 628 4666 
L 4184 4666 
z
" transform="scale(0.015625)"/>
     </defs>
     <use xlink:href="#DejaVuSans-Oblique-2f" transform="translate(0 0.125)"/>
     <use xlink:href="#DejaVuSans-Oblique-57" transform="translate(55.712891 -14.874951) scale(0.7)"/>
     <use xlink:href="#DejaVuSans-20" transform="translate(105.375977 0.125)"/>
     <use xlink:href="#DejaVuSans-335" transform="translate(208.647461 0.125)"/>
     <use xlink:href="#DejaVuSans-Oblique-34c" transform="translate(284.799805 -14.874951) scale(0.7)"/>
     <use xlink:href="#DejaVuSans-b" transform="translate(330.361328 0.125)"/>
     <use xlink:href="#DejaVuSans-Oblique-2b" transform="translate(369.375 0.125)"/>
     <use xlink:href="#DejaVuSans-Oblique-57" transform="translate(444.570312 -14.874951) scale(0.7)"/>
     <use xlink:href="#DejaVuSans-c" transform="translate(474.750977 0.125)"/>
    </g>
   </g>
   <g id="text_6">
    <!-- $\ell_t:V_c\times V_n\to\mathbb{R}^{D}$ -->
    <g style="fill: #5b6472" transform="translate(324.2115 166.852724) scale(0.11 -0.11)">
     <defs>
      <path id="DejaVuSans-Oblique-ab2" d="M 950 838 
Q 1078 213 1350 213 
Q 1531 213 1766 572 
L 2181 572 
Q 1994 253 1775 88 
Q 1538 -91 1319 -91 
Q 831 -91 634 344 
L 400 0 
L -88 0 
Q 250 459 500 888 
Q 469 1131 469 1397 
Q 469 1872 566 2347 
Q 931 4131 1256 4497 
Q 1481 4750 1866 4750 
Q 2256 4750 2256 4209 
Q 2253 3966 2197 3675 
Q 1972 2484 950 838 
z
M 947 1656 
Q 1531 2744 1709 3613 
Q 1803 4072 1803 4191 
Q 1803 4406 1725 4406 
Q 1384 4134 1081 2516 
Q 997 2063 947 1656 
z
" transform="scale(0.015625)"/>
      <path id="DejaVuSans-Oblique-46" d="M 3431 3366 
L 3316 2797 
Q 3109 2947 2876 3022 
Q 2644 3097 2394 3097 
Q 2119 3097 1870 3000 
Q 1622 2903 1453 2725 
Q 1184 2453 1037 2087 
Q 891 1722 891 1331 
Q 891 859 1127 628 
Q 1363 397 1844 397 
Q 2081 397 2348 469 
Q 2616 541 2906 684 
L 2797 116 
Q 2547 13 2283 -39 
Q 2019 -91 1741 -91 
Q 1044 -91 669 257 
Q 294 606 294 1253 
Q 294 1797 489 2255 
Q 684 2713 1069 3078 
Q 1331 3328 1684 3456 
Q 2038 3584 2456 3584 
Q 2700 3584 2940 3529 
Q 3181 3475 3431 3366 
z
" transform="scale(0.015625)"/>
      <path id="DejaVuSans-99" d="M 4488 3438 
L 3059 2003 
L 4488 575 
L 4116 197 
L 2681 1631 
L 1247 197 
L 878 575 
L 2303 2003 
L 878 3438 
L 1247 3816 
L 2681 2381 
L 4116 3816 
L 4488 3438 
z
" transform="scale(0.015625)"/>
      <path id="DejaVuSans-Oblique-51" d="M 3566 2113 
L 3156 0 
L 2578 0 
L 2988 2091 
Q 3016 2238 3031 2350 
Q 3047 2463 3047 2528 
Q 3047 2791 2881 2937 
Q 2716 3084 2419 3084 
Q 1956 3084 1622 2776 
Q 1288 2469 1184 1941 
L 800 0 
L 225 0 
L 903 3500 
L 1478 3500 
L 1363 2950 
Q 1603 3253 1940 3418 
Q 2278 3584 2650 3584 
Q 3113 3584 3367 3334 
Q 3622 3084 3622 2631 
Q 3622 2519 3608 2391 
Q 3594 2263 3566 2113 
z
" transform="scale(0.015625)"/>
     </defs>
     <use xlink:href="#DejaVuSans-Oblique-ab2" transform="translate(0 0.665625)"/>
     <use xlink:href="#DejaVuSans-Oblique-57" transform="translate(41.308594 -14.334326) scale(0.7)"/>
     <use xlink:href="#DejaVuSans-1d" transform="translate(90.97168 0.665625)"/>
     <use xlink:href="#DejaVuSans-Oblique-39" transform="translate(144.145508 0.665625)"/>
     <use xlink:href="#DejaVuSans-Oblique-46" transform="translate(212.553711 -14.334326) scale(0.7)"/>
     <use xlink:href="#DejaVuSans-99" transform="translate(273.256836 0.665625)"/>
     <use xlink:href="#DejaVuSans-Oblique-39" transform="translate(376.52832 0.665625)"/>
     <use xlink:href="#DejaVuSans-Oblique-51" transform="translate(444.936523 -14.334326) scale(0.7)"/>
     <use xlink:href="#DejaVuSans-c1c" transform="translate(511.518555 0.665625)"/>
     <use xlink:href="#STIXGeneral-Italic-2dd" transform="translate(614.790039 0.665625)"/>
     <use xlink:href="#DejaVuSans-Oblique-27" transform="translate(689.441433 41.965625) scale(0.7)"/>
    </g>
    <!-- $[B,N,N,D]$ -->
    <g style="fill: #5b6472" transform="translate(336.2565 180.05745) scale(0.11 -0.11)">
     <use xlink:href="#DejaVuSans-3e" transform="translate(0 0.015625)"/>
     <use xlink:href="#DejaVuSans-Oblique-25" transform="translate(39.013672 0.015625)"/>
     <use xlink:href="#DejaVuSans-f" transform="translate(107.617188 0.015625)"/>
     <use xlink:href="#DejaVuSans-Oblique-31" transform="translate(158.886719 0.015625)"/>
     <use xlink:href="#DejaVuSans-f" transform="translate(233.691406 0.015625)"/>
     <use xlink:href="#DejaVuSans-Oblique-31" transform="translate(284.960938 0.015625)"/>
     <use xlink:href="#DejaVuSans-f" transform="translate(359.765625 0.015625)"/>
     <use xlink:href="#DejaVuSans-Oblique-27" transform="translate(411.035156 0.015625)"/>
     <use xlink:href="#DejaVuSans-40" transform="translate(488.037109 0.015625)"/>
    </g>
   </g>
   <g id="text_7">
    <!-- $L_t'=\mathcal{E}_\theta^{K}(L_t)$ -->
    <g style="fill: #111827" transform="translate(564.2065 142.299357) scale(0.16 -0.16)">
     <defs>
      <path id="Cmsy10-49" d="M 225 347 
Q 184 359 184 409 
L 966 3316 
Q 1003 3434 1093 3506 
Q 1184 3578 1300 3578 
Q 1450 3578 1564 3479 
Q 1678 3381 1678 3231 
Q 1678 3166 1644 3084 
L 488 319 
Q 466 275 428 275 
Q 394 275 320 306 
Q 247 338 225 347 
z
" transform="scale(0.015625)"/>
      <path id="DejaVuSans-Oblique-2e" d="M 1081 4666 
L 1716 4666 
L 1331 2700 
L 3781 4666 
L 4622 4666 
L 1850 2438 
L 3878 0 
L 3109 0 
L 1247 2272 
L 806 0 
L 172 0 
L 1081 4666 
z
" transform="scale(0.015625)"/>
     </defs>
     <use xlink:href="#DejaVuSans-Oblique-2f" transform="translate(0 0.215625)"/>
     <use xlink:href="#Cmsy10-49" transform="translate(62.729661 43.965625) scale(0.7)"/>
     <use xlink:href="#DejaVuSans-Oblique-57" transform="translate(55.712891 -30.1875) scale(0.7)"/>
     <use xlink:href="#DejaVuSans-20" transform="translate(105.375977 0.215625)"/>
     <use xlink:href="#STIXNonUnicode-Italic-77" transform="translate(208.647461 0.215625)"/>
     <use xlink:href="#DejaVuSans-Oblique-2e" transform="translate(264.904434 43.965625) scale(0.7)"/>
     <use xlink:href="#DejaVuSans-Oblique-34c" transform="translate(264.904434 -34.770312) scale(0.7)"/>
     <use xlink:href="#DejaVuSans-b" transform="translate(313.54213 0.215625)"/>
     <use xlink:href="#DejaVuSans-Oblique-2f" transform="translate(352.555801 0.215625)"/>
     <use xlink:href="#DejaVuSans-Oblique-57" transform="translate(408.268692 -14.784326) scale(0.7)"/>
     <use xlink:href="#DejaVuSans-c" transform="translate(438.449356 0.215625)"/>
    </g>
   </g>
   <g id="text_8">
    <!-- $K$ inner pair-evolution steps -->
    <g style="fill: #5b6472" transform="translate(526.8215 165.917724) scale(0.11 -0.11)">
     <defs>
      <path id="DejaVuSans-53" d="M 1159 525 
L 1159 -1331 
L 581 -1331 
L 581 3500 
L 1159 3500 
L 1159 2969 
Q 1341 3281 1617 3432 
Q 1894 3584 2278 3584 
Q 2916 3584 3314 3078 
Q 3713 2572 3713 1747 
Q 3713 922 3314 415 
Q 2916 -91 2278 -91 
Q 1894 -91 1617 61 
Q 1341 213 1159 525 
z
M 3116 1747 
Q 3116 2381 2855 2742 
Q 2594 3103 2138 3103 
Q 1681 3103 1420 2742 
Q 1159 2381 1159 1747 
Q 1159 1113 1420 752 
Q 1681 391 2138 391 
Q 2594 391 2855 752 
Q 3116 1113 3116 1747 
z
" transform="scale(0.015625)"/>
      <path id="DejaVuSans-10" d="M 313 2009 
L 1997 2009 
L 1997 1497 
L 313 1497 
L 313 2009 
z
" transform="scale(0.015625)"/>
      <path id="DejaVuSans-58" d="M 544 1381 
L 544 3500 
L 1119 3500 
L 1119 1403 
Q 1119 906 1312 657 
Q 1506 409 1894 409 
Q 2359 409 2629 706 
Q 2900 1003 2900 1516 
L 2900 3500 
L 3475 3500 
L 3475 0 
L 2900 0 
L 2900 538 
Q 2691 219 2414 64 
Q 2138 -91 1772 -91 
Q 1169 -91 856 284 
Q 544 659 544 1381 
z
M 1991 3584 
L 1991 3584 
z
" transform="scale(0.015625)"/>
     </defs>
     <use xlink:href="#DejaVuSans-Oblique-2e" transform="translate(0 0.015625)"/>
     <use xlink:href="#DejaVuSans-3" transform="translate(65.576172 0.015625)"/>
     <use xlink:href="#DejaVuSans-4c" transform="translate(97.363281 0.015625)"/>
     <use xlink:href="#DejaVuSans-51" transform="translate(125.146484 0.015625)"/>
     <use xlink:href="#DejaVuSans-51" transform="translate(188.525391 0.015625)"/>
     <use xlink:href="#DejaVuSans-48" transform="translate(251.904297 0.015625)"/>
     <use xlink:href="#DejaVuSans-55" transform="translate(313.427734 0.015625)"/>
     <use xlink:href="#DejaVuSans-3" transform="translate(354.541016 0.015625)"/>
     <use xlink:href="#DejaVuSans-53" transform="translate(386.328125 0.015625)"/>
     <use xlink:href="#DejaVuSans-44" transform="translate(449.804688 0.015625)"/>
     <use xlink:href="#DejaVuSans-4c" transform="translate(511.083984 0.015625)"/>
     <use xlink:href="#DejaVuSans-55" transform="translate(538.867188 0.015625)"/>
     <use xlink:href="#DejaVuSans-10" transform="translate(573.980469 0.015625)"/>
     <use xlink:href="#DejaVuSans-48" transform="translate(610.064453 0.015625)"/>
     <use xlink:href="#DejaVuSans-59" transform="translate(671.587891 0.015625)"/>
     <use xlink:href="#DejaVuSans-52" transform="translate(730.767578 0.015625)"/>
     <use xlink:href="#DejaVuSans-4f" transform="translate(791.949219 0.015625)"/>
     <use xlink:href="#DejaVuSans-58" transform="translate(819.732422 0.015625)"/>
     <use xlink:href="#DejaVuSans-57" transform="translate(883.111328 0.015625)"/>
     <use xlink:href="#DejaVuSans-4c" transform="translate(922.320312 0.015625)"/>
     <use xlink:href="#DejaVuSans-52" transform="translate(950.103516 0.015625)"/>
     <use xlink:href="#DejaVuSans-51" transform="translate(1011.285156 0.015625)"/>
     <use xlink:href="#DejaVuSans-3" transform="translate(1074.664062 0.015625)"/>
     <use xlink:href="#DejaVuSans-56" transform="translate(1106.451172 0.015625)"/>
     <use xlink:href="#DejaVuSans-57" transform="translate(1158.550781 0.015625)"/>
     <use xlink:href="#DejaVuSans-48" transform="translate(1197.759766 0.015625)"/>
     <use xlink:href="#DejaVuSans-53" transform="translate(1259.283203 0.015625)"/>
     <use xlink:href="#DejaVuSans-56" transform="translate(1322.759766 0.015625)"/>
    </g>
    <!-- semantic $[B,N,N,N,D]$ pairs -->
    <g style="fill: #5b6472" transform="translate(524.2915 179.12245) scale(0.11 -0.11)">
     <defs>
      <path id="DejaVuSans-50" d="M 3328 2828 
Q 3544 3216 3844 3400 
Q 4144 3584 4550 3584 
Q 5097 3584 5394 3201 
Q 5691 2819 5691 2113 
L 5691 0 
L 5113 0 
L 5113 2094 
Q 5113 2597 4934 2840 
Q 4756 3084 4391 3084 
Q 3944 3084 3684 2787 
Q 3425 2491 3425 1978 
L 3425 0 
L 2847 0 
L 2847 2094 
Q 2847 2600 2669 2842 
Q 2491 3084 2119 3084 
Q 1678 3084 1418 2786 
Q 1159 2488 1159 1978 
L 1159 0 
L 581 0 
L 581 3500 
L 1159 3500 
L 1159 2956 
Q 1356 3278 1631 3431 
Q 1906 3584 2284 3584 
Q 2666 3584 2933 3390 
Q 3200 3197 3328 2828 
z
" transform="scale(0.015625)"/>
     </defs>
     <use xlink:href="#DejaVuSans-56" transform="translate(0 0.015625)"/>
     <use xlink:href="#DejaVuSans-48" transform="translate(52.099609 0.015625)"/>
     <use xlink:href="#DejaVuSans-50" transform="translate(113.623047 0.015625)"/>
     <use xlink:href="#DejaVuSans-44" transform="translate(211.035156 0.015625)"/>
     <use xlink:href="#DejaVuSans-51" transform="translate(272.314453 0.015625)"/>
     <use xlink:href="#DejaVuSans-57" transform="translate(335.693359 0.015625)"/>
     <use xlink:href="#DejaVuSans-4c" transform="translate(374.902344 0.015625)"/>
     <use xlink:href="#DejaVuSans-46" transform="translate(402.685547 0.015625)"/>
     <use xlink:href="#DejaVuSans-3" transform="translate(457.666016 0.015625)"/>
     <use xlink:href="#DejaVuSans-3e" transform="translate(489.453125 0.015625)"/>
     <use xlink:href="#DejaVuSans-Oblique-25" transform="translate(528.466797 0.015625)"/>
     <use xlink:href="#DejaVuSans-f" transform="translate(597.070312 0.015625)"/>
     <use xlink:href="#DejaVuSans-Oblique-31" transform="translate(648.339844 0.015625)"/>
     <use xlink:href="#DejaVuSans-f" transform="translate(723.144531 0.015625)"/>
     <use xlink:href="#DejaVuSans-Oblique-31" transform="translate(774.414062 0.015625)"/>
     <use xlink:href="#DejaVuSans-f" transform="translate(849.21875 0.015625)"/>
     <use xlink:href="#DejaVuSans-Oblique-31" transform="translate(900.488281 0.015625)"/>
     <use xlink:href="#DejaVuSans-f" transform="translate(975.292969 0.015625)"/>
     <use xlink:href="#DejaVuSans-Oblique-27" transform="translate(1026.5625 0.015625)"/>
     <use xlink:href="#DejaVuSans-40" transform="translate(1103.564453 0.015625)"/>
     <use xlink:href="#DejaVuSans-3" transform="translate(1142.578125 0.015625)"/>
     <use xlink:href="#DejaVuSans-53" transform="translate(1174.365234 0.015625)"/>
     <use xlink:href="#DejaVuSans-44" transform="translate(1237.841797 0.015625)"/>
     <use xlink:href="#DejaVuSans-4c" transform="translate(1299.121094 0.015625)"/>
     <use xlink:href="#DejaVuSans-55" transform="translate(1326.904297 0.015625)"/>
     <use xlink:href="#DejaVuSans-56" transform="translate(1368.017578 0.015625)"/>
    </g>
   </g>
   <g id="text_9">
    <!-- $H_{t+1}=\rho_\theta(\mathrm{diag}\,L_t')$ -->
    <g style="fill: #111827" transform="translate(770.4765 141.739357) scale(0.16 -0.16)">
     <defs>
      <path id="DejaVuSans-Oblique-355" d="M 1203 2875 
Q 1453 3194 1981 3475 
Q 2188 3584 2756 3584 
Q 3394 3584 3694 3078 
Q 3994 2572 3834 1747 
Q 3672 922 3175 415 
Q 2678 -91 2041 -91 
Q 1656 -91 1409 63 
Q 1163 213 1044 525 
L 681 -1331 
L 103 -1331 
L 697 1716 
Q 838 2438 1203 2875 
z
M 3238 1747 
Q 3359 2381 3169 2744 
Q 2978 3103 2522 3103 
Q 2066 3103 1734 2744 
Q 1403 2381 1281 1747 
Q 1156 1113 1347 750 
Q 1538 391 1994 391 
Q 2450 391 2781 750 
Q 3113 1113 3238 1747 
z
" transform="scale(0.015625)"/>
      <path id="DejaVuSans-4a" d="M 2906 1791 
Q 2906 2416 2648 2759 
Q 2391 3103 1925 3103 
Q 1463 3103 1205 2759 
Q 947 2416 947 1791 
Q 947 1169 1205 825 
Q 1463 481 1925 481 
Q 2391 481 2648 825 
Q 2906 1169 2906 1791 
z
M 3481 434 
Q 3481 -459 3084 -895 
Q 2688 -1331 1869 -1331 
Q 1566 -1331 1297 -1286 
Q 1028 -1241 775 -1147 
L 775 -588 
Q 1028 -725 1275 -790 
Q 1522 -856 1778 -856 
Q 2344 -856 2625 -561 
Q 2906 -266 2906 331 
L 2906 616 
Q 2728 306 2450 153 
Q 2172 0 1784 0 
Q 1141 0 747 490 
Q 353 981 353 1791 
Q 353 2603 747 3093 
Q 1141 3584 1784 3584 
Q 2172 3584 2450 3431 
Q 2728 3278 2906 2969 
L 2906 3500 
L 3481 3500 
L 3481 434 
z
" transform="scale(0.015625)"/>
     </defs>
     <use xlink:href="#DejaVuSans-Oblique-2b" transform="translate(0 0.115625)"/>
     <use xlink:href="#DejaVuSans-Oblique-57" transform="translate(75.195312 -14.884326) scale(0.7)"/>
     <use xlink:href="#DejaVuSans-e" transform="translate(116.279297 -14.884326) scale(0.7)"/>
     <use xlink:href="#DejaVuSans-14" transform="translate(188.569336 -14.884326) scale(0.7)"/>
     <use xlink:href="#DejaVuSans-20" transform="translate(255.322266 0.115625)"/>
     <use xlink:href="#DejaVuSans-Oblique-355" transform="translate(358.59375 0.115625)"/>
     <use xlink:href="#DejaVuSans-Oblique-34c" transform="translate(422.070312 -14.884326) scale(0.7)"/>
     <use xlink:href="#DejaVuSans-b" transform="translate(467.631836 0.115625)"/>
     <use xlink:href="#DejaVuSans-47" transform="translate(506.645508 0.115625)"/>
     <use xlink:href="#DejaVuSans-4c" transform="translate(570.12207 0.115625)"/>
     <use xlink:href="#DejaVuSans-44" transform="translate(597.905273 0.115625)"/>
     <use xlink:href="#DejaVuSans-4a" transform="translate(659.18457 0.115625)"/>
     <use xlink:href="#DejaVuSans-Oblique-2f" transform="translate(738.896809 0.115625)"/>
     <use xlink:href="#Cmsy10-49" transform="translate(801.626471 43.865625) scale(0.7)"/>
     <use xlink:href="#DejaVuSans-Oblique-57" transform="translate(794.6097 -30.2875) scale(0.7)"/>
     <use xlink:href="#DejaVuSans-c" transform="translate(824.790364 0.115625)"/>
    </g>
   </g>
   <g id="text_10">
    <!-- center extraction -->
    <g style="fill: #5b6472" transform="translate(792.262984 164.928153) scale(0.11 -0.11)">
     <use xlink:href="#DejaVuSans-46"/>
     <use xlink:href="#DejaVuSans-48" transform="translate(54.984375 0)"/>
     <use xlink:href="#DejaVuSans-51" transform="translate(116.515625 0)"/>
     <use xlink:href="#DejaVuSans-57" transform="translate(179.890625 0)"/>
     <use xlink:href="#DejaVuSans-48" transform="translate(219.09375 0)"/>
     <use xlink:href="#DejaVuSans-55" transform="translate(280.625 0)"/>
     <use xlink:href="#DejaVuSans-3" transform="translate(321.734375 0)"/>
     <use xlink:href="#DejaVuSans-48" transform="translate(353.515625 0)"/>
     <use xlink:href="#DejaVuSans-5b" transform="translate(413.296875 0)"/>
     <use xlink:href="#DejaVuSans-57" transform="translate(472.484375 0)"/>
     <use xlink:href="#DejaVuSans-55" transform="translate(511.6875 0)"/>
     <use xlink:href="#DejaVuSans-44" transform="translate(552.796875 0)"/>
     <use xlink:href="#DejaVuSans-46" transform="translate(614.078125 0)"/>
     <use xlink:href="#DejaVuSans-57" transform="translate(669.0625 0)"/>
     <use xlink:href="#DejaVuSans-4c" transform="translate(708.265625 0)"/>
     <use xlink:href="#DejaVuSans-52" transform="translate(736.046875 0)"/>
     <use xlink:href="#DejaVuSans-51" transform="translate(797.234375 0)"/>
    </g>
    <!-- $\ell_i'(i)\mapsto h_{t+1}(i)$ -->
    <g style="fill: #5b6472" transform="translate(805.0015 178.90288) scale(0.11 -0.11)">
     <defs>
      <path id="DejaVuSans-Oblique-4c" d="M 1172 4863 
L 1747 4863 
L 1606 4134 
L 1031 4134 
L 1172 4863 
z
M 909 3500 
L 1484 3500 
L 800 0 
L 225 0 
L 909 3500 
z
" transform="scale(0.015625)"/>
      <path id="DejaVuSans-c30" d="M 4175 1741 
L 897 1741 
L 897 663 
L 366 663 
L 366 3350 
L 897 3350 
L 897 2272 
L 4175 2272 
L 3447 3000 
L 3822 3375 
L 5050 2147 
L 5050 1866 
L 3822 638 
L 3447 1013 
L 4175 1741 
z
" transform="scale(0.015625)"/>
     </defs>
     <use xlink:href="#DejaVuSans-Oblique-ab2" transform="translate(0 0.115625)"/>
     <use xlink:href="#Cmsy10-49" transform="translate(48.509115 43.865625) scale(0.7)"/>
     <use xlink:href="#DejaVuSans-Oblique-4c" transform="translate(41.308594 -34.323437) scale(0.7)"/>
     <use xlink:href="#DejaVuSans-b" transform="translate(70.486654 0.115625)"/>
     <use xlink:href="#DejaVuSans-Oblique-4c" transform="translate(109.500326 0.115625)"/>
     <use xlink:href="#DejaVuSans-c" transform="translate(137.283529 0.115625)"/>
     <use xlink:href="#DejaVuSans-c30" transform="translate(195.779622 0.115625)"/>
     <use xlink:href="#DejaVuSans-Oblique-4b" transform="translate(299.051107 0.115625)"/>
     <use xlink:href="#DejaVuSans-Oblique-57" transform="translate(362.430013 -14.884326) scale(0.7)"/>
     <use xlink:href="#DejaVuSans-e" transform="translate(403.513997 -14.884326) scale(0.7)"/>
     <use xlink:href="#DejaVuSans-14" transform="translate(475.804036 -14.884326) scale(0.7)"/>
     <use xlink:href="#DejaVuSans-b" transform="translate(523.074544 0.115625)"/>
     <use xlink:href="#DejaVuSans-Oblique-4c" transform="translate(562.088216 0.115625)"/>
     <use xlink:href="#DejaVuSans-c" transform="translate(589.871419 0.115625)"/>
    </g>
   </g>
   <g id="text_11">
    <g id="patch_11">
     <path d="M 238.7915 96.03992 
L 254.6515 96.03992 
Q 256.9915 96.03992 256.9915 93.69992 
L 256.9915 80.69992 
Q 256.9915 78.35992 254.6515 78.35992 
L 238.7915 78.35992 
Q 236.4515 78.35992 236.4515 80.69992 
L 236.4515 93.69992 
Q 236.4515 96.03992 238.7915 96.03992 
z
" style="fill: #fcfcfd"/>
    </g>
    <!-- $\Pi_\theta$ -->
    <g style="fill: #009988" transform="translate(238.7915 90.576873) scale(0.13 -0.13)">
     <use xlink:href="#DejaVuSans-335" transform="translate(0 0.09375)"/>
     <use xlink:href="#DejaVuSans-Oblique-34c" transform="translate(76.152344 -14.906201) scale(0.7)"/>
    </g>
   </g>
   <g id="text_12">
    <g id="patch_12">
     <path d="M 477.0465 98.05492 
L 490.6965 98.05492 
Q 493.0365 98.05492 493.0365 95.71492 
L 493.0365 78.68492 
Q 493.0365 76.34492 490.6965 76.34492 
L 477.0465 76.34492 
Q 474.7065 76.34492 474.7065 78.68492 
L 474.7065 95.71492 
Q 474.7065 98.05492 477.0465 98.05492 
z
" style="fill: #fcfcfd"/>
    </g>
    <!-- $\mathcal{E}_\theta^K$ -->
    <g style="fill: #ee7733" transform="translate(477.0465 91.03492) scale(0.13 -0.13)">
     <use xlink:href="#STIXNonUnicode-Italic-77" transform="translate(0 0.215625)"/>
     <use xlink:href="#DejaVuSans-Oblique-2e" transform="translate(56.256973 43.965625) scale(0.7)"/>
     <use xlink:href="#DejaVuSans-Oblique-34c" transform="translate(56.256973 -34.770312) scale(0.7)"/>
    </g>
   </g>
   <g id="text_13">
    <g id="patch_13">
     <path d="M 693.2665 96.041443 
L 748.7765 96.041443 
Q 751.1165 96.041443 751.1165 93.701443 
L 751.1165 80.698397 
Q 751.1165 78.358397 748.7765 78.358397 
L 693.2665 78.358397 
Q 690.9265 78.358397 690.9265 80.698397 
L 690.9265 93.701443 
Q 690.9265 96.041443 693.2665 96.041443 
z
" style="fill: #fcfcfd"/>
    </g>
    <!-- $\rho_\theta\circ\mathrm{diag}$ -->
    <g style="fill: #cc3377" transform="translate(693.2665 90.578397) scale(0.13 -0.13)">
     <defs>
      <path id="DejaVuSans-ca2" d="M 2003 2603 
Q 1753 2603 1581 2429 
Q 1409 2256 1409 2006 
Q 1409 1759 1581 1589 
Q 1753 1419 2003 1419 
Q 2253 1419 2425 1589 
Q 2597 1759 2597 2006 
Q 2597 2253 2423 2428 
Q 2250 2603 2003 2603 
z
M 2003 3006 
Q 2203 3006 2387 2929 
Q 2572 2853 2706 2709 
Q 2850 2569 2922 2390 
Q 2994 2212 2994 2006 
Q 2994 1594 2705 1308 
Q 2416 1022 1997 1022 
Q 1575 1022 1293 1303 
Q 1012 1584 1012 2006 
Q 1012 2425 1299 2715 
Q 1587 3006 2003 3006 
z
" transform="scale(0.015625)"/>
     </defs>
     <use xlink:href="#DejaVuSans-Oblique-355" transform="translate(0 0.015625)"/>
     <use xlink:href="#DejaVuSans-Oblique-34c" transform="translate(63.476562 -14.984326) scale(0.7)"/>
     <use xlink:href="#DejaVuSans-ca2" transform="translate(128.520508 0.015625)"/>
     <use xlink:href="#DejaVuSans-47" transform="translate(210.600586 0.015625)"/>
     <use xlink:href="#DejaVuSans-4c" transform="translate(274.077148 0.015625)"/>
     <use xlink:href="#DejaVuSans-44" transform="translate(301.860352 0.015625)"/>
     <use xlink:href="#DejaVuSans-4a" transform="translate(363.139648 0.015625)"/>
    </g>
   </g>
   <g id="text_14">
    <!-- outer recursion: reuse $H_{t+1}$ as the next world state -->
    <g style="fill: #7a5af8" transform="translate(340.7 228.314903) scale(0.11 -0.11)">
     <use xlink:href="#DejaVuSans-52" transform="translate(0 0.015625)"/>
     <use xlink:href="#DejaVuSans-58" transform="translate(61.181641 0.015625)"/>
     <use xlink:href="#DejaVuSans-57" transform="translate(124.560547 0.015625)"/>
     <use xlink:href="#DejaVuSans-48" transform="translate(163.769531 0.015625)"/>
     <use xlink:href="#DejaVuSans-55" transform="translate(225.292969 0.015625)"/>
     <use xlink:href="#DejaVuSans-3" transform="translate(266.40625 0.015625)"/>
     <use xlink:href="#DejaVuSans-55" transform="translate(298.193359 0.015625)"/>
     <use xlink:href="#DejaVuSans-48" transform="translate(337.306641 0.015625)"/>
     <use xlink:href="#DejaVuSans-46" transform="translate(398.830078 0.015625)"/>
     <use xlink:href="#DejaVuSans-58" transform="translate(453.810547 0.015625)"/>
     <use xlink:href="#DejaVuSans-55" transform="translate(517.189453 0.015625)"/>
     <use xlink:href="#DejaVuSans-56" transform="translate(558.302734 0.015625)"/>
     <use xlink:href="#DejaVuSans-4c" transform="translate(610.402344 0.015625)"/>
     <use xlink:href="#DejaVuSans-52" transform="translate(638.185547 0.015625)"/>
     <use xlink:href="#DejaVuSans-51" transform="translate(699.367188 0.015625)"/>
     <use xlink:href="#DejaVuSans-1d" transform="translate(762.746094 0.015625)"/>
     <use xlink:href="#DejaVuSans-3" transform="translate(796.4375 0.015625)"/>
     <use xlink:href="#DejaVuSans-55" transform="translate(828.224609 0.015625)"/>
     <use xlink:href="#DejaVuSans-48" transform="translate(867.337891 0.015625)"/>
     <use xlink:href="#DejaVuSans-58" transform="translate(928.861328 0.015625)"/>
     <use xlink:href="#DejaVuSans-56" transform="translate(992.240234 0.015625)"/>
     <use xlink:href="#DejaVuSans-48" transform="translate(1044.339844 0.015625)"/>
     <use xlink:href="#DejaVuSans-3" transform="translate(1105.863281 0.015625)"/>
     <use xlink:href="#DejaVuSans-Oblique-2b" transform="translate(1137.650391 0.015625)"/>
     <use xlink:href="#DejaVuSans-Oblique-57" transform="translate(1212.845703 -14.984326) scale(0.7)"/>
     <use xlink:href="#DejaVuSans-e" transform="translate(1253.929688 -14.984326) scale(0.7)"/>
     <use xlink:href="#DejaVuSans-14" transform="translate(1326.219727 -14.984326) scale(0.7)"/>
     <use xlink:href="#DejaVuSans-3" transform="translate(1373.490234 0.015625)"/>
     <use xlink:href="#DejaVuSans-44" transform="translate(1405.277344 0.015625)"/>
     <use xlink:href="#DejaVuSans-56" transform="translate(1466.556641 0.015625)"/>
     <use xlink:href="#DejaVuSans-3" transform="translate(1518.65625 0.015625)"/>
     <use xlink:href="#DejaVuSans-57" transform="translate(1550.443359 0.015625)"/>
     <use xlink:href="#DejaVuSans-4b" transform="translate(1589.652344 0.015625)"/>
     <use xlink:href="#DejaVuSans-48" transform="translate(1653.03125 0.015625)"/>
     <use xlink:href="#DejaVuSans-3" transform="translate(1714.554688 0.015625)"/>
     <use xlink:href="#DejaVuSans-51" transform="translate(1746.341797 0.015625)"/>
     <use xlink:href="#DejaVuSans-48" transform="translate(1809.720703 0.015625)"/>
     <use xlink:href="#DejaVuSans-5b" transform="translate(1869.244141 0.015625)"/>
     <use xlink:href="#DejaVuSans-57" transform="translate(1928.423828 0.015625)"/>
     <use xlink:href="#DejaVuSans-3" transform="translate(1967.632812 0.015625)"/>
     <use xlink:href="#DejaVuSans-5a" transform="translate(1999.419922 0.015625)"/>
     <use xlink:href="#DejaVuSans-52" transform="translate(2081.207031 0.015625)"/>
     <use xlink:href="#DejaVuSans-55" transform="translate(2142.388672 0.015625)"/>
     <use xlink:href="#DejaVuSans-4f" transform="translate(2183.501953 0.015625)"/>
     <use xlink:href="#DejaVuSans-47" transform="translate(2211.285156 0.015625)"/>
     <use xlink:href="#DejaVuSans-3" transform="translate(2274.761719 0.015625)"/>
     <use xlink:href="#DejaVuSans-56" transform="translate(2306.548828 0.015625)"/>
     <use xlink:href="#DejaVuSans-57" transform="translate(2358.648438 0.015625)"/>
     <use xlink:href="#DejaVuSans-44" transform="translate(2397.857422 0.015625)"/>
     <use xlink:href="#DejaVuSans-57" transform="translate(2459.136719 0.015625)"/>
     <use xlink:href="#DejaVuSans-48" transform="translate(2498.345703 0.015625)"/>
    </g>
   </g>
   <g id="text_15">
    <!-- Inner local-world pair update, for each center $i\in V$ and receiver $r\in V$: -->
    <g style="fill: #111827" transform="translate(102.06 287.241394) scale(0.12 -0.12)">
     <defs>
      <path id="DejaVuSans-2c" d="M 628 4666 
L 1259 4666 
L 1259 0 
L 628 0 
L 628 4666 
z
" transform="scale(0.015625)"/>
      <path id="DejaVuSans-49" d="M 2375 4863 
L 2375 4384 
L 1825 4384 
Q 1516 4384 1395 4259 
Q 1275 4134 1275 3809 
L 1275 3500 
L 2222 3500 
L 2222 3053 
L 1275 3053 
L 1275 0 
L 697 0 
L 697 3053 
L 147 3053 
L 147 3500 
L 697 3500 
L 697 3744 
Q 697 4328 969 4595 
Q 1241 4863 1831 4863 
L 2375 4863 
z
" transform="scale(0.015625)"/>
      <path id="DejaVuSans-c92" d="M 1072 1959 
Q 1094 1728 1291 1353 
Q 1522 919 1959 675 
Q 2388 438 2850 434 
L 5028 434 
L 5028 -63 
L 2850 -63 
Q 2250 -63 1695 246 
Q 1141 556 844 1106 
Q 547 1656 547 2241 
Q 547 2819 844 3369 
Q 1141 3919 1695 4231 
Q 2250 4544 2850 4544 
L 5028 4544 
L 5028 4047 
L 2850 4047 
Q 2388 4044 1959 3803 
Q 1525 3556 1291 3125 
Q 1091 2750 1063 2459 
L 5028 2459 
L 5028 1959 
L 1072 1959 
z
" transform="scale(0.015625)"/>
      <path id="DejaVuSans-Oblique-55" d="M 2853 2969 
Q 2766 3016 2653 3041 
Q 2541 3066 2413 3066 
Q 1953 3066 1609 2717 
Q 1266 2369 1153 1784 
L 800 0 
L 225 0 
L 909 3500 
L 1484 3500 
L 1375 2956 
Q 1603 3259 1920 3421 
Q 2238 3584 2597 3584 
Q 2691 3584 2781 3573 
Q 2872 3563 2963 3538 
L 2853 2969 
z
" transform="scale(0.015625)"/>
     </defs>
     <use xlink:href="#DejaVuSans-2c" transform="translate(0 0.015625)"/>
     <use xlink:href="#DejaVuSans-51" transform="translate(29.492188 0.015625)"/>
     <use xlink:href="#DejaVuSans-51" transform="translate(92.871094 0.015625)"/>
     <use xlink:href="#DejaVuSans-48" transform="translate(156.25 0.015625)"/>
     <use xlink:href="#DejaVuSans-55" transform="translate(217.773438 0.015625)"/>
     <use xlink:href="#DejaVuSans-3" transform="translate(258.886719 0.015625)"/>
     <use xlink:href="#DejaVuSans-4f" transform="translate(290.673828 0.015625)"/>
     <use xlink:href="#DejaVuSans-52" transform="translate(318.457031 0.015625)"/>
     <use xlink:href="#DejaVuSans-46" transform="translate(379.638672 0.015625)"/>
     <use xlink:href="#DejaVuSans-44" transform="translate(434.619141 0.015625)"/>
     <use xlink:href="#DejaVuSans-4f" transform="translate(495.898438 0.015625)"/>
     <use xlink:href="#DejaVuSans-10" transform="translate(523.681641 0.015625)"/>
     <use xlink:href="#DejaVuSans-5a" transform="translate(559.765625 0.015625)"/>
     <use xlink:href="#DejaVuSans-52" transform="translate(641.552734 0.015625)"/>
     <use xlink:href="#DejaVuSans-55" transform="translate(702.734375 0.015625)"/>
     <use xlink:href="#DejaVuSans-4f" transform="translate(743.847656 0.015625)"/>
     <use xlink:href="#DejaVuSans-47" transform="translate(771.630859 0.015625)"/>
     <use xlink:href="#DejaVuSans-3" transform="translate(835.107422 0.015625)"/>
     <use xlink:href="#DejaVuSans-53" transform="translate(866.894531 0.015625)"/>
     <use xlink:href="#DejaVuSans-44" transform="translate(930.371094 0.015625)"/>
     <use xlink:href="#DejaVuSans-4c" transform="translate(991.650391 0.015625)"/>
     <use xlink:href="#DejaVuSans-55" transform="translate(1019.433594 0.015625)"/>
     <use xlink:href="#DejaVuSans-3" transform="translate(1060.546875 0.015625)"/>
     <use xlink:href="#DejaVuSans-58" transform="translate(1092.333984 0.015625)"/>
     <use xlink:href="#DejaVuSans-53" transform="translate(1155.712891 0.015625)"/>
     <use xlink:href="#DejaVuSans-47" transform="translate(1219.189453 0.015625)"/>
     <use xlink:href="#DejaVuSans-44" transform="translate(1282.666016 0.015625)"/>
     <use xlink:href="#DejaVuSans-57" transform="translate(1343.945312 0.015625)"/>
     <use xlink:href="#DejaVuSans-48" transform="translate(1383.154297 0.015625)"/>
     <use xlink:href="#DejaVuSans-f" transform="translate(1444.677734 0.015625)"/>
     <use xlink:href="#DejaVuSans-3" transform="translate(1476.464844 0.015625)"/>
     <use xlink:href="#DejaVuSans-49" transform="translate(1508.251953 0.015625)"/>
     <use xlink:href="#DejaVuSans-52" transform="translate(1543.457031 0.015625)"/>
     <use xlink:href="#DejaVuSans-55" transform="translate(1604.638672 0.015625)"/>
     <use xlink:href="#DejaVuSans-3" transform="translate(1645.751953 0.015625)"/>
     <use xlink:href="#DejaVuSans-48" transform="translate(1677.539062 0.015625)"/>
     <use xlink:href="#DejaVuSans-44" transform="translate(1739.0625 0.015625)"/>
     <use xlink:href="#DejaVuSans-46" transform="translate(1800.341797 0.015625)"/>
     <use xlink:href="#DejaVuSans-4b" transform="translate(1855.322266 0.015625)"/>
     <use xlink:href="#DejaVuSans-3" transform="translate(1918.701172 0.015625)"/>
     <use xlink:href="#DejaVuSans-46" transform="translate(1950.488281 0.015625)"/>
     <use xlink:href="#DejaVuSans-48" transform="translate(2005.46875 0.015625)"/>
     <use xlink:href="#DejaVuSans-51" transform="translate(2066.992188 0.015625)"/>
     <use xlink:href="#DejaVuSans-57" transform="translate(2130.371094 0.015625)"/>
     <use xlink:href="#DejaVuSans-48" transform="translate(2169.580078 0.015625)"/>
     <use xlink:href="#DejaVuSans-55" transform="translate(2231.103516 0.015625)"/>
     <use xlink:href="#DejaVuSans-3" transform="translate(2272.216797 0.015625)"/>
     <use xlink:href="#DejaVuSans-Oblique-4c" transform="translate(2304.003906 0.015625)"/>
     <use xlink:href="#DejaVuSans-c92" transform="translate(2351.269531 0.015625)"/>
     <use xlink:href="#DejaVuSans-Oblique-39" transform="translate(2457.861328 0.015625)"/>
     <use xlink:href="#DejaVuSans-3" transform="translate(2526.269531 0.015625)"/>
     <use xlink:href="#DejaVuSans-44" transform="translate(2558.056641 0.015625)"/>
     <use xlink:href="#DejaVuSans-51" transform="translate(2619.335938 0.015625)"/>
     <use xlink:href="#DejaVuSans-47" transform="translate(2682.714844 0.015625)"/>
     <use xlink:href="#DejaVuSans-3" transform="translate(2746.191406 0.015625)"/>
     <use xlink:href="#DejaVuSans-55" transform="translate(2777.978516 0.015625)"/>
     <use xlink:href="#DejaVuSans-48" transform="translate(2817.091797 0.015625)"/>
     <use xlink:href="#DejaVuSans-46" transform="translate(2878.615234 0.015625)"/>
     <use xlink:href="#DejaVuSans-48" transform="translate(2933.595703 0.015625)"/>
     <use xlink:href="#DejaVuSans-4c" transform="translate(2995.119141 0.015625)"/>
     <use xlink:href="#DejaVuSans-59" transform="translate(3022.902344 0.015625)"/>
     <use xlink:href="#DejaVuSans-48" transform="translate(3082.082031 0.015625)"/>
     <use xlink:href="#DejaVuSans-55" transform="translate(3143.605469 0.015625)"/>
     <use xlink:href="#DejaVuSans-3" transform="translate(3184.71875 0.015625)"/>
     <use xlink:href="#DejaVuSans-Oblique-55" transform="translate(3216.505859 0.015625)"/>
     <use xlink:href="#DejaVuSans-c92" transform="translate(3277.101562 0.015625)"/>
     <use xlink:href="#DejaVuSans-Oblique-39" transform="translate(3383.693359 0.015625)"/>
     <use xlink:href="#DejaVuSans-1d" transform="translate(3452.101562 0.015625)"/>
    </g>
   </g>
   <g id="text_16">
    <!-- $\ell_i^{k+1}(r)=\ell_i^{k}(r)+\sum_{s\in V} A_{rs}\,\phi_\theta\!\left(\ell_i^{k}(r),\ell_i^{k}(s),e_{rs}\right)$ -->
    <g style="fill: #111827" transform="translate(302.94 325.5084) scale(0.18 -0.18)">
     <defs>
      <path id="DejaVuSans-Oblique-4e" d="M 1172 4863 
L 1747 4863 
L 1197 2028 
L 3169 3500 
L 3916 3500 
L 1716 1825 
L 3322 0 
L 2625 0 
L 1131 1709 
L 800 0 
L 225 0 
L 1172 4863 
z
" transform="scale(0.015625)"/>
      <path id="DejaVuSansDisplay-10" d="M 244 6509 
L 5803 6509 
L 5803 5656 
L 1566 5656 
L 4534 2488 
L 1469 -888 
L 5919 -888 
L 5919 -1738 
L 109 -1738 
L 109 -1078 
L 3316 2463 
L 244 5728 
L 244 6509 
z
" transform="scale(0.015625)"/>
      <path id="DejaVuSans-Oblique-56" d="M 3200 3397 
L 3091 2853 
Q 2863 2978 2609 3040 
Q 2356 3103 2088 3103 
Q 1634 3103 1373 2948 
Q 1113 2794 1113 2528 
Q 1113 2219 1719 2053 
Q 1766 2041 1788 2034 
L 1972 1978 
Q 2547 1819 2739 1644 
Q 2931 1469 2931 1166 
Q 2931 609 2489 259 
Q 2047 -91 1331 -91 
Q 1053 -91 747 -37 
Q 441 16 72 128 
L 184 722 
Q 500 559 806 475 
Q 1113 391 1394 391 
Q 1816 391 2080 572 
Q 2344 753 2344 1031 
Q 2344 1331 1650 1516 
L 1591 1531 
L 1394 1581 
Q 956 1697 753 1886 
Q 550 2075 550 2369 
Q 550 2928 970 3256 
Q 1391 3584 2113 3584 
Q 2397 3584 2667 3537 
Q 2938 3491 3200 3397 
z
" transform="scale(0.015625)"/>
      <path id="DejaVuSans-Oblique-24" d="M 2356 4666 
L 3072 4666 
L 3938 0 
L 3278 0 
L 3084 1197 
L 984 1197 
L 325 0 
L -341 0 
L 2356 4666 
z
M 2584 4044 
L 1275 1722 
L 2988 1722 
L 2584 4044 
z
" transform="scale(0.015625)"/>
      <path id="DejaVuSans-Oblique-369" d="M 2991 4863 
L 2738 3572 
Q 3363 3572 3684 3094 
Q 4016 2606 3850 1747 
Q 3681 888 3159 400 
Q 2653 -78 2028 -78 
L 1784 -1331 
L 1213 -1331 
L 1456 -78 
Q 834 -78 509 400 
Q 178 888 347 1747 
Q 513 2606 1034 3094 
Q 1544 3572 2166 3572 
L 2419 4863 
L 2991 4863 
z
M 2128 434 
Q 2481 434 2784 756 
Q 3116 1116 3244 1747 
Q 3369 2372 3169 2738 
Q 2991 3059 2638 3059 
L 2128 434 
z
M 1556 434 
L 2066 3059 
Q 1716 3059 1413 2738 
Q 1072 2372 953 1747 
Q 834 1116 1028 756 
Q 1203 434 1556 434 
z
" transform="scale(0.015625)"/>
      <path id="STIXSizeOneSym-Regular-4" d="M 2445 -858 
L 2445 -1050 
Q 1728 -371 1309 630 
Q 890 1632 890 2886 
Q 890 4122 1309 5136 
Q 1728 6150 2445 6822 
L 2445 6630 
Q 1408 5363 1408 2886 
Q 1408 410 2445 -858 
z
" transform="scale(0.015625)"/>
      <path id="DejaVuSans-Oblique-48" d="M 3078 2063 
Q 3088 2113 3092 2166 
Q 3097 2219 3097 2272 
Q 3097 2653 2873 2875 
Q 2650 3097 2266 3097 
Q 1838 3097 1509 2826 
Q 1181 2556 1013 2059 
L 3078 2063 
z
M 3578 1613 
L 903 1613 
Q 884 1494 878 1425 
Q 872 1356 872 1306 
Q 872 872 1139 634 
Q 1406 397 1894 397 
Q 2269 397 2603 481 
Q 2938 566 3225 728 
L 3116 159 
Q 2806 34 2476 -28 
Q 2147 -91 1806 -91 
Q 1078 -91 686 257 
Q 294 606 294 1247 
Q 294 1794 489 2264 
Q 684 2734 1063 3103 
Q 1306 3334 1642 3459 
Q 1978 3584 2356 3584 
Q 2950 3584 3301 3228 
Q 3653 2872 3653 2272 
Q 3653 2128 3634 1964 
Q 3616 1800 3578 1613 
z
" transform="scale(0.015625)"/>
      <path id="STIXSizeOneSym-Regular-5" d="M 550 6630 
L 550 6822 
Q 1267 6144 1686 5142 
Q 2106 4141 2106 2886 
Q 2106 1651 1686 636 
Q 1267 -378 550 -1050 
L 550 -858 
Q 1587 410 1587 2886 
Q 1587 5363 550 6630 
z
" transform="scale(0.015625)"/>
     </defs>
     <use xlink:href="#DejaVuSans-Oblique-ab2" transform="translate(0 0.296875)"/>
     <use xlink:href="#DejaVuSans-Oblique-4e" transform="translate(48.509115 44.046875) scale(0.7)"/>
     <use xlink:href="#DejaVuSans-e" transform="translate(102.683919 44.046875) scale(0.7)"/>
     <use xlink:href="#DejaVuSans-14" transform="translate(174.973958 44.046875) scale(0.7)"/>
     <use xlink:href="#DejaVuSans-Oblique-4c" transform="translate(41.308594 -34.142188) scale(0.7)"/>
     <use xlink:href="#DejaVuSans-b" transform="translate(222.244466 0.296875)"/>
     <use xlink:href="#DejaVuSans-Oblique-55" transform="translate(261.258138 0.296875)"/>
     <use xlink:href="#DejaVuSans-c" transform="translate(302.371419 0.296875)"/>
     <use xlink:href="#DejaVuSans-20" transform="translate(360.867513 0.296875)"/>
     <use xlink:href="#DejaVuSans-Oblique-ab2" transform="translate(464.138997 0.296875)"/>
     <use xlink:href="#DejaVuSans-Oblique-4e" transform="translate(512.648112 44.046875) scale(0.7)"/>
     <use xlink:href="#DejaVuSans-Oblique-4c" transform="translate(505.447591 -34.142188) scale(0.7)"/>
     <use xlink:href="#DejaVuSans-b" transform="translate(555.919596 0.296875)"/>
     <use xlink:href="#DejaVuSans-Oblique-55" transform="translate(594.933268 0.296875)"/>
     <use xlink:href="#DejaVuSans-c" transform="translate(636.046549 0.296875)"/>
     <use xlink:href="#DejaVuSans-e" transform="translate(694.542643 0.296875)"/>
     <use xlink:href="#DejaVuSansDisplay-10" transform="translate(838.814128 0.296875)"/>
     <use xlink:href="#DejaVuSans-Oblique-56" transform="translate(797.814128 -96.64375) scale(0.7)"/>
     <use xlink:href="#DejaVuSans-c92" transform="translate(847.921549 -96.64375) scale(0.7)"/>
     <use xlink:href="#DejaVuSans-Oblique-39" transform="translate(922.535807 -96.64375) scale(0.7)"/>
     <use xlink:href="#DejaVuSans-Oblique-24" transform="translate(970.421549 0.296875)"/>
     <use xlink:href="#DejaVuSans-Oblique-55" transform="translate(1038.829753 -14.703076) scale(0.7)"/>
     <use xlink:href="#DejaVuSans-Oblique-56" transform="translate(1067.609049 -14.703076) scale(0.7)"/>
     <use xlink:href="#DejaVuSans-Oblique-369" transform="translate(1123.048827 0.296875)"/>
     <use xlink:href="#DejaVuSans-Oblique-34c" transform="translate(1189.015624 -14.703076) scale(0.7)"/>
     <use xlink:href="#STIXSizeOneSym-Regular-4" transform="translate(1218.341471 -16.626563) scale(1.068115)"/>
     <use xlink:href="#DejaVuSans-Oblique-ab2" transform="translate(1268.322459 0.296875)"/>
     <use xlink:href="#DejaVuSans-Oblique-4e" transform="translate(1316.831573 44.046875) scale(0.7)"/>
     <use xlink:href="#DejaVuSans-Oblique-4c" transform="translate(1309.631053 -34.142188) scale(0.7)"/>
     <use xlink:href="#DejaVuSans-b" transform="translate(1360.103058 0.296875)"/>
     <use xlink:href="#DejaVuSans-Oblique-55" transform="translate(1399.11673 0.296875)"/>
     <use xlink:href="#DejaVuSans-c" transform="translate(1440.230011 0.296875)"/>
     <use xlink:href="#DejaVuSans-f" transform="translate(1479.243683 0.296875)"/>
     <use xlink:href="#DejaVuSans-Oblique-ab2" transform="translate(1530.513214 0.296875)"/>
     <use xlink:href="#DejaVuSans-Oblique-4e" transform="translate(1579.022329 44.046875) scale(0.7)"/>
     <use xlink:href="#DejaVuSans-Oblique-4c" transform="translate(1571.821808 -34.142188) scale(0.7)"/>
     <use xlink:href="#DejaVuSans-b" transform="translate(1622.293813 0.296875)"/>
     <use xlink:href="#DejaVuSans-Oblique-56" transform="translate(1661.307485 0.296875)"/>
     <use xlink:href="#DejaVuSans-c" transform="translate(1713.407094 0.296875)"/>
     <use xlink:href="#DejaVuSans-f" transform="translate(1752.420766 0.296875)"/>
     <use xlink:href="#DejaVuSans-Oblique-48" transform="translate(1803.690297 0.296875)"/>
     <use xlink:href="#DejaVuSans-Oblique-55" transform="translate(1865.213735 -14.703076) scale(0.7)"/>
     <use xlink:href="#DejaVuSans-Oblique-56" transform="translate(1893.993032 -14.703076) scale(0.7)"/>
     <use xlink:href="#STIXSizeOneSym-Regular-5" transform="translate(1933.197133 -16.626563) scale(1.068115)"/>
    </g>
   </g>
   <g id="text_17">
    <!-- The center index $i$ is retained during pair evolution; this is not direct message passing on $H$. -->
    <g style="fill: #cc3311" transform="translate(102.06 360.69765) scale(0.105 -0.105)">
     <defs>
      <path id="DejaVuSans-37" d="M -19 4666 
L 3928 4666 
L 3928 4134 
L 2272 4134 
L 2272 0 
L 1638 0 
L 1638 4134 
L -19 4134 
L -19 4666 
z
" transform="scale(0.015625)"/>
      <path id="DejaVuSans-1e" d="M 750 3309 
L 1409 3309 
L 1409 2516 
L 750 2516 
L 750 3309 
z
M 750 794 
L 1409 794 
L 1409 256 
L 897 -744 
L 494 -744 
L 750 256 
L 750 794 
z
" transform="scale(0.015625)"/>
     </defs>
     <use xlink:href="#DejaVuSans-37" transform="translate(0 0.015625)"/>
     <use xlink:href="#DejaVuSans-4b" transform="translate(61.083984 0.015625)"/>
     <use xlink:href="#DejaVuSans-48" transform="translate(124.462891 0.015625)"/>
     <use xlink:href="#DejaVuSans-3" transform="translate(185.986328 0.015625)"/>
     <use xlink:href="#DejaVuSans-46" transform="translate(217.773438 0.015625)"/>
     <use xlink:href="#DejaVuSans-48" transform="translate(272.753906 0.015625)"/>
     <use xlink:href="#DejaVuSans-51" transform="translate(334.277344 0.015625)"/>
     <use xlink:href="#DejaVuSans-57" transform="translate(397.65625 0.015625)"/>
     <use xlink:href="#DejaVuSans-48" transform="translate(436.865234 0.015625)"/>
     <use xlink:href="#DejaVuSans-55" transform="translate(498.388672 0.015625)"/>
     <use xlink:href="#DejaVuSans-3" transform="translate(539.501953 0.015625)"/>
     <use xlink:href="#DejaVuSans-4c" transform="translate(571.289062 0.015625)"/>
     <use xlink:href="#DejaVuSans-51" transform="translate(599.072266 0.015625)"/>
     <use xlink:href="#DejaVuSans-47" transform="translate(662.451172 0.015625)"/>
     <use xlink:href="#DejaVuSans-48" transform="translate(725.927734 0.015625)"/>
     <use xlink:href="#DejaVuSans-5b" transform="translate(785.451172 0.015625)"/>
     <use xlink:href="#DejaVuSans-3" transform="translate(844.630859 0.015625)"/>
     <use xlink:href="#DejaVuSans-Oblique-4c" transform="translate(876.417969 0.015625)"/>
     <use xlink:href="#DejaVuSans-3" transform="translate(904.201172 0.015625)"/>
     <use xlink:href="#DejaVuSans-4c" transform="translate(935.988281 0.015625)"/>
     <use xlink:href="#DejaVuSans-56" transform="translate(963.771484 0.015625)"/>
     <use xlink:href="#DejaVuSans-3" transform="translate(1015.871094 0.015625)"/>
     <use xlink:href="#DejaVuSans-55" transform="translate(1047.658203 0.015625)"/>
     <use xlink:href="#DejaVuSans-48" transform="translate(1086.771484 0.015625)"/>
     <use xlink:href="#DejaVuSans-57" transform="translate(1148.294922 0.015625)"/>
     <use xlink:href="#DejaVuSans-44" transform="translate(1187.503906 0.015625)"/>
     <use xlink:href="#DejaVuSans-4c" transform="translate(1248.783203 0.015625)"/>
     <use xlink:href="#DejaVuSans-51" transform="translate(1276.566406 0.015625)"/>
     <use xlink:href="#DejaVuSans-48" transform="translate(1339.945312 0.015625)"/>
     <use xlink:href="#DejaVuSans-47" transform="translate(1401.46875 0.015625)"/>
     <use xlink:href="#DejaVuSans-3" transform="translate(1464.945312 0.015625)"/>
     <use xlink:href="#DejaVuSans-47" transform="translate(1496.732422 0.015625)"/>
     <use xlink:href="#DejaVuSans-58" transform="translate(1560.208984 0.015625)"/>
     <use xlink:href="#DejaVuSans-55" transform="translate(1623.587891 0.015625)"/>
     <use xlink:href="#DejaVuSans-4c" transform="translate(1664.701172 0.015625)"/>
     <use xlink:href="#DejaVuSans-51" transform="translate(1692.484375 0.015625)"/>
     <use xlink:href="#DejaVuSans-4a" transform="translate(1755.863281 0.015625)"/>
     <use xlink:href="#DejaVuSans-3" transform="translate(1819.339844 0.015625)"/>
     <use xlink:href="#DejaVuSans-53" transform="translate(1851.126953 0.015625)"/>
     <use xlink:href="#DejaVuSans-44" transform="translate(1914.603516 0.015625)"/>
     <use xlink:href="#DejaVuSans-4c" transform="translate(1975.882812 0.015625)"/>
     <use xlink:href="#DejaVuSans-55" transform="translate(2003.666016 0.015625)"/>
     <use xlink:href="#DejaVuSans-3" transform="translate(2044.779297 0.015625)"/>
     <use xlink:href="#DejaVuSans-48" transform="translate(2076.566406 0.015625)"/>
     <use xlink:href="#DejaVuSans-59" transform="translate(2138.089844 0.015625)"/>
     <use xlink:href="#DejaVuSans-52" transform="translate(2197.269531 0.015625)"/>
     <use xlink:href="#DejaVuSans-4f" transform="translate(2258.451172 0.015625)"/>
     <use xlink:href="#DejaVuSans-58" transform="translate(2286.234375 0.015625)"/>
     <use xlink:href="#DejaVuSans-57" transform="translate(2349.613281 0.015625)"/>
     <use xlink:href="#DejaVuSans-4c" transform="translate(2388.822266 0.015625)"/>
     <use xlink:href="#DejaVuSans-52" transform="translate(2416.605469 0.015625)"/>
     <use xlink:href="#DejaVuSans-51" transform="translate(2477.787109 0.015625)"/>
     <use xlink:href="#DejaVuSans-1e" transform="translate(2541.166016 0.015625)"/>
     <use xlink:href="#DejaVuSans-3" transform="translate(2574.857422 0.015625)"/>
     <use xlink:href="#DejaVuSans-57" transform="translate(2606.644531 0.015625)"/>
     <use xlink:href="#DejaVuSans-4b" transform="translate(2645.853516 0.015625)"/>
     <use xlink:href="#DejaVuSans-4c" transform="translate(2709.232422 0.015625)"/>
     <use xlink:href="#DejaVuSans-56" transform="translate(2737.015625 0.015625)"/>
     <use xlink:href="#DejaVuSans-3" transform="translate(2789.115234 0.015625)"/>
     <use xlink:href="#DejaVuSans-4c" transform="translate(2820.902344 0.015625)"/>
     <use xlink:href="#DejaVuSans-56" transform="translate(2848.685547 0.015625)"/>
     <use xlink:href="#DejaVuSans-3" transform="translate(2900.785156 0.015625)"/>
     <use xlink:href="#DejaVuSans-51" transform="translate(2932.572266 0.015625)"/>
     <use xlink:href="#DejaVuSans-52" transform="translate(2995.951172 0.015625)"/>
     <use xlink:href="#DejaVuSans-57" transform="translate(3057.132812 0.015625)"/>
     <use xlink:href="#DejaVuSans-3" transform="translate(3096.341797 0.015625)"/>
     <use xlink:href="#DejaVuSans-47" transform="translate(3128.128906 0.015625)"/>
     <use xlink:href="#DejaVuSans-4c" transform="translate(3191.605469 0.015625)"/>
     <use xlink:href="#DejaVuSans-55" transform="translate(3219.388672 0.015625)"/>
     <use xlink:href="#DejaVuSans-48" transform="translate(3258.501953 0.015625)"/>
     <use xlink:href="#DejaVuSans-46" transform="translate(3320.025391 0.015625)"/>
     <use xlink:href="#DejaVuSans-57" transform="translate(3375.005859 0.015625)"/>
     <use xlink:href="#DejaVuSans-3" transform="translate(3414.214844 0.015625)"/>
     <use xlink:href="#DejaVuSans-50" transform="translate(3446.001953 0.015625)"/>
     <use xlink:href="#DejaVuSans-48" transform="translate(3543.414062 0.015625)"/>
     <use xlink:href="#DejaVuSans-56" transform="translate(3604.9375 0.015625)"/>
     <use xlink:href="#DejaVuSans-56" transform="translate(3657.037109 0.015625)"/>
     <use xlink:href="#DejaVuSans-44" transform="translate(3709.136719 0.015625)"/>
     <use xlink:href="#DejaVuSans-4a" transform="translate(3770.416016 0.015625)"/>
     <use xlink:href="#DejaVuSans-48" transform="translate(3833.892578 0.015625)"/>
     <use xlink:href="#DejaVuSans-3" transform="translate(3895.416016 0.015625)"/>
     <use xlink:href="#DejaVuSans-53" transform="translate(3927.203125 0.015625)"/>
     <use xlink:href="#DejaVuSans-44" transform="translate(3990.679688 0.015625)"/>
     <use xlink:href="#DejaVuSans-56" transform="translate(4051.958984 0.015625)"/>
     <use xlink:href="#DejaVuSans-56" transform="translate(4104.058594 0.015625)"/>
     <use xlink:href="#DejaVuSans-4c" transform="translate(4156.158203 0.015625)"/>
     <use xlink:href="#DejaVuSans-51" transform="translate(4183.941406 0.015625)"/>
     <use xlink:href="#DejaVuSans-4a" transform="translate(4247.320312 0.015625)"/>
     <use xlink:href="#DejaVuSans-3" transform="translate(4310.796875 0.015625)"/>
     <use xlink:href="#DejaVuSans-52" transform="translate(4342.583984 0.015625)"/>
     <use xlink:href="#DejaVuSans-51" transform="translate(4403.765625 0.015625)"/>
     <use xlink:href="#DejaVuSans-3" transform="translate(4467.144531 0.015625)"/>
     <use xlink:href="#DejaVuSans-Oblique-2b" transform="translate(4498.931641 0.015625)"/>
     <use xlink:href="#DejaVuSans-11" transform="translate(4574.126953 0.015625)"/>
    </g>
   </g>
  </g>
 </g>
 <defs>
  <clipPath id="p7d8b2a3cfc">
   <rect x="7.2" y="7.2" width="948.6" height="410.256"/>
  </clipPath>
 </defs>
</svg>
